<svg xmlns="http://www.w3.org/2000/svg" width="1861.9" height="1429.8" version="1.0" viewBox="279.9 504.9 1861.9 1429.8"><path fill="#e87430" d="M624.594 1051.79c2.043-15.86-2.914-33.81-12.184-44.49-9.785-11.26-29.601-13.41-41.914-5.44-6.004 3.878-11.289 8.84-15.941 14.53-47.149 13.13-59.356 100.84-38.871 139.282 5.132 9.656 15.246 15.656 26.101 17.52 13.996 25.058 50.781 19.699 64.828-1.942 21.094-32.39 34.582-83.93 17.98-119.46"/><path fill="#e87430" d="M1348.09 998.414c-41.098-49.324-92.766-93.988-143.649-132.867-64.437-49.242-143.625-44.211-213.609-76.938-57.516-26.941-107.73 58.907-49.93 85.442 49.907 22.883 103.825 28.144 155.793 44.492 58.785 18.496 102.176 69.043 146.285 109.219 81.563 74.324 100.016 191.511 83.036 299.12-6.274 3.602-11.743 9.067-15.528 17.055-20.644 43.372-27.074 89.274-39.586 135.274-13.465 49.34-48.172 96.96-85.132 130.918-73.067 67.2-196.801 94.86-292.786 95.05-110.445.173-197.59-39.827-289.03-97.34-22.376-14.05-46.942-23.73-67.403-40.82-17.395-14.628-27.969-46.257-37.703-66.257-16.957-34.91-40.989-66.563-55.653-102.067 4.293-8.379 5.977-18.34 3.168-29.168-2.633-9.957-5.773-19.718-8.988-29.449-1.484-7.883-2.684-15.777-3.785-23.652 7.203-8.102 12.21-18.973 13.234-32.738.867-11.731 1.48-23.454 2.067-35.196 27.406 29.68 86.254 20.89 85.464-30.652-.484-31.668-.996-63.192 1.172-94.813 1.739-24.875 7.18-79.84 31.035-94.02 13.41-7.968 12.512-26.433 0-34.605-16.753-10.953-31.316-15.707-44.085-15.863-2.68-1.148-5.414-2.144-8.172-2.883-14.97-23.879-55.785-28.734-75.375-.133-24.442 35.684-49.524 65.848-65.055 104.52-1.61 1.484-3.168 3.039-4.676 4.906-37.11 46.793-45.383 110.817-33.992 169.52-1.227 22.426 1.25 43.898 5.973 65.308.847 8.121 2.047 16.246 3.554 24.418-.18 1.766-.386 3.496-.359 5.364 1.793 62.375 26.637 115.113 56.676 168.73 31.98 57.063 49.094 109.09 104.98 147.652 52.969 36.61 103.29 77.848 163.82 101.989 60 23.879 122.22 34.789 186.508 38.8 126.278 7.872 254.723-32.359 361.102-99.082 54.305-34.046 92.621-84.156 122.496-139.988 19.824-36.988 28.516-75.3 36.402-114.27.032-.03.032-.058.032-.078 60.578-138.44 75.109-330.792-28.301-454.898"/><path fill="#e87430" d="M938.684 882.305c-1.614-27.492.66-60.895-10.399-86.086-.18.133-.387.304-.562.437-4.75-7.687-16.348-10.652-21.61-.437-12.11 23.523-4.75 51.035-1.937 76.472 3.062 27.516-5.723 58.954 3.062 84.493 2.453 7.105 11.621 10.468 17.266 4.55 19.437-20.336 15.683-52.922 14.18-79.43"/><path fill="#e87430" d="M933.719 782.746c-12.028-.133-30.16 13.813-20.305 26.586 3.117 2.07 6.492 3.195 10.04 3.422.792.082 6.944-.664 4.109-.43 3.375-.289 6.722-.36 10.015-1.281 15.735-4.414 12.461-28.172-3.86-28.297M1331.23 946.941c-24.52-28.191-63.14-57.39-102.039-47.191-.28.04-.28.379-.082.559 31.27 23.52 61.102 44.28 87.332 74.011 20.868 23.66 38.387 68.051 68.829 80.032 3.582 1.43 6.949-2.102 7.101-5.442 1.688-35.3-39.332-76.879-61.14-101.969M982.84 996.16c-2.246-28.039-4.445-56.031-5.695-84.129-.82-18.11 2.273-41.61-7.028-57.851-4.847-8.43-14.554-9.68-22.726-5.98-32.645 14.87-30.524 90.062-34.176 119.23-4.445 35.32-29.04 128.12 20.277 141.68 61.352 16.878 51.98-79.481 49.348-112.95"/><path fill="#e87430" d="M1347.219 1144.148c-56.649-114.52-188.91-273.218-329.797-264.918-1.684.079-3.223.41-4.774.692-.027-1.89-.16-3.75-.18-5.64-.968-42.782-59.46-40.153-64.542 0-.41 3.218-.742 6.437-1.102 9.628-2.5.64-4.8 2.399-5.972 5.36-36.551 90.68-13.844 179.511-14.075 274.14-.082 21.559 17.032 32.29 33.946 32.29 3.78 37.8 9.168 75.241 12.922 112.89 1.84 31.75 3.19 63.52 3.753 95.351.59 33.329 34.352 44.97 57.832 35.22 4.72 14.1 18.098 20.589 32.051 20.558 1.528 2.812 2.957 5.59 4.68 8.351 19.508 31.551 65.738 17.5 67.66-18.34 3.418-64.671-19.371-131.082-26.11-195.39-6.1-58.719-8.331-117.82-14.35-176.57-2.56-24.668-4.5-66.149-12.47-104.82 73.309 44.698 130.059 142.722 164.637 207.519 66 123.781 38.98 273.68-28.418 390.3-24.422 42.25 35.371 91.391 68.88 53.13 116.62-133.43 133.331-322.13 55.429-479.75"/><path fill="#e87430" d="M1303.441 1325.91c-.87-61-3.941-121.91-11.5-182.5-3.73-29.73-29.39-46.64-53.101-40.762-3.899-15.148-9.98-29.418-19.309-42.117-4.18-5.75-9.62-10.68-15.71-14.511-.891-5.18-3.012-10.418-6.81-15.532-16.89-22.476-32.09-46.02-48.202-69.008-13.13-18.718-34.168-24.75-52.207-17.68-30.704-3.21-63.493 18.34-48.832 54.25 2.19 5.372 4.59 10.321 7.152 15.052-.39.707-.82 1.347-1.184 2.117-17.136 36.601-15.808 66.082 2.301 102.11a46.276 46.276 0 0 0 4.242 6.773c2.2 20.617 5.418 41.199 9.098 61.937 1.48 57.75 16.7 117.652 35.93 159.973 4.27 9.367 10.601 15.297 17.863 18.687 3.7 21.621 9.219 42.63 17.848 62.45 3.421 31.37 8.5 62.48 17.96 92.921 6.61 21.38 21.579 32.239 37.801 34.61 21.707 23.992 66.64 19.23 75.14-16.168 16.04-4.82 29.317-18.133 29.68-40.121.97-57.72 8.118-115.371 1.84-172.48M850.328 930.012c-36.422-27.153-67.02-7.563-107.785-10.422-5.11-.36-9.191.988-12.313 3.48-4.8-4.66-9.601-8.77-14.863-9.992-32.512-7.437-63.394-10.137-94.758-22.707-46.46-18.57-83.75-13.133-123.367 18.008-36.55 28.71-171.308 138.46-124.902 195.82.414.52 1.332.442 1.765 0 24.086-25.097 37.88-60.828 61.454-87.777 27.152-31.082 59.945-58.473 93.992-81.563 51.851-35.14 96.191 2.84 150.008 6.801 37.238 2.68 53.328 39.05 89.726 23.781 4.012-1.66 7.23-5.062 9.067-8.941 21.738-3.71 44.086-7.738 56.804-.54 17.32 9.759 30.344-14.632 15.172-25.948"/><path fill="#e87430" d="M842.54 917.5c-14.38 2.86-18.618-5.09-29.349-6.29-13.894-1.55-27.632-2.3-41.66-2.42-29.343-.18-45.945 12.429-72.101 22.14-.664.25-.508 1.148.18 1.23 22.55 2.55 38.769 8.68 61.68 7.531 18.745-.941 61.66-12.16 78.468-.992 16.906 11.16 25.797-25.777 2.781-21.199M697.078 949.809c-2.758-20.41-29.73-33.13-47.918-27.207-.406.16-.812.308-1.222.468-8.813-11.879-23.88-19.55-42.016-15.922-46.613 9.403-101.988 21.993-133.43 60.692-4.879 6.031-5.902 17.289 2.73 21.12 15.684 6.97 30.704 7.052 45.493 4.731-14.176 35.63 24.902 68.47 59.59 51.047 10.418-5.207 20.61-11.16 30.8-17.11-26.46 49.942-88.957 91.161-104.16 143.27-17.875 61.192-12.36 150.743 35.836 197.282 10.09 9.761 27.332 16.242 41.254 10.91 32.332-12.418 38.207-41.61 20.278-70.34-18.672-29.969-33.333-83.172-26.973-118.422 7.433-41.117 62.629-77.308 86.078-110.187 29.14-40.84 40.352-80.582 33.66-130.332"/><path fill="#e87430" d="M1020.441 1269.21c-86.949-88.48-168.582-182.929-262.238-264.57-18.418-16.09-43.371-12.609-58.926.36-4.086-2.809-8.097-5.691-12.285-8.43-29.527-19.05-70.777 18.211-52.691 48.559-.664.512-1.305 1.101-1.946 1.66-2.96-.258-5.921-.21-8.863.3-2.066-2.5-4.11-5.03-6.207-7.48-30.851-36.27-89.902 10.75-65.18 50.29.305.492.614 1.023.918 1.511-7.507 5.852-12.718 14.102-13.742 23.75-14.3 9.578-23.754 26.16-17.824 45.18.766 2.48 1.555 4.96 2.348 7.441-16.14 5.899-29.32 20.82-28.965 41.63-7.508-1.532-15.582-.513-22.934 2.558-15.375-41.2-78.465-35.2-78.976 11.57-.305 30.031 4.851 64.082 14.586 97.973.738 4.136 1.632 8.258 2.629 12.437-10.368 60.461 29.218 116.403 73.609 159.89.894 4.09 2.558 8.282 5.137 12.54 23.14 37.832 48.91 70.402 92.152 84.73 4.496 1.48 8.965 1.782 13.281 1.352 2.07 1.379 4.164 2.89 6.207 4.187 27.434 17.801 64.828-11.52 55.07-42.347-3.78-11.98-8.84-23.242-14.636-34.121a37.36 37.36 0 0 0 13.969-8.25c10.093 13.148 21.714 25.148 36.015 35.172C718 1566 748.367 1540 750.871 1512.719c1.277-14.149 0-27.89-3.062-41.278 10.699-3.52 19.894-11.59 24.976-22.27 5.645 5.438 11.418 10.75 17.445 15.888 28.122 23.882 84.06 2.863 70.727-38.368 3.703-1.453 7.2-3.34 10.293-5.691 1.836 1.23 3.55 2.531 5.39 3.7 24.16 15.3 55.575-3.571 61.348-27.891 25.364-2.399 41.813-35.938 26.567-60.559a41.17 41.17 0 0 0 7.71-2.43c36.473 20.75 81.985-30.16 48.176-64.61"/><path fill="#e87430" d="M1003.5 1255.05c-7.688-82.39-35.883-162.26-83.824-230.05a44.855 44.855 0 0 0-10.906-10.75c10.726-8.02 19.64-19.59 26-35.91 6.847-17.602-7.356-40.512-25.16-44.34-34.458-7.36-68.833-14.309-104.083-15.922-10.925-.476-21.504.973-31.875 3.582-7.789-.082-15.53 2.43-22.168 7.02-3.191 1.148-6.336 2.332-9.527 3.398-1.61.082-3.016.25-4.266.461-23.91-40.43-85.87-4.289-66.816 34.742 5.059 13.688 12.488 24.75 22.223 32.508 10.625 20.36 15.195 40.48 39.945 55.61 6.05 3.703 12.156-2.329 11.031-8.489-.148-.762-.254-1.601-.406-2.34 1.148 1.711 2.555 3.32 4.113 4.871-.027.028-.078.047-.078.079 36.68 40.308 69.934 81.218 101.45 125.77 28.816 40.69 59.105 83.14 102.042 109.78 20.992 13.051 54.785-3.558 52.305-30.02"/><path fill="#e87430" d="M1203.621 1454.148c-7.05-10.449-18.543-16.289-30.09-17.207.688-15.3-8.68-30.992-28.043-32.543-18.36-7.199-44.289 2.223-45.207 28.172-.05 1.02-.082 2.04-.152 3.121-25.059-27.972-54.05-52.191-84.29-67.543-1.64-5.867-3.519-12.226-5.929-16.289.621-.738 1.02-1.71 1.738-2.347 12.243-10.832 11.063-26.82 4.063-39.492.488.742 1 1.511 1.46 2.27-6.343-18.13-29.476-32.38-47.64-19.38-11.11 7.942-18.336 16.57-22.656 25.64-32.535-16.288-62.422 21.759-51.027 52.821-8.688-3.8-17.575-6.871-26.903-8.71-23.316-4.673-50.925 15.53-41.707 41.679.614 1.719 1.356 3.351 1.996 5.012-2.89 0-5.726.359-8.535 1.097-20.586-15.629-51.64 1.461-46.027 28.051-11.156-10.352-22.574-20.23-34.375-29.46-30.113-23.392-64.29 4.698-53.586 35.1-6.54 8.348-10.035 19.13-8.176 30.06-8.965-6.669-18.004-13.15-27.226-19.31-43.829-29.34-82.551 39.95-40.817 69.88.258.16.512.39.766.57-7.914.762-15.735 2.12-23.985 4.262-6.918 1.789-11.875 6.359-14.683 12.027-10.168-4.11-20.434-7.988-30.957-11.36-44.031-14.097-74.375 55.5-31.746 75.32 81.351 37.802 165.023 70.821 244.508 112.56 14.918 7.82 29.117 5.492 39.793-1.86 16.91 9.781 35.148 5.102 47.023-6.258a377.992 377.992 0 0 0 19.562 10.188c15.711 7.582 35.79 3.55 47.743-7.739 4.75 9.09 13.379 16.348 25.87 17.88 10.856 1.35 23.985 1.449 36.985-.15 1.05-.081 2.07-.108 3.094-.179 3.164-.18 6.226-.87 9.09-1.89 14.89-3.22 28.707-8.942 37.593-17.98 1.563.788 3.223 1.53 5.012 2.089 2.86.898 5.77 1.79 8.61 2.71 7.07 2.2 15.402 1.15 22.5-2.23 117.19-11.59 219.808-150.128 146.351-258.582"/><path fill="#f36653" d="M539.281 1063.59c-.511.082-.867-.2-1.07-.86-.613-1.968-3.754-1.69-3.68.508.102 2.602 1.36 4.703 4.09 5.262 3.777.79 4.137-5.191.66-4.91"/><path fill="#f36653" d="M567.89 978.078c-2.863.082-5.722.211-8.581.281-13.895.493-29.426 11.93-29.32 27.102-80.536 18.09-78.262 124.52-61.555 193.219 3.722 15.199 29.039 12.21 27.66-3.75-2.43-28.399-2.02-57.04 3.344-85.13 2.042-10.73 20.535-67.972 40.968-79.51 6.793 5.92 18.442 9.07 26.715 5.82 1.332-.54 2.66-1.051 3.988-1.579 27.508-2.812 35.758-57.781-3.218-56.453"/><path fill="#f36653" d="M682.879 1524.059c-32.82-28.79-61.863-60.23-84.39-96.399-10.169-23.238-15.173-47.879-16.4-73.14 23.27 60.992 60.97 118.609 100.79 169.539Zm-84.188 9.863c6.848 7.656 13.895 15.137 21.149 22.348-8.274-6.641-16.344-13.41-23.985-20.56.95-.589 1.946-1.081 2.836-1.788Zm189.805-423.383c12.055-22.777-21.512-42.578-34.613-20.23-8.988 15.351-17.266 30.73-24.852 46.28-9.625-9.78-26.664-11.8-34.738 3.942-7.89 15.32-14.121 31.559-19.078 48.32-22.73 63.06-36.625 126.739-33.563 188.86-22.832-74.082-28.425-154.2-13.586-224.34 11.621-27.96-37.136-48.45-48.91-20.61-.922 2.15-1.66 4.29-2.531 6.438-.05 0-.102-.027-.18-.078-.078.41-.175.77-.226 1.149-8.89 22.89-14.254 45.82-16.5 68.66-4.09 15.761-8.047 31.36-11.57 46.86 1.402-39.231 5.667-78.411-1.153-117.33 38.211-41.429 106.152-120.581 31.059-141.25-5.106-1.401-9.961-1.94-14.711-2.12-6.516-8.68-17.727-14.121-32.489-11.11-5.007 1.02-9.91 2.348-14.761 3.91-10.477-6.18-23.5-7.769-34.457-.511-87.125 57.75-115.27 161.293-94.48 255.652-15.887 30.469-21.555 63.93-14.352 101.598 5.41 28.66 14.554 52.23 26.203 73.871 4.722 18.441 12.11 36.8 23.398 55.172 40.38 65.539 105.742 118.707 175.852 150 .488.308.945.668 1.457.969.027-.082.05-.153.101-.25 2.633 1.168 5.211 2.52 7.868 3.62 32.132 13.329 48.48-25.511 35.273-50.011 26.59 23.73 54.176 44.5 79.156 60.988 22.27 14.75 48.32-19.117 28.477-36.976-17.703-15.883-35.453-31.723-52.692-48.043.84-3.68.922-7.457.051-11.11 3.906 4.801 7.817 9.532 11.75 14.2 10.242 12.18 31.516-4.137 22.117-17.09-36.832-50.598-52.87-103.7-54.632-157.508 9.32 30.7 22.73 59.758 40.328 85.508 11.93 17.441 40.586 7.02 34.84-14.688-13.743-51.953-32.563-100.66-29.782-155.293 3.32-65.77 35.735-130.308 65.926-187.449"/><path fill="#f36653" d="M594.914 1215.21c2.348.821 4.902 1.118 7.563 1.169-1.329 8.793-2.43 17.652-3.372 26.57a613.76 613.76 0 0 1-5.187-24.32c.305-1.117.691-2.25.996-3.418Zm5.262-70.722c-.614-7.328-1.531-14.61-2.813-21.789 12.262-10.039 24.727-18.289 39.032-24.32-5.11 6.723-9.961 13.562-14.457 20.562-8.176 7.797-15.536 16.22-21.762 25.547Zm202.136-98.058c-10.726-10.04-21.558-15.5-32.44-17.14.562-12.31-3.981-23.321-16.063-32.33-2.325-1.741-4.829-3.17-7.356-4.42 7.79-17.321-1.152-42.731-23.933-39.97-22.883 2.73-50.832 6.2-76.293 14.45-2.274-6.872-7.485-12.692-15.043-14.301-63.192-13.29-124.364 9.52-157.29 65.922-14.554 24.879 21.536 54.629 40.82 31.468 2.985-3.578 6.13-6.82 9.247-9.988 6.332 7.82 16.297 12.93 28.707 10.809 7.559-1.461 15.02-3.22 22.527-4.828.051 2.859.203 5.687.715 8.43a164.728 164.728 0 0 0-8.89 8.988c-12.922-2.918-27.278 5.011-28.81 22.601-.612 7.05-.968 14.02-1.276 21.05-26.461 50.157-39.692 116.419-10.575 163.34 7.176 11.52 19.106 14.04 29.524 10.09 15.351 63.13 37.957 124.95 61.582 185.38 7.129 18.23 23.246 23.14 36.347 18.62 14.532 20.41 50.57 14.63 50.723-14.82.18-39.84-13.738-75.703-23.14-112.972-1.274-10.137-2.399-20.23-3.446-30.387-.742-7.492-1.558-15.453-2.273-23.703 9.273-47.719 27.738-96.63 29.246-139.309.101-2.762-.485-5.672-1.406-8.5 18.132-14.129 36.293-28.172 55.53-40.77 18.438 4.52 32.845-7 37.032-29.98 13.332-7.308 18.469-26.238 6.235-37.73"/><path fill="#f36653" d="M783.922 1523.172c-30.399-49.781-91.313-102.582-93.586-165.063-.074-2.418-3.625-3.007-4.29-.558-9.808 36.12-7.816 74.46 3.934 109.86-5.824 3.628-10.625 9.12-12.695 15.48-8.969 27.199-4.164 52.89 6.664 77.62.156 3.848.41 7.66.899 11.31-15.02-1.84-30.063-3.52-45.364-3.493-33.87.07-44.418 38.102-25.464 61.5 21.273 26.25 63.75 59.41 100.48 47.844 13.895-4.371 22.145-16.024 24.16-28.434.36 0 .692.024 1.024.024 33.41.11 45.82-38.84 25.695-62.012-4.879-4.629-8.79-9.762-12.16-15.2.867-4.34.816-8.94-.586-13.741 19.488 8.613 44.265-13.918 31.289-35.137M1092.422 998.95c-27.39-32.47-88.692-86.36-133.719-56.778-10.09 6.637-8.914 22.527 3.399 25.95l11.03 4.827c1.79 1.43 3.782 1.61 5.52 1.172 34.477 14.2 59.559 37.04 84.7 66.848 27.507 32.61 37.52 77.59 64.82 108.73 9.25 10.52 23.598 3.16 28.02-7.437 19.18-45.922-37.012-111.59-63.77-143.313"/><path fill="#f36653" d="M1199.84 1093.3c-11.262-79.312-112.18-124.85-181.34-137.14-82.402-14.648-157.313 13.899-193.508 90.25-4.855 10.16 8.61 22.93 16.703 12.918 41.176-50.879 113.457-54.656 172.356-40.226 63.55 15.558 95.02 57.648 135.777 103.34 22.223 24.93 53.793-2.551 50.012-29.141"/><path fill="#f36653" d="M1013.95 999.637c6.312-8.301 11.14-17.606 14.968-27.434 9.453 15.887 21.504 30.059 34.617 43.274-12.7-4.649-25.879-8.438-39.476-11.395-3.313-1.504-6.739-3.039-10.11-4.445Zm132.823-70.293a99.713 99.713 0 0 0-3.582-3.778c-11.03-14.382-24.566-27.23-38.062-38.492-23.332-19.465-44.566-29.496-68.746-32.062a348.637 348.637 0 0 0-1.95-12.282c-6.484-36.675-64.312-27.273-63.824 8.637.328 24.13.688 48.293.996 72.461-5.953 25.082-21.558 45-54.457 54.02-47.507 12.949-103.086-1.918-151.691-.18-26.027.95-34.71 23.98-27.66 41.836-1.36 2.629-2.145 5.547-2.402 8.586-5.11 4.101-10.012 8.445-14.508 13.457-18.082 20.027-5.672 51.32 21.656 52.34 31.621 1.203 56.96-6.008 80.023-27.95 2.782-2.683 4.602-5.613 5.95-8.656 35.863-4.18 75.785 1.438 106.308 3.809 40.508 3.113 78.934 7.738 111.153 23.527 25.183 21.07 47.82 45.563 68.558 70.442 28.149 33.789 75.352-9.172 57.727-44.524-11.114-22.223-24.98-40.203-40.973-54.86 10.215-2.573 19.254-10.655 21.86-21.1 8.019 1.284 15.382-.919 20.898-5.485.152.84.414 1.758.515 2.629 2.598 25.562 41.426 26.707 40.708 0-1.102-41.184-31.16-78.082-68.497-102.375"/><path fill="#f36653" d="M1220.379 1027.379c-13.23-59.469-71.059-102.957-120.25-133.719-11.14-6.941-20.027 7.871-13 16.79 2.98 3.75 5.902 7.48 8.86 11.23 2.66 3.3 6.382 3.789 9.812 2.629 16.91 13.132 32.64 27.492 47.398 43.203 20.082 21.398 36.223 45.258 57.781 65.328 4.192 3.941 10.649.082 9.399-5.461"/><path fill="#f36653" d="M1244.031 937.29c-31.37-32.33-97.672-89.04-147.43-69.63-12.671 4.942-20.331 21.692-8.55 32.418 13.25 12.031 30.058 19.531 44.82 29.633 22.84 15.648 42.629 37.36 60.3 58.41 28.74 34.2 42.43 90.16 77.727 116.39 11.293 8.348 25.922 1.02 32.954-8.66 34.988-48.25-27.954-125.64-59.82-158.562"/><path fill="#f36653" d="M1261.27 993.809c-18.848-31.36-50.391-70.57-91.36-58.36-7.672 2.27-7.2 12.59 0 15.102 29.469 10.16 40.2 36.039 45.05 66.199-18.46-18.77-39.358-33.05-63.288-45.36-24.363-12.57-59.102 8.169-49.14 37.75 5.917 17.372 14.167 33.688 20.89 50.7 8 20.18 8.379 37.62 23.828 53.922 12.852 13.61 32.469 8.066 42.27-5.442 3.628-4.93 6.011-10.191 7.511-15.68 13.18 13.97 28.02 28.91 36.809 44.079 16.648 28.761 59.969 22.09 69.14-9.04 12.18-41.48-21.152-99.64-41.71-133.87M1075.809 1136.52c-5.52-5.57-11.797-10.73-18.637-15.461-.922-6.43-3.992-12.918-10.152-18.72-68.036-64.308-155.668-69.648-230.457-12.69-66.512 50.62-99.766 139.742-68.297 218.53 2.425 6.051 11.445 5.47 11.695-1.609.516-14.199 3.117-29.09 7.387-43.98.89 26.59 4.875 52.262 11.566 73.941 5.52 17.88 32.137 11.93 31.188-3.98 8.554-35.102 3.117-73.36 4.367-110.223 16.55-38.61 48.222-70.289 89.191-80.726 27.692-7.082 55.707-1.582 83.73 5.207a316.187 316.187 0 0 1 18.688 8.582c9.203 4.57 18.57 4.57 26.82 1.738 11.09 1.941 22.172 3.172 33.18 2.883 11.98-.23 18.313-14.813 9.73-23.492"/><path fill="#f36653" d="M784.637 1222.852c1.789-8.872 12.363-29.66 5.515-38.293a5059.822 5059.822 0 0 1-3.828-4.75c-6.746-8.48-19.312-5.93-26.465 0-50.418 42.07-88.726 309.972 11.34 304.402 6.031-.332 11.957-5 11.57-11.563-2.882-52.238-12.511-102.117-10.671-155.25 1.093-31.867 6.359-63.32 12.539-94.546"/><path fill="#f36653" d="M1152.898 1164.18c-8.328-53.078-86.046-76.5-132.16-80.07-59.351-4.63-122.797 7.94-168.414 48.831-99.59 89.27-111.976 216.95-92.156 343.23.406 2.528 4.289 2.298 4.852 0 23.117-98.16 6.128-199.07 80.894-278.48 39.074-41.511 89.29-59.082 145.2-59.77 29.374-.331 58.335 8.118 84.386 21.099 19.602 9.75 32.238 24.109 54.309 28.25 14.992 2.832 25.41-8.461 23.09-23.09"/><path fill="#f36653" d="M1193.66 1226.012c-15.941-57.903-54.96-112.813-107.762-141.852-18.16-10.02-76.34-37.191-78.867 1.961-.46 7.149 7.89 9.04 12.39 5.34.45.148.688.309 1.27.43 5.239 2.507 10.168 4.93 15.18 7.949 10.059 6.082 19.969 12.558 29.617 19.281 24.422 17.04 40.973 42.988 55.203 68.629 11.36 20.41 21.38 70.371 46.758 77.398 26.242 7.204 31.551-19.648 26.211-39.136"/><path fill="#f36653" d="M1216.078 1226.29c-13.86-51.212-40.398-110.59-85-141.93-12.77-8.989-28.906 8.378-20.988 20.968 27.07 43.012 44.14 85.973 63.601 132.66 10.52 25.364 50.079 16.5 42.387-11.699"/><path fill="#f36653" d="M1354.21 1089.488c-26.76-59.578-78.51-137.027-153.57-130.668-17.35 1.508-25.011 16.782-18.449 32.16 15.149 35.579 44.547 64.239 61.528 97.442-3.188 3.957-5.16 8.988-4.93 14.867.262 7.332 1.211 15.27 2.383 23.492-6.621-3.75-14.871-2.422-20.742 1.95-10.578-12.903-23.192-22.79-38.29-27-14.992-4.22-24.519 11.667-18.671 24.238a705.381 705.381 0 0 0 14.691 30.32c.488.91 1.43 1.25 2.371 1.25 11.98 37.063 7.89 81.73 38.11 108.121 12.03 10.469 29.468 7.399 39.62-1.82 19.02 6.488 44.16-4.11 42.68-28.84-1.28-21.5-3.632-42.852-5.98-64.16 9.66-4.16 17.14-12.918 16.14-24.57-2.09-24.032-8.171-45.23-24.16-64.079-13.84-16.421-33.77-33.41-47.89-52.691 29.73 21.25 53.46 45.61 73.988 84.05 26.77 50.169 18.8 118.9 50.45 163.88 4.523 6.46 13.41 6.87 17.85 0 32.13-49.399-5.82-140.532-27.128-187.942"/><path fill="#f6827d" d="M652.46 1023.262c-9.937 3.398-19.312 7.636-28.429 12.258-6.078-5.032-14.176-7.329-23.293-4.258-17.265 5.77-33.718 13.476-48.992 22.957-.074-12.278-11.746-23.239-23.906-23.27h-.05c-10.013-8.12-24.161-11.308-35.99-3.648-9.78 6.277-17.905 14.48-24.952 23.699-52.004 39.16-69.832 127.102-70.598 186.86-.277 22.378 19.387 32.242 36.781 29.968.047.512.047 1.024.098 1.531 2.71 21.153 26.797 36.09 44.344 18.41 2.093-2.14 3.984-4.359 5.925-6.59.204.212.305.41.512.641 19.899 21.559 55.477-6.332 40.328-31.11-4.699-7.71-5.847-16.57-4.367-26.1 6.645-13.231 12.871-26.739 19.516-40.051 1.734-3.45 3.855-6.82 5.82-10.188 34.918-45.293 95.578-90.09 121.375-99.793 31.621-11.93 18.648-62.598-14.121-51.316"/><path fill="#f6827d" d="M732.023 1028.29c-.77-.61-1.535-1.25-2.402-1.731-1.074-7.309-5.16-14.2-13.183-18.7-48.883-27.27-124.434-13.097-174.497 3.43-26 8.582-96.675 47.3-61.914 82.55 1.274 1.302 3.528.99 4.418-.57 7.075-12.03 21.836-22.039 40.332-29.878-17.422 15.859-31.879 35.218-41.734 58.87-8.941 21.458 19 38.618 36.727 29.43.101 3.04.664 5.95 1.66 8.73-22.657 26.438-40.688 57.138-41.606 88.888-.664 22.832 30.086 29.453 41.426 11.242 31.621-50.762 69.73-100.313 118.078-135.07 36.656-16.52 76.32-28.481 111.184-47.45 27.64-15.07 9.043-52.52-18.489-49.742"/><path fill="#f6827d" d="M481.715 1273.75c-3.703-16.371-7.383-31.059-7.613-48.02-.153-8.5-.614-16.832-.922-25.332-.153-5.468-5.309-13.109-2.758-18.187 1.637-3.32-2.195-6.031-4.93-3.8-7.633 6.148-17.21 5.21-24.746 13.25-8.89 9.5-13.41 20.179-16.555 32.667-5.921 23.75-2.273 56.293 18.239 72.281 18.082 14.07 44.828 1.711 39.285-22.859"/><path fill="#f6827d" d="M443.094 1267.059c-5.211-18.16-18.137-43.57-12.465-62.707.867-2.961-3.063-5.364-5.211-3.043-13.078 14.082-25.95 29.66-27.074 50.171-1.125 20.54 4.086 50.27 27.636 56.73 9.5 2.63 19.004-2.25 22.375-11.288 3.856-10.32-2.503-20.16-5.261-29.863"/><path fill="#f6827d" d="M776.922 1068.648c-65.793-7.738-142.727 28.25-196.414 63.813-21.024 13.937-42.809 32.098-57.621 52.527-8.38 11.582-15.758 23.434-22.989 35.742a1368.991 1368.991 0 0 0-15.097 26.098c-8.942 24.934-26.125 27.692-51.543 8.223.387-5.512-8.07-7.813-10.492-2.832-28.356 57.52 41.273 85.722 81.472 44.953 38.262-38.793 57.598-85.711 103.293-118.461 54.453-39.05 114.809-46.492 174.809-70.063 21.914-8.66 17.672-37.257-5.418-40"/><path fill="#f6827d" d="M890.89 1060.5c-17.163-5.23-33.05-4.39-50.906-3.29-20.254 1.25-40.84-5.312-60.406-9.73-32.055-7.21-66.508-19.671-97.77-4.52-4.523 2.188-4.449 9.7 0 11.9 35.426 17.57 80.301 33.511 118.665 43.14 34.535 8.66 75.73 8.91 95.68-24.621 2.964-4.98.1-11.238-5.262-12.879"/><path fill="#f6827d" d="M929.074 1038.36c-12.36-5.981-18.824-5.29-32.36-2.25-27.023 6.081-54.046 2.84-81.277-1.098-32.078-4.602-72.382-15.934-101.656 3.039-3.57 2.3-4.136 8.07 0 10.27 38.52 20.41 212.637 77.37 221.348.59.46-3.891-2.582-8.84-6.055-10.552"/><path fill="#f6827d" d="M974.922 1011.05c-38.16-7.991-78.95 8-118.692 4.598-41.43-3.468-79.308-14.609-121.171-7.84-24.723 4.012-21.887 41.153 0 47.051 59.183 15.993 231.511 72.77 248.625-28.379 1.07-6.378-1.586-13.921-8.762-15.43"/><path fill="#f6827d" d="M1009.61 974.45c-.72-6.028-7.77-12.97-14.13-8.071-16.164 12.441-26.918 29.68-39.613 45.473-14.457 18.058-35.398 35.859-55.984 46.25-6.438 3.25-1.637 11.957 4.57 10.878 27.867-4.82 49.117-11.902 71.695-29.34 19.305-14.968 36.5-39.769 33.461-65.19"/><path fill="#f6827d" d="M1026.11 931.52c-.11.152-.212.3-.31.43v-.43c-.019-.282 0-.54 0-.848-.05-7.992-5.109-15.524-13.89-16.113-5.11-1.23-12.21.89-15.328 4.722-18.797 23.14-23.293 53.867-35.91 80.278-12.29 25.64-41.992 43.222-45.133 72.261-.562 5.239 3.399 11.418 7.918 13.79 33.895 17.78 68.219-15.782 83.234-43.731 16.098-29.957 23.579-76.848 19.418-110.36"/><path fill="#f6827d" d="M1004.172 989.86c-27.156 24.18-53.922 48.269-86.82 64.39-36.325 17.719-77.395 27.172-115.676 39.691-3.887 1.297-3.399 7.66.996 7.41 76.344-4.023 185.558-21.363 212.476-105.113 2.141-6.59-6.308-10.52-10.976-6.379"/><path fill="#f6827d" d="M1091.469 932.738c-19.207-35.976-72.688.242-91.797 17.5-26.309 23.864-44.57 59.922-40.074 95.813.87 6.937 9.855 8.66 12.312 1.687 8.352-23.61 30.8-43.5 48.5-60.226 9.371-8.871 20.668-16.203 32.82-20.461 12.36-4.34 25.93-1.942 35.43-12.29 5.692-6.261 6.82-14.53 2.809-22.023"/><path fill="#f6827d" d="M1096.73 907.61c-18.261-18.258-56.93.69-74.199 11.878-20.02 12.953-29.933 28.942-28.914 52.133.102 2.957 4.188 5.39 6.414 2.649 12.719-15.598 42.48-19.891 60.66-24.36 11.598-2.808 27.028-1.988 36.04-10.988 8.738-8.762 8.71-22.621 0-31.313"/><path fill="#f6827d" d="M1111.031 881.969c-5.23-35.348-52.89-23.5-71.922-9.707-10.238 7.41-19.59 16.879-25.468 28.097-6 11.313-4.461 20.18-.61 31.59.36 1.102 1.758 1.563 2.598.711 4.781-4.789 12.723-8.039 18.5-11.77 6.742-4.39 12.922-8.878 20.562-11.652 15.809-5.718 33.61 1.39 48.348-7.707 7.25-4.472 9.191-11.62 7.992-19.562"/><path fill="#f6827d" d="M1150.16 897.012c-11.308-19.793-46.05-22.453-65.46-14.332-10.22 4.289-18.36 9.73-23.4 19.98-4.062 8.352-3.78 13.399-1.71 21.3.64 2.481 3.398 3.27 5.539 2.22 4.98-2.45 16.582-3.578 25.652-.871 14.559 4.32 38.469 10.472 51.64 1.23 9.708-6.8 13.95-18.668 7.74-29.527"/><path fill="#f6827d" d="M1166.64 922.04c-7.46-23.7-34.628-25.161-55.562-22.25-19.457 2.679-29.797 15.71-38.687 31.6-3.121 5.598 2.91 10.45 8.148 8.15 11.11-4.911 28.172 1.562 38.922 4.882 15.809 4.918 28.25 7.707 42.117-3.25 5.192-4.082 6.953-13.102 5.063-19.133M1044.29 898.129c-4.59-2.957-6.79-6.809-13.02-7.098-6.848-.3-12.31 4.45-17.168 8.739-5.262 4.601-9.274 10.27-12.364 16.449-3.676 7.281-4.492 13.05-4.265 21.043.078 3.957 4.828 7.437 8.457 4.86 3.832-2.692 8.582-5.032 11.289-8.942 3.043-4.371 6.59-8.41 9.453-12.871 2.2-3.5 4.957-7.047 8.379-9.45 2.039-1.41 5.36-8.507 8.12-8.64 2.2-.098 2.958-2.86 1.118-4.09M934.105 1062.469c-14.585-4.438-22.933-.41-37.57 3.992-20.101 6.02-41.969 6.2-62.758 6.988-31.105 1.18-62.578 2.992-89.472 19.39-2.016 1.22-.942 3.833 1.125 4.083 36.758 4.629 74.148 7.226 111.308 7.129 26.54-.051 70.957.847 83.168-27.352 2.477-5.75.711-12.238-5.8-14.23"/><path fill="#f6827d" d="M1138.441 917.371c-16.043-5.52-35.43-4.371-52.261-3.96-18.211.41-27.989 6.609-42.352 17.19-3.726 2.727-1.68 9.778 3.383 7.989 29.469-10.211 61.32 12.52 91.23 6.8 15.168-2.921 12.52-23.71 0-28.019M1175.988 901.3c-16.039-14.78-31.11-28.12-51.699-36.16-14.66-5.699-38.258-.59-42.09 16.65-.36 1.69.2 3.75 1.89 4.589 9.833 4.86 21.302 5.781 31.49 10.5 15.093 7.082 27.87 19.473 42.433 27.742 14.398 8.25 30.566-11.652 17.976-23.32"/><path fill="#f6827d" d="M1190.34 920.36c-11.34-9.97-25.488-15.758-40.25-18.239-3.578-.59-6.39 3.399-3.63 6.309 9.962 10.57 16.58 23.96 26.099 34.968 8.84 10.114 18.98 25 33.972 23.774 8.38-.66 12.668-7.024 11.45-15.063-1.942-13.39-18.04-23.32-27.641-31.75M1144.21 934.219c-16.089-3.547-29.882.672-44.538 7.441-1.543.66-.672 2.828.758 2.88 15.12.589 29.172-.56 43.78-4.29 2.919-.71 3.04-5.36 0-6.031"/><path fill="#f6827d" d="M1195.5 924.191c-33.922-14.511-95.02-14.082-123.52 13.25-2.859 2.758-3.218 8.38 0 11.059 11.801 9.91 26.31 9.5 41.098 9.102 24.14-.672 43.094-4.762 66.48 4.386 21.762 8.48 37.391-28.629 15.942-37.797M436.836 1300.852c-.024-.793-1.254-.793-1.254 0-.102 4.796-.2 9.546-.305 14.328-.05 1.199 1.891 1.199 1.891 0-.125-4.782-.207-9.532-.332-14.328M430.273 1320.078c-2.25-12.687-2.273-24.617-5.671-37.129-.715-2.71-4.7-2.71-5.418 0-5.82 21.43-7.508 59.43 11.496 74.961 2.476 2.02 6.363.871 6.437-2.648.203-12.274-4.703-23.203-6.844-35.184"/><path fill="#f6827d" d="M435.941 1347.23c-7.203-22.09-9.195-40.66-2.296-63.46.101-.418-.461-.52-.614-.16-4.547 12-6.285 24.421-8.176 36.859-1.02-4.188-1.94-8.41-2.476-12.797-1.48-11.211-2.531-20.23-7.992-30.344-.438-.789-1.742-.816-2.149 0-12.129 22.453-7.61 55.094 4.778 76.75 1.453 2.531 4.671 4.684 7.738 4.422 1.738-.129 3.45-.39 5.16-.64 4.496-.72 7.356-6.508 6.027-10.63"/><path fill="#f6827d" d="M450.656 1293.27c-3.222-.11-6.386 1.43-7.46 4.851-2.505-11.652-8.02-20.82-20.31-23.781-4.722-1.149-6.562 5.691-1.988 7.25 16.985 5.77 11.723 31.5 11.059 45.262-.512 10.578-.816 21.277 1.356 31.597.23 7.48 1.558 14.89 4.828 21.91.613 1.282 1.683 1.79 2.808 1.97 5.207 4.472 15.63 2.042 16.27-7.02 1.71-25.008 7.277-49.957 11.547-74.637 2.043-11.832-12.543-16.684-18.11-7.402"/><path fill="#f6827d" d="M422.969 1343.18c-.617-1.328-2.559-.34-2.301.968 3.676 16.473 4.902 33.301 15.426 47.204 1.789 2.398 6.847 2.09 6.437-1.743-1.992-17.5-12.414-30.91-19.562-46.43M444.96 1271.398c-.741-2.039-3.577-3.296-5.237-1.378-17.727 20.46-13.078 58.82-6.844 83.289.844 3.27 5.82 3.27 6.64 0 3.344-13 4.446-26.559 5.926-39.918 1.582-14.403 4.493-28.04-.484-41.993"/><path fill="#f6827d" d="M435.074 1272.422c-2.504-3.422-6.695-3.422-9.195 0-12.262 16.656-5.516 46.156 1.586 63.598 1.2 2.992 4.824 2.992 6.023 0 7.102-17.442 13.844-46.942 1.586-63.598M758.992 1012.84c-10.93-19.2-44.953-19.48-64.11-23.45-35.12-7.269-69.624-13.46-105.566-13.859-53.761-.543-113.402 23.188-114.5 84.82-.128 7.079 10.067 10.04 13.438 3.68 31.308-59.031 87.656-53.59 146.3-45.75 26.18 3.5 102.626 31.32 123.005 5.547 2.609-3.25 3.629-7.129 1.433-10.988"/><path fill="#28863b" d="M671.945 785.91C606.254 756.098 540 724.355 496.297 665.02c-14.48-19.668-51.469-8.86-42.375 17.87 18.52 54.282 69.601 88.606 117.441 115.583 28.25 15.941 119.43 75.476 152.793 55.965 42.602-25-36.347-61.333-52.21-68.528"/><path fill="#28863b" d="M713.324 835.45c-5.363-2.903-10.781-5.688-16.344-8.114-7.664-4.016-15.328-4.828-22.375-3.57-2.503-.825-5.03-1.7-7.562-2.512.613-2.531-.36-5.543-3.316-6.211-3.426-.79-6.672-1.938-9.938-3.012-12.336-11.183-24.086-25.57-34.559-33.586-20.152-15.402-41.273-30.601-60.101-47.484-23.371-34.09-42.32-72.3-60.2-103.055-2.452-4.218-6.077-7.097-10.116-8.843-.973-3.06-2.016-6.106-3.063-9.141 138.484-10.824 232.375 122.984 292.45 238.945-2.298-1.144-4.852-2.148-7.84-2.734-18.981-3.836-38.087-6.895-57.036-10.684Zm133.688-4.47c-80.356-173.55-215.625-326.085-423.38-284.015-23.347 4.719-33.331 34.45-21.89 53.734 37.676 63.578 40.992 139.938 84.926 201.02 50.879 70.699 129.394 61.808 197.285 101.37 14.914 8.712 29.32 5.641 39.64-2.757 12.36 2.805 24.903 4.8 39 3.117 16.27-1.949 27.407-16.523 28.684-30.601 22.989 29.12 73.153-4.29 55.735-41.868"/><path fill="#28863b" d="M427.613 558.082h-2.863c-1.605 0-1.605 2.5 0 2.5h2.863c1.633 0 1.633-2.5 0-2.5M404.754 565.844c-.637-2.657-.484-5.313-1.024-7.969-.812-4.176-1.351-8.207-1.144-12.473.148-3.058.613-4.879-1.176-7.511-.765-1.164-1.84-1.555-3.168-1.328-5.668.925-5.976 7.332-6.488 11.976-.918 8.36 1.176 15.52 5.441 22.64.739 1.247 2.274 2.294 3.805 2.165 2.043-.13 3.625-1.047 4.238-3.223.387-1.445-.152-2.879-.484-4.277"/><path fill="#28863b" d="M407.793 562.695c-1.43-9.648-2.68-19-7.508-27.504-2.96-5.285-11.086-5.308-14.047 0-9.3 16.5-9.758 52.051 11.211 60.024 5.594 2.148 11.188-2.348 12.926-7.348 2.887-8.34-1.305-16.844-2.582-25.172"/><path fill="#28863b" d="M460.102 683.773c-23.32-41.82-57.977-76.882-61.45-127.3-.257-3.297-4.652-3.145-5.035 0-5.492 46.18 13.512 105.07 41.61 141.832 10.957 14.355 34.171 2.191 24.875-14.532"/><path fill="#28863b" d="M489.043 708.59c-16.68-19.735-34.711-38.953-46-62.211-10.164-20.953-12.031-47.672-29.5-64.375-1.332-1.25-3.707-1.836-5.34-.688-23.27 16.93-14.098 49.97-5.566 72.493 12.36 32.484 27.328 64.418 51.336 89.882 22.222 23.54 55.43-10.992 35.07-35.101M432.926 546.488c-2.145-4.886-4.492-7.746-9.45-9.758-4.187-1.683-8.53-2.683-13.027-2.757-6.922-.082-6.82 10.289 0 10.64 3.016.192 5.98 1.051 8.735 2.309 3.527 1.601 6.898 2.379 10.55 3.695 2.606.895 4.086-2.14 3.192-4.129"/><path fill="#28863b" d="M415.71 555.793c-1.12-3.34-2.14-5.176-4.265-7.988-1.988-2.637-5.004-6.41-6.254-9.426-1.226-2.856-5.828-3.703-6.668 0-2.199 9.707 5.391 17.543 14.125 20.484 1.762.614 3.68-1.304 3.063-3.07"/><path fill="#28863b" d="M401.867 532.71c-8.527-.023-8.453 12.849 0 13.157 4.348.176 8.176 1.117 11.93 3.426 3.344 1.992 7.023 3.828 10.957 4.289 1.176.129 2.453-.969 2.707-2.074 3.066-13.922-15.375-18.738-25.594-18.797"/><path fill="#28863b" d="M541.02 562.371c-10.247-20.101-42.426-16.808-60.739-19.441-12.105-1.73-21.886-7.457-34.379-5.774-11.492 1.563-21.761 4.27-31.625 10.348-4.234 2.613-.554 8.375 3.786 6.492 9.605-4.14 19.183-4.879 29.472-4.785 15.121.105 27.89-4.188 42.707 2.96 13.461 6.493 30.805 19.337 46.18 18.22 4.113-.282 6.488-4.246 4.598-8.02"/><path fill="#28863b" d="M452.594 537.977c-8.942-3.368-17.418-3.954-26.207-.329-3.27 1.329-5.34 6.72-1.149 8.579 2.43 1.05 5.11 2.992 7.688 3.554 3.73.742 7.484 1.274 11.191 2.25 6.637 1.73 13.38 8.805 20.324 6.024 2.559-1.024 4.528-2.942 4.5-5.871-.105-8.84-9.3-11.547-16.347-14.207M628.984 651.535c-41.379-23.504-83.98-54.176-130.75-64.77-5.234-1.202-10.394 3.368-8.859 8.868 12.719 44.414 53.05 64.586 90.926 86.039 35.605 20.18 82.957 59.055 125.027 59.156 6.668 0 10.598-6.172 9.375-12.277-7.715-38.52-54.637-59.344-85.719-77.016"/><path fill="#28863b" d="M695.7 748.004c-29.985-31.16-78.102-50.219-113.817-74.692-39.942-27.375-65.692-58.789-97.18-93.73-3.785-4.191-12.008-2.277-13.101 3.445-7.922 41.25 41.937 83.801 68.703 107.836 37.648 33.742 85.566 77.364 132.918 95.73 22.68 8.813 37.394-23.085 22.476-38.59"/><path fill="#28863b" d="M709.238 807.34c-19.11-34.004-57.113-52.672-88.633-74.121-41.503-28.254-72.359-57.035-102.265-97.008-8.43-11.266-24.598-4.574-22.328 9.398 7.101 43.746 51.957 78.024 84.496 103.7 34.836 27.48 75.96 60.254 119.89 69.546 6.645 1.38 12.34-5.293 8.84-11.515M699.992 873.95c-16.707-2.66-34.965-4.962-52.77-8.84-14.609-12.258-30.394-20.66-50.062-18.848-5.414-3.403-10.676-7.153-15.324-11.672-10.934-10.219-26.766 5.57-16.399 16.39 5.008 5.192 10.399 9.711 16.016 13.7.485.379 1.02.691 1.508 1.039 1.098.77 2.172 1.543 3.27 2.222 10.726 7.309 22.269 12.778 34.886 15.79 23.242 7.28 48.278 10.37 72.387 13.769 15.324 2.191 22.117-21.07 6.488-23.55"/><path fill="#28863b" d="M787.828 835.352c-7.23-19.075-21.66-37.493-32.055-54.723-12.312-20.387-29.601-42.688-50.98-53.852a23.161 23.161 0 0 0-3.934-1.554c-1.761-1.332-3.422-2.758-5.234-3.985-7.129-4.8-15.813-.945-20.234 5.285-14.887 20.993-6.278 47.172 4.726 67.918 10.168 19.149 30.754 54.118 53.844 56.086 2.453.203 4.879-.746 7.047-2.117a1285.287 1285.287 0 0 0 19.617 22.09c10.629 11.703 26.309-.078 24.879-12.996 5.492-6.102 7.562-14.996 2.324-22.152M746.453 884.8c-3.883.688-8.176.54-12.058-.179-4.211-.793-6.614-4.492-10.954-4.672-1.738-.078-3.757 1.332-4.09 3.121-1.07 6.282 4.805 11.078 9.758 14.04 6.54 3.91 13.996 2.992 20.996.98 8.684-2.48 4.954-14.719-3.652-13.29"/><path fill="#28863b" d="M817.969 880.41c-15.836-3.86-31.953-.64-47.684 2.07-17.422 2.961-30.55 3.09-47.484-.359-6.922-1.351-13.844 4.367-11.75 11.8 10.344 36.5 74.3 7.079 99.23 14.278 17.93 5.16 25.696-23.37 7.688-27.789"/><path fill="#28863b" d="M831.785 853.8c-2.55-2.76-6.793-1.16-7.863 2.04-4.45 13.129-.461 24.851 2.73 37.262-16.984-4.852-37.925-4.313-50.652 6.027-2.906 2.383-1.48 8.36 2.352 8.91 8.175 1.152 15.66-1.71 23.808-2.55 11.133-1.169 21.48 1.05 30.926 7.03 5.34 3.36 11.367-1.128 11.777-6.769 1.301-18.781.051-37.75-13.078-51.95"/><path fill="#28863b" d="M792.707 874.512c1.203-2.66 1.379-4.524.512-7.282-1.532-4.77-8.172-4.8-9.68 0-1.789 5.641 2.629 12.13 5.797 16.73 1.351 1.99 4.726.821 4.012-1.69-.743-2.52-1.762-5.16-.641-7.758"/><path fill="#28863b" d="M808.695 864.219c-6.105-3.79-15.222-2.79-20.125 2.601-2.351 2.63-2.886 3.73-4.136 7-.028.102-.075.23-.102.309-2.098 5.543.457 12.101 4.238 16.16.157.16.102.102.203.211 1.532 2.422 3.477 4.371 5.926 5.852 3.192 1.859 6.996 2.777 10.676 2.707 6.848-.059 12.363-4.547 14.41-10.938 3.215-10.21-2.66-18.723-11.09-23.902"/><path fill="#28863b" d="M856.305 907.738c-4.239-11.136-3.192-47.968-22.14-46.437-7.024.558-8.099 10.828-7 16.07.995 4.828 2.374 11.059 2.937 17.14-4.243-1.41-8.43-2.812-13.106-2.581-7.738.41-14.406 9.218-9.473 16.53 7.61 11.18 22.168 15.849 35.247 17.08 8.632.839 16.652-9.7 13.535-17.802"/><path fill="#313317" d="M878.379 874.988c.148-5.008.148-10.011.074-15.039 2.656 10.45 4.008 20.614 4.164 31-1.43-5.308-2.808-10.62-4.238-15.96Zm29.828 44.11c-4.566-22.703-11.95-44.414-15.781-67.325-3.067-18.418-5.797-41.125-21.656-52.87-2.2-1.587-5.98 0-6.442 2.609-.36 1.957-.512 3.93-.562 5.867-4.239-1.969-10.828 1.129-11.34 6.773-.153 1.707-.153 3.442-.258 5.18-2.016 2.223-3.473 5.137-3.602 9.098-.023.894.13 2.043.332 3.32 2.711 23.266 3.223 46.59 5.422 69.852-.261 2.308.352 4.449 1.633 6.316-3.195 7.629-1.715 17.133 6.742 21.297 10.473 5.156 19.766 8.61 31.598 8.12 9.832-.386 15.781-8.862 13.914-18.237"/><path fill="#313317" d="M892.832 866.922c-2.809-13.203-3.473-27.863-13.95-37.39-3.929-3.602-9.089-1.692-10.98 2.91-5.39 13.109.563 27.206 3.63 40.359 3.421 14.808 9.652 27.219 17.468 40.12 1.586 2.56 4.953 1.259 5.262-1.421 1.61-15.41 1.789-29.379-1.43-44.578"/><path fill="#313317" d="M881.258 747.652c-2.887-9.629-14.79-12.75-22.067-5.824-14.457 13.762-32.261 43.856-18.468 63.875.867 1.254 1.89 2.098 2.914 2.992 1.277 4.903 2.09 10.086 3.418 14.742 3.02 10.286 14.308 11.614 21.05 6.43a2109.936 2109.936 0 0 1 8.887 25.668 2257.227 2257.227 0 0 1 5.645 31.266c3.398 19.176 35.015 14.687 33.843-4.594-2.761-45.691-22.222-91-35.222-134.555"/><path fill="#599f32" d="M537.8 730.371c-17.62-17.598-42.038-27.789-62.472-41.805-27.379-18.78-56.035-40.968-68.937-72.714-1.2-2.97-6.614-2.97-6.157.812 3.786 31.723 22.274 54.5 45.004 75.75 22.246 20.79 55.504 44.219 86.18 48.95 6.129.933 11.441-5.927 6.383-10.993"/><path fill="#599f32" d="M547.738 801.816c-12.437-31.195-40.508-54.07-62.652-78.464-31.11-34.305-45.516-71.086-66.79-110.934-3.605-6.742-13.335-4.645-15.456 2.02-22.781 71.468 72.004 176.566 136.035 196.238 4.855 1.484 10.934-3.707 8.863-8.86"/><path fill="#599f32" d="M516.707 705.629c-40.023-35.047-76.164-70.117-108.453-112.492-.664-.89-2.399-.73-2.324.64 2.886 53.797 64.187 94.278 106.226 117.778 3.63 2.02 7.867-3.047 4.551-5.926M571.488 650.875c-41.605-36.344-98.511-53.844-146.379-80.773-5.308-3.008-10.52 3.945-6.437 8.34 37.805 40.703 92.922 70.87 147.324 81.859 5.11 1.043 10.063-5.45 5.492-9.426M614.168 623.488c-25.793-21.808-59.637-29.86-91.156-40.535-38.285-12.976-75.832-28.453-114.172-41.02-5.692-1.863-11.11 6.536-6.078 10.481 25.875 20.297 57.34 32.488 88.093 43.492 37.543 13.434 77.52 32.723 116.875 38.602 5.774.832 12.036-6.266 6.438-11.02"/><path fill="#599f32" d="M657.973 616.719c-32.715-62.836-156.848-101.473-219.121-65.688-3.27 1.867-3.676 7.403 0 9.164 31.52 15.223 69.933 13.285 103.753 21.89 38.207 9.782 70.336 32.294 106.887 45.677 6.613 2.398 11.266-5.672 8.48-11.043M588.172 633.059c-32.129-19.871-68.043-37.45-104.313-48.121-1.379-.434-2.144 1.539-.968 2.269 32.004 20.125 66.53 40.535 102.882 51.594 3.473 1.054 5.364-3.871 2.399-5.742"/><path fill="#599f32" d="M628.879 623.852c-13.379-8.758-27.734-15.813-41.984-22.938-.665-.305-1.258.66-.59 1 14.277 7.125 28.629 14.168 41.992 22.906.61.407 1.2-.613.582-.968"/><path fill="#599f32" d="M610.34 608.21c-13.766-11.437-30.547-17.87-47.406-23.394-11.442-3.761-31.34-11.902-42.805-5.214-1.328.82-1.688 2.12-1.434 3.55 2.2 13.77 21.563 19.051 32.594 23.528 17.035 6.894 36.117 11.078 54.406 12.773 5.563.485 8.934-7.668 4.645-11.242M752.074 709.098c-11.726-27.594-38.004-46.895-61.379-64.645-18.976-14.41-51.515-38.367-75.91-24.219-2.86 1.664-2.808 5.063-.969 7.407 6.383 8.101 14.868 12.257 24.008 16.937 14.969 7.578 28.176 17.285 40.996 28.09 20.64 17.344 39.207 39.648 66.535 45.164 5.47 1.121 8.762-3.906 6.72-8.734"/><path fill="#599f32" d="M682.371 635.234c-10.984-7.238-23.246-12.14-34.223-19.367-1-.687-1.945.969-.949 1.637 11.11 7.02 23.422 11.754 34.508 18.824.715.402 1.328-.668.664-1.094"/><path fill="#599f32" d="M738.715 672.04c-11.567-15.97-29.117-28.942-44.797-40.743-17.652-13.277-35.453-23.375-56.86-29.098-3.984-1.07-5.34 4.598-1.683 6.028 20.996 8.28 39.77 21.253 57.215 35.382 13.637 11.028 25.539 25.137 40.992 33.563 3.063 1.68 7.484-1.899 5.133-5.133"/><path fill="#040606" d="M822.844 799.371v2.48c0 .962-.227 1.735-.559 2.426 5.543-.64 11.086-1.28 16.602-1.87.36-1.583.765-3.114 1.176-4.7-5.723.508-11.47 1.078-17.22 1.664"/><path fill="#040606" d="M1347.223 974.676c-19.516-23.043-43.727-43.008-67.282-61.754-24.261-19.363-50.054-36.832-76.87-52.492-53.75-31.34-112.59-54.125-173.665-66.207-27.203-5.36-55.297-8.887-83.035-8.559-20.844.285-41.48 3.14-62.117 5.93 1.074 2.324 1.89 4.746 2.656 7.172 24.211-3.09 48.375-6.2 72.899-5.618 32.613.77 65.488 6.825 97.03 14.762 62.493 15.711 121.458 43.664 175.134 79.063 27.617 18.257 53.644 38.894 78.164 61.109 20.433 18.523 38.863 37.785 53.203 61.48 27.914 46.13 40.535 100.942 46.867 153.973 12.773 107.149-1.844 217.438-36.68 319.27-18.441 53.89-44.562 105.613-80.965 149.672-38.894 47.082-88.144 77.57-143.386 102.039-61.348 27.152-126.102 46.23-192.738 54.12-64.5 7.673-131.004 4.989-195.09-5.128-104.825-16.57-199.942-71.723-272.891-147.832-144.898-151.16-208.523-402.16-104.668-592.852 44.852-82.344 115.602-137.972 197.207-175.316-2.582.152-4.316-1.688-4.879-4.063-78.004 36.477-146.148 89.856-191.715 166.063-52.949 88.535-65.718 196.98-52.054 297.883 13.867 102.386 57.773 200.035 122.496 280.285 64.164 79.59 151.054 140.71 249.289 169.96 56.648 16.802 117.336 21.813 176.215 22.122 62.55.328 124.668-8.813 184.632-26.59 59.516-17.711 121.684-42.09 172.207-78.8 43.266-31.442 77.348-73.692 103.551-120.024 51.895-91.848 76.516-202.27 80.504-307.063 3.723-98.273-7.918-214.574-74.02-292.605"/><path fill="#040606" d="M1102.219 924.11c-31.207-1.56-60.38-13.301-91.39-15.61-35.036-2.602-70.59 14.898-102.93 25.96-37.06 12.642-73.2 17.868-112.024 11-33.922-6.03-67.531-21.401-93.996-43.698-1.223 1.18-3.059 1.61-4.645 1.199.024.05.024.098.075.129 51.418 48.48 125.257 63.68 192.789 44.648 37.164-10.449 74.172-30.93 113.332-32.008 33.87-.968 65.46 18.73 99.46 13.11 2.782-.461 1.91-4.57-.671-4.73"/><path fill="#040606" d="M851.355 870.543c-3.015-17.625-6.898-36.086-8.937-54.586-1.793.39-3.781-.148-4.856-1.477.102 1.227.254 2.473.356 3.649 4.93 43.734 16.707 85.93 15.738 130.137 0 .23.356.332.457.101 5.668-8.554 4.344-20.812 3.754-30.601-.945-15.828-3.855-31.594-6.512-47.223"/><path fill="#040606" d="M908.105 835.61c-7.71-33.669-20.328-66.005-29.882-99.157-.332-1.125-1.38-2.023-2.602-1.969-40.18 1.328-41.351 43.754-38.52 75.477 1.278-5.395 2.376-10.621 3.989-15.61-.055-8.124.433-16.136 1.785-24.081 2.043-12.06 7.66-23.727 19.64-28.375 2.965-1.149 6.157-1.633 9.274-1.918 3.367-.329 3.727 7.554 4.594 10.644 3.066 10.73 6.492 21.3 9.937 31.906 13.41 41.508 33.535 94.305 15.66 137.34-.77 1.813 2.094 2.887 3.016 1.297 15.426-25.687 9.55-57.848 3.11-85.555M841.441 836.512c0 .066.079.066.079 0 0-2.461-.207-5.934 3.09-6.192.046 0 .046-.05 0-.05-3.325.23-3.169 3.68-3.169 6.242"/><path fill="#040606" d="M847.676 914.86c-48.121-1.258-98.336-3.981-147.375-12.102-1.688.601-3.602.355-4.88-.817-40.179-7-79.484-17.761-116.01-34.586-.102-.023-.18-.109-.282-.109-7.61-3.516-15.145-7.195-22.527-11.281-46.743-25.8-79.383-71.649-104.95-117.363-29.656-53.055-50.09-111.547-62.449-170.926-2.605-12.446-4.652-25.008-6.336-37.63 61.274 9.837 124.59 4.427 184.516 22.661 53.176 16.211 101.039 44.129 142.625 80.895 34.633 30.62 69.035 65.914 88.754 108.187 8.918 19.086 16.476 38.727 24.953 58.004 5.008 11.32 9.887 26.488 19.824 34.633 1.453 1.183 3.473-.758 2.09-2.035-10.672-9.91-15.73-28.762-20.863-41.786-7.84-19.902-15.555-39.878-24.75-59.214-8.633-18.078-19.977-32.489-33-47.657-17.98-20.968-37.243-40.898-58.082-59.074-40.051-35.047-85.641-59.234-135.704-76.676-61.964-21.586-129.523-13.879-193.375-25.136-1.89-.332-4.5.922-4.214 3.242 6.945 56.265 22.347 111.668 44.62 163.8 22.4 52.337 51.645 103.012 92.743 142.938 32.898 31.945 77.516 49.16 120.836 61.676 49.297 14.223 100.734 21.785 151.87 25.258 20.74 1.43 41.278 1.668 61.966-.18 3.011-.273 3.117-4.64 0-4.723"/><path fill="#040606" d="M830.355 931.469c-19.464-18.61-39.847-35.903-58.035-55.887-15.91-17.492-30.675-36.031-45.36-54.578-.663-.535-1.226-1.195-1.608-2.016-2.04-2.554-4.082-5.136-6.157-7.738-33.203-41.785-67.578-82.934-112.28-112.977-39.997-26.918-87.25-41.546-129.34-64.843-44.75-24.75-73.919-60.973-93.434-107.918-1.024-2.477-5.059-1.528-4.133 1.148 14.863 43.547 41.785 79.2 80.453 104.215 41.02 26.512 88.172 42.469 130.926 65.848 49.14 26.847 86.328 73.914 120.61 116.906l1.273 1.633c1.02.531 1.71 1.457 2.043 2.543 16.195 20.386 32.312 40.793 49.605 60.265 18.543 20.867 38.719 42.387 63.215 56.239 1.812.992 3.75-1.41 2.222-2.84"/><path fill="#f89a39" d="M1286.43 1178.02c11.492-21.07-18.29-47.532-38.649-33.61-39.101 26.738-180.633 248.54-64.691 245.05 11.34-.339 24.62-8.081 26.66-20.26 4.09-24.598 5.422-49.45 9.102-73.56 4.636-9.761 10.058-19.21 15.058-28.402 14.77-27.066 45.11-58.488 52.52-89.218"/><path fill="#e8dd2f" d="M1389.922 1184.64c11.09-16.73-14.613-36.68-27.793-21.48-27.07 31.11-48.168 64.078-64.16 99.86 5.68-21.551 12.652-42.551 21.46-62.442 9.06-20.34-16.808-35.84-29.878-17.45-4.14 5.821-8.23 11.833-12.223 17.884a32.395 32.395 0 0 0-1.578-2.102c0-.02.031-.07.031-.101 2.73-10.668-1.64-21.348-9.48-27.63 9.86-20.238-11.7-47.917-34.23-39.57-64.051 23.7-106.45 80.711-125.102 144.98-5.469 18.75-10.57 39.02-13.867 59.74-8.551 13.542-18.493 24.901-31.23 30.8-16.27 7.543-4.7 34.23 12.077 28.71 5.742-1.839 10.95-4.269 15.832-7.05 1 20.383 5.09 40.2 13.918 58.313 7.16 14.636 26.39 29.886 44.832 31.726 1.399 2.703 2.938 5.383 4.7 7.91 5.69 8.301 14.097 12.524 22.53 13.16 4.11 23.75 12 46.23 25.66 65.313 14.099 19.719 43.888 16.98 51.7-4.11 5.55 17.208 13.668 33.399 25.59 47.727 15.328 18.422 41.027 1.711 42.71-17.668 6.388-75.172-15.25-150.422-4.98-225.25 9.07-66.21 36.829-126.031 73.48-181.27"/><path fill="#e8dd2f" d="M1134.398 1209.59c-79.07 17.832-109.109 171.558-86.578 236.52 3.27 9.468 11.34 14.609 19.72 15.68.53 3.75 1.019 7.51 1.73 11.339 4.68 26.05 44.96 19.133 45.011-6.05 0-2.2-.05-4.528-.101-6.817 6.261 4.078 15.98-3.89 11.03-10.73-5.57-7.743-9.632-15.583-12.472-23.532-.808-15.578-1.629-32.078-1.398-48.52 2.12-13.64 5.34-27.03 9.32-40.308 10.012-24.774 23.86-48.961 34.84-71.473 3.07-6.328 2.352-13.02-.66-18.18 1.71-4.09 3.39-8.218 5.11-12.39 6.331-15.649-11.778-28.61-25.552-25.54"/><path fill="#e8dd2f" d="M1130.57 1209.57c-2.93-3.27-6.082-4.37-10.058-5.879-7.41-2.812-16.942.489-22.223 5.88-43.32 43.8-67.937 116.41-47.64 176.16 2.84 8.347 13.671 8.019 16.66 0 9.09-24.583 13.91-50.27 24.64-74.54 11.551-26.12 30.7-48.043 42.2-73.96 4.39-9.942 3.93-19.36-3.579-27.66"/><path fill="#e8dd2f" d="M1172.129 1172.89c-49.777-20-107.43 60.45-126.918 97.641-22.68 43.348-28.961 124.828 13.95 158.57 2.089 1.63 5.058 1.149 5.917-1.59 6.363-19.89 4.961-41.991 7.774-62.683 3.007-22.367 12.078-45.277 22.117-65.25 10.832-21.637 25.441-39.058 43.222-55.25 18.739-17.058 41.008-20.867 47.707-47.226 2.864-11.313-3.628-20.18-13.77-24.211"/><path fill="#e8dd2f" d="M1233.61 1091.559c-40.2 10.242-83.188 42.66-115.4 67.691-21.66 16.91-77.03 64.512-52.151 97.21 3.32 4.368 9.39 7.43 14.652 3.83 10.07-6.821 16.43-18.028 24.777-26.79 14.434-15.102 34.282-26.41 52.051-36.96 32.34-19.06 76.43-31.599 103.402-58.009 20.528-20.02-.46-53.793-27.332-46.972"/><path fill="#e8dd2f" d="M1265.559 1066.46c-49.118 24.52-97.489 51.18-140.739 85.2-28.91 22.711-79.61 68.3-65.89 111.11.53 1.68 2.582 2.761 4.21 1.71 35.098-22.582 64.419-57.34 99.57-81.378 40.61-27.762 85.56-49.32 130.052-70.114 31.258-14.61 3.988-62.058-27.203-46.527"/><path fill="#e8dd2f" d="M1256.621 1054.371c-30.621 7.027-55.812 35.379-77.473 56.188-16.91 16.25-41.43 42.382-38.097 67.793.148 1.046.91 1.738 1.988 1.507 22.633-4.828 43.57-22.48 62.422-35.199 22.758-15.32 50.52-23.55 72.64-39.332 25.36-18.137 10.52-58.36-21.48-50.957"/><path fill="#e8dd2f" d="M1401.621 1035.14c-63.14-6.949-130.95 8.07-187.121 36.829-23.55 12.062-45.559 31.98-56.031 56.48-.77 1.762-8.2 23.262.351 24.051 13.211 1.23 24.57-7.578 35.61-14.172 21.761-13.078 45.261-23.219 69.468-30.68 45.114-13.918 91.082-15.039 137.723-18.078 35.61-2.3 34.48-50.648 0-54.43"/><path fill="#e8dd2f" d="M1381.852 1105.941c2.91-8.27-8.301-17.34-16.602-10.68-6.23-9.59-20.43-15.12-31.672-9.222-34.887 18.371-120.867 33.672-118.52 86.922.083 2.25 2.59 3.988 4.653 2.66 7.41-4.621 15.098-9.121 22.988-13.512-18.8 16.98-37.14 35.73-48.43 57.852-10.109 19.898 12.141 49.219 33.56 33.539 1.71-1.23 3.273-2.559 4.96-3.86.031-.03.05-.03.102-.081 1.609-1.25 3.218-2.5 4.808-3.73-2.738 8.71-4.597 17.683-5.469 26.98-2.101 22.171 28.68 26.71 39.13 10.601 17.57-27.101 36.98-53.23 58.288-77.52 22.782-26 50.473-46.44 74.012-71.34 14.102-14.921-3.68-38.57-21.808-28.609"/><path fill="#e8dd2f" d="M1330.95 1191.71c-33.391 23.071-55.84 53.052-57.141 94.58-.309 10.698 14.613 11.73 17.851 2.401 11.219-32.21 35.692-58.132 48.692-89.722 2.136-5.188-5.032-10.297-9.403-7.258M1481.512 1067.172c-28.653-5.082-57.774 9.348-83.57 20.43-23.372 10.039-53.993 32.52-52.25 61.097.097 1.813 2.038 2.5 3.367 1.403 22.171-18.051 46.48-29.114 72.972-39.563 22.348-8.809 48.68-13.617 63.188-34.27 2.172-3.097.082-8.41-3.707-9.097"/><path fill="#e8dd2f" d="M1497.148 1047.781c-18.386-9.27-38.16 3.63-55.738 10.989-22.629 9.449-42.879 21.878-62.93 35.98-2.761 1.95-1.18 6.719 2.372 5.68 22.25-6.649 44.976-10.989 67.308-17.27 17.75-4.98 43.238-6.719 51.692-25.11 1.636-3.519 1.199-8.3-2.704-10.269"/><path fill="#e8dd2f" d="M1449.441 1058c-16.863-4.29-33.75 7.79-48.53 14.922-20.06 9.7-38.571 18.226-54.97 33.578-1.53 1.441-.363 4.219 1.739 4.14 22.468-.53 42.422-5.538 63.601-13.152 16.438-5.949 37.739-12.289 43.239-30.468 1.152-3.782-1.31-8.051-5.079-9.02"/><path fill="#e8dd2f" d="M1469.031 1042.828c-16.383-9.957-57.781-2.25-62.281 19.902-.45 2.301.64 4.899 3.148 5.489 17.672 4.11 42.274 13.261 59.133 2.86 10.57-6.458 10.64-21.79 0-28.25M1611.781 1053.559c-18.55-8.098-37.703-7.258-57.52-4.829-17.062 2.07-47.972 1.66-58.87 17.54-3.403 4.992-1.672 11.66 2.039 15.789 11.41 12.8 41.78 8.382 56.832 7.48 20.308-1.219 45.41-3.39 59.61-19.988 3.808-4.45 4.39-13.192-2.09-15.992"/><path fill="#e8dd2f" d="M1698.566 1116.469c-28-21.61-61.855-31.367-95.472-40.778-25.106-6.957-54.399-20.636-80.684-20.457-12.902.11-22.988 15.258-15.383 26.743 33.743 50.964 114.766 51.187 162.735 83.785 31.156 21.168 57.058-27.512 28.804-49.293"/><path fill="#e8dd2f" d="M1778.824 1074.3c-49.992-20.718-133.863-23.605-184.46-3.987-5.466 2.062-5.466 8.972 0 11.085 26.054 10.106 56.066 10.207 83.671 13.13 32.414 3.39 63.602 12.605 95.906 15.855 22.48 2.304 22.207-28.852 4.883-36.082M1758.477 979c-35.75-18.668-87.04 12.957-122.133 24.984-41.102 14.082-89.832 26.543-119.77 60.02-3.11 3.434-.996 8.926 3.762 9.047 47.344 1.539 96.52-17.922 142.012-29.524 34.699-8.863 87.343-13.324 101.754-50.777 1.84-4.855-1.184-11.422-5.625-13.75"/><path fill="#e8dd2f" d="M2091.09 1228.77c-15.836-46-32.235-87.91-59.512-128.633-48.07-71.77-123.262-119.578-209.387-129.668-65.101-7.594-163.695.508-190.543 71.695-1.652 4.367 3.704 7.203 7.149 5.496 59.64-29.355 130.621-24.195 193.512-9.437 69.625 16.355 119.996 65.96 155.609 125.695 35.285 59.11 68.86 127.402 68.34 197.293-.211 36.828-13.848 73.316-26.567 107.398-12.87 34.399-38.511 66.871-44.804 103.239-3.508 20.351 18.855 35.5 35.16 20.433 29.512-27.3 43.973-73.691 59.195-110.011 17.164-41.04 34.797-87.02 37.488-131.97 2.614-42.76-11.949-81.683-25.64-121.53"/><path fill="#e8dd2f" d="M2082.512 1250.023c-3.938-16.52-26.825-11.523-28.059 3.758-2.344 29.04-.605 58.262-3.05 87.301-2.665 32.129-12.68 64.59-17.329 96.598-4.8 32.77-11.082 65.21-19.96 97.113-6.5 23.238-25.4 48.27-15.9 72.738 1.74 4.418 5.266 8.121 10.477 7.969 58.645-1.938 65.34-117.777 70.344-159.18 8.074-66.168 19.05-140.527 3.477-206.297"/><path fill="#e8dd2f" d="M2096.574 1376.445c-.82-.941-2.304-.761-3.125 0-22.18 20.442-26.965 63.043-36.734 91.043-13.84 39.657-48.926 83.34-46.063 126.348.61 9.25 9.184 13.64 17.301 9.93 39.703-17.98 54.922-72.168 67.996-110.688 10.785-31.703 24.469-88.793.625-116.633"/><path fill="#e8dd2f" d="M2111.27 1382.809c-2.399-4.54-8.938-5.047-12.403-1.579-14.515 14.41-17.277 44.801-25.043 63.63-12.777 30.98-31.566 58.308-34.222 92.331-.72 9.22 10.472 11.309 16.234 6.72 25.703-20.34 37.352-49.692 48.644-79.7 8.536-22.781 19.102-58.129 6.79-81.402M1073.82 1474.941c-9.351-26.23-24.879-64.23-13-91.64 5.59-12.88-8.05-23.602-19.11-14.742-19.89 15.863-14.382 48.101-10.722 69.863 4.012 23.7 12.184 54.398 32.153 69.629 19.238 14.68 12.57-27.903 10.68-33.11"/><path fill="#e8dd2f" d="M1121.531 1585.82c-4.133-33.46-27.633-60.28-43.16-89.32-18.96-35.398-22.61-75.879-32.59-113.922-.742-2.879-5.37-3.027-5.98 0-6.672 32.242 2.187 68.742 9.039 100.363 8.07 37.16 8.43 90.239 40.512 116.188 11.007 8.883 34.43 4.98 32.18-13.309"/><path fill="#e8dd2f" d="M2106.984 1415.969c-12.168-20-41.23-15.297-48.168 6.312-9.566 29.63-4.918 62.469-11.05 93.27-5.97 29.91-16.954 59.008-29.778 86.558-22.68 48.711-54.715 92.16-91.781 130.801-75.926 79.13-180.848 132.098-291.773 129.172-59-1.59-108.012-26.492-159.68-51.902-62.715-30.782-130.703-47.512-187.734-89.301-48.461-35.547-92.59-77.637-137.141-117.816-23.34-21.024-44.238-41.383-61.5-67.942-16.04-24.672-19.77-54.922-36.168-78.512-2.043-2.918-6-3.039-8.02 0-29.039 43.72 19.77 113.454 42.149 150.102 37.289 61.047 94.86 113.457 147.96 160.578 58.509 51.902 135.915 70.93 205.583 102.55 65.383 29.68 121.164 56.5 194.55 59.571 127.891 5.309 250.383-61.789 338.602-149.68 44.387-44.261 80.512-97.492 106.922-154.171 25.953-55.598 61.863-151.97 27.027-209.59"/><path fill="#e8dd2f" d="M1263.078 1680.89c-17.469-43.6-56.34-81.66-86.738-116.171-19.36-21.989-39.18-43.469-58.84-65.207-14.262-15.813-28.02-38.742-46.95-49.192-3.472-1.89-7.25-.66-9.402 2.48-22.937 33.43 32.493 99.098 50.422 124.571 22.68 32.23 46.38 63.64 70.09 95.14 12.031 15.91 17.39 32.329 34.07 44.798 21.91 16.421 57.57-11.008 47.348-36.418"/><path fill="#e8dd2f" d="M1233.68 1578.238c-33.48-40.668-68.399-83.988-91.102-131.617-6.52-13.691-27.18-9.152-30.86 4.027-13 46.16 28.86 95.961 50.884 133.48 15.476 26.411 35.07 50.352 53.18 74.974 18.878 25.617 32.437 56.597 55.187 78.867 16.992 16.652 49.531 5.312 48.36-20-2.458-54.38-52.95-99.969-85.65-139.73"/><path fill="#e8dd2f" d="M1119.281 1494.61c-.562-.938-1.02-1.84-1.531-2.81-.129-1.741-.82-3.402-2.148-4.98-.301-.379-2.5-2.89-2.34-2.449-.364-1.031-.672-2.101-1.262-3.07-.07-.64-.172-1.27-.398-1.89-.59-1.911-2.122-2.942-4.07-3.09-5.032-.36-10.063 4.09-10.063 9.327 0 5.723 4.062 10.622 8.48 13.711 1.48 1.051 3.781 1.332 5.77.922.922.149 1.87.328 2.812.48 3.48.54 6.797-2.702 4.75-6.152M1354.828 1728.602c-22.527-44.063-38.258-91.372-54.45-138.063-15.23-43.848-53.75-74.879-67.589-119.168-1.07-3.402-7.098-4.172-7.66 0-3.27 23.238 2.09 44.059 8.992 64.75-4.781 1.348-8.742 4.64-9.531 10.39-4.828 35.38 14.89 69.598 28.23 101.938 15.32 37.242 33.809 73.352 55.32 107.43 18.641 29.652 62.532 3.73 46.688-27.277M1896.527 1399.406c-14.875-67.527-56.039-137.25-93.859-194.414-37.82-57.25-90.223-99.398-155.414-121.23-28.469-9.547-45 22.898-34.957 45.48 14.605 32.836 49.164 55.64 76.98 76.512 44.848 33.55 58.993 77.824 90.059 121.684 5.207 7.359 12.715 11.21 20.422 12.261 6.394 13.899 12.375 27.79 18.043 41.48 11.695 28.27 20.527 59.56 14.664 90.208-4.914 25.902-30.817 49.402-48.613 66.922-40.075 39.492-92.735 73.53-146.684 89.812-116.68 35.188-226.785-49.223-275.55-150.113-56.087-116.059 21.948-242.703 46.487-356.496 2.91-13.453-17.101-15.52-18.64-4.633-30.7 68.906-69.938 133.453-91.852 206.121-20.379 67.68-12.742 132.758 16.61 196.277 62.293 134.891 209.164 213.172 353.035 170.422 64.93-19.289 125.965-64.93 173.781-111.62 51.852-50.65 71.113-107.759 55.488-178.673"/><path fill="#e8dd2f" d="M1808.04 1314.95c-.716-1.282-2.759-1.302-3.466 0-15.328 29.679-1.969 77.546-1.937 109.698 0 29.891-8.614 59.918-20.547 87.02-7.887 17.96-12.434 33.691-6.738 52.39 1.585 5.262 6.691 7.989 11.957 6.79 42.34-9.649 57.976-69.73 62.82-107.27 7.613-59.238-15.524-98.539-42.09-148.629"/><path fill="#e8dd2f" d="M1818.96 1337.684c-.355-.23-1.78-1.172-2.702-1.692-1.996-5.18-7.867-7.734-13.332-4.922-6.203 3.223-9.043 10.883-5.621 17.164 2.457 4.618 8.18 8.457 13.343 9.239 12.196 1.87 18.54-12.352 8.313-19.79"/><path fill="#e8dd2f" d="M1851.875 1369.906c-2.754-25.66-17.922-43.242-30.398-65.527-15.465-27.691-31.457-53.906-52.973-77.324-35.086-38.313-88.922-57.235-129.274-89.34-8.949-7.152-22.414-.797-19.582 11.394 10.68 46.047 64.368 70.133 98.032 97.18 23.722 19.059 38.824 47.274 52.925 73.688 13.286 24.878 22.579 55.628 49.29 68.3 12.875 6.13 33.824-.84 31.98-18.37M1919.04 1088.21c-13.227-39.839-76.661-63.925-115.794-66.038-32.996-1.77-64.223 5.535-96.957 7.27-26.719 1.449-51.902 10.656-69.91 30.245-1.95 2.126-1.098 5.442 1.652 6.278 46.082 14.101 89.914 12.262 137.426 12.285 29.832.023 51.488 11.45 74.828 28.23 16.973 12.176 31.215 19.895 51.598 11.93 11.953-4.648 21.71-16.535 17.156-30.2"/><path fill="#e8dd2f" d="M1720.383 1041.168c-43.238-5.707-104.485-17.14-124.153 34.02-.53 1.406.844 3.222 2.325 3.082 39.746-3.774 75.605 13.789 114.273 19.05 41.164 5.621 48.73-50.77 7.555-56.152"/><path fill="#e8dd2f" d="M1818.664 1123.258c-37.8-18.012-130.629-63.602-167.629-27.328-3.031 3.007-3.805 8.125-1.504 11.797 22.02 35.273 86.637 54.718 123.207 70.699 30.348 13.23 51.438 34.355 69.688 61.504 17.008 25.222 26.195 47.84 55.62 59.39 14.052 5.512 35.141-5.949 37.349-21.148 8.933-63.293-64.165-129.852-116.73-154.914"/><path fill="#e8dd2f" d="M1898.207 1122.34c-32.227-27.082-90.777-62.43-134.508-55.32-15.027 2.398-16.496 21.75-8.246 31.257 35.223 40.707 88.402 57.243 119.61 103.52 13.183 19.46 56.46 130.648 91.804 70.289 28.09-47.902-35.199-121.582-68.66-149.746"/><path fill="#e8dd2f" d="M2004.242 1264.305c-7.101-25.243-12.004-51.082-19.363-76.285-10.73-37.047-39.027-67.895-60.879-98.903-7.61-10.777-29.277-12.289-31.84 4.156-5.715 36.665 20.543 65.258 31.059 98.446 13.129 41.574 4.144 125.894 55.336 139.996 9.96 2.73 19.156-1.902 24.722-10.07 13.637-19.891 7.141-35.5.965-57.34"/><path fill="#e8dd2f" d="M2053.191 1282.691c-9.402-68.433-32.293-154.683-88.886-200.015-17.774-14.25-40.918 3.015-31.16 24.086 28.144 60.703 50.832 116.93 57.168 184.488 3.156 34.45 1.882 69.371-3.895 103.488-4.543 26.903-14.352 51.14 4.047 74.301 4.898 6.16 14.25 7.18 21.348 5.652 62.117-13.59 47.46-147.582 41.378-192"/><path fill="#e8dd2f" d="M1943.21 1098.559c-1.733-8.508-1.183-16.954-5.366-24.817-4.492-8.46-16.801-9.62-23.29-3-16.355 16.61-11.038 55.301 9.454 66.582 10.922 6.008 21.09-1.902 22.574-12.941 1.121-8.356-1.734-17.625-3.371-25.824M1914.234 1376.793c-6.332-38.621-24.156-72.98-43.421-106.484-17.47-30.403-34.575-73.207-64.665-92.825-4.375-2.855-11.984-1.273-14.203 3.762-24.289 54.016 38.868 123.137 56.75 172.016 12.93 35.351 12.625 76.043 11.446 113.07-1.075 33.36-17.883 74.129 1.023 104.059 4.957 7.851 15.926 11.78 24.207 6.363 28.203-18.34 28.711-51.723 32.547-82.832 4.848-39.309 2.758-78.211-3.684-117.129"/><path fill="#e8dd2f" d="M1952.66 1415.527c-4.133-33.558-10.223-66.89-18.851-99.59-4.856-18.332-9.399-46.332-26.91-57.16-3.891-2.418-8.75-.02-10.079 4.11-5.511 17.191 2.72 40.16 4.653 57.422 3.226 28.296 4.496 56.777 4.797 85.238.363 28.73-.555 57.723-3.055 86.3-1.887 21.712-11.336 40.41-14.867 61.169-4.29 25.882 24.062 45.472 44.906 26.082 36.469-33.809 24.726-120.45 19.406-163.57"/><path fill="#e8dd2f" d="M2016.965 1525.133c-.36-32.77-.719-67.73-2.813-102.242.211-26.739-3.992-54.84-9.035-78.801-1.887-9.957-14.105-13.918-22.535-10.106-7.46-20.261-21.8-36.12-25.285-58.261-3.52-22.332-37.953-16.09-38.313 5.16-.05 4.238 0 8.43.098 12.61-7.348-1.653-14.648-2.552-21.539-2.45-8.082.129-13.746 7.687-11.75 15.41 5.055 20.25 22.258 29.617 35.855 42.57 1.329 22.727 2.442 45.54 1.168 68.63-3.062 55.347-10.824 109.827-10.523 165.41.098 21.64 17.637 30.39 33.414 27.23-1.637 8.758-1.637 17.668 1.785 27.039 3.68 10.148 14.813 19.371 26.414 15 46.43-17.68 43.516-85.16 43.059-127.2"/><path fill="#e8dd2f" d="M1997.55 1570.242c-3.01-1.808-6.023-3.199-9.038-4.34 41.984-28.82 88.73-65.77 47.398-118.718-31.914-40.891-98.789 6.671-126.832 26.968-62.281 45.051-115.164 101.532-179.664 143.653-61.988 40.398-131.887 62.316-205.195 41.43-52.82-15.07-128.02-36.712-155.04-89.223-8.437-16.367-24.984-18.547-38.23-12.41-1.879-8.77-3.14-17.418-3.41-25.778-.637-22.5-34.605-28.402-39.992-5.441-10.379 44.14.36 93.148 12.254 135.68 12.012 42.878 29.37 106.66 72.082 129.57 6.23 3.367 12.625 4.55 18.676 4.039 5.972 11.262 16.851 19.441 34.527 22.219 7.902 1.25 16.176.363 24.293-2.118-2.832 14.278 1.992 30.29 15.867 37.059 64.078 31.29 127.469 34.23 194.754 15.89 5.46 6.36 13.684 10.438 24.89 9.88 83.65-4.11 148.172-58.688 215.098-102.622 9.293-6.058 14.399-13.718 16.442-21.656 66.925-44.863 164.234-134.531 81.12-184.082"/><path fill="#f89a39" d="M1452.86 1078.82c-9.712-1.129-13.622-5.14-23.63.66-10.402 6-18.921 15.329-26.69 24.211-16.552 18.91-31.11 42-40.25 65.418-1.74 4.442 4.39 7.02 7.382 4.29 15.629-14.047 26.867-33.149 40.02-49.399 7.718-9.55 15.886-18.98 25.75-26.36 4.257-3.19 13.456-12.949 18.078-14.038 2.859-.704 1.89-4.5-.66-4.782"/><path fill="#f89a39" d="M1437.691 1101.879c-27.902-3.8-50.93 23.5-65.601 43.75-16.852 23.383-42.09 59.14-39.149 89.371.43 4.809 5.34 8.61 9.989 5.75 21.648-13.379 29.78-42.238 41.629-63.602 8.351-14.968 17.73-29.347 29.222-42.117 8.5-9.422 18.848-17.16 26.149-27.61 1.28-1.831.05-5.21-2.239-5.542"/><path fill="#f89a39" d="M1414.078 1132.328c-25.539-14.2-48.879 29.113-57.539 46.434-17.39 34.84-29.45 78.207-28.3 117.34.183 6.558 4.34 12.437 10.831 14.199 1.282.36 2.578.62 3.91.539 6.641-.36 12.36-4.238 14.22-10.828 8.82-30.934 12.421-63.172 21.378-94.153 4.73-16.27 12.012-30.93 20.742-45.359 5.418-8.988 13.692-13.898 16.301-24.422.36-1.43-.21-2.988-1.543-3.75"/><path fill="#f89a39" d="M1394.672 1172.512c2.508-4.09-2.3-7.774-6.082-6.063-35.192 16.04-46.07 59.461-53.512 94.07-6.25 29.172-22.7 94.403-1.906 118.52 3.418 4 9.25 2.961 12.816 0 19.672-16.277 12.442-59.719 14.051-82.73 3.172-44.63 11.063-85.368 34.633-123.797"/><path fill="#f89a39" d="M1399.27 1149.031c-20.43 24.39-35.27 54.18-48.73 82.89-12.419 26.477-28.56 59.5-18.009 88.669 1.918 5.32 7.89 7.05 12.207 3.219 21.942-19.43 27.332-52.13 37.114-78.72 10.93-29.55 21.789-62.038 23.09-93.71.097-2.758-3.813-4.57-5.672-2.348"/><path fill="#f89a39" d="M1347.7 1278.219c-28.731 26.18-41.25 64.242-47.071 101.812-4.29 27.89-5.207 80.2 25.34 94.48 3.781 1.759 8.27-.312 8.32-4.78.621-29.04-11.59-56.422-10.11-86.512 1.712-35.14 9.962-70.668 29.423-100.43 2.457-3.73-2.864-7.348-5.903-4.57"/><path fill="#f89a39" d="M1355.602 1441.3c-1.641-6.128-2.66-12.41-3.403-18.741 1.102-21.918 4.52-43.25 6.461-54.86 5.41-33.437 28.86-67.36 28.27-100.308-.051-3.192-3.5-5.211-6.301-3.602-29.27 16.402-36.84 65.621-42.559 96.29-6.18-4.157-15.02-1.907-18.332 6.62-15.988 40.84-15.84 146.352 41.422 153.63 10.27 1.28 15.2-7.169 14.77-15.63.25.051.46.082.71.13.56-22.349-15.218-41.79-21.038-63.528"/><path fill="#f89a39" d="M1462 1608.29c-5.512-27.43-35.879-48.599-53.281-68.88-12.18-14.2-24.719-28.27-34.328-44.422-3.672-6.148-10.602-21.43-8.63-24.11 1.18-1.608-.761-3.8-2.5-3.269-33.722 10.832-4.91 52.34 7.61 71.391 17.059 25.93 50.418 75.48 84.688 77.672 4.601.277 7.21-4.422 6.441-8.383"/><path fill="#f89a39" d="M1512.121 1644.871c-4.812-15.762-18.7-25.723-29.531-37.52-12.469-13.69-24.32-27.972-36.32-42.12-18.141-21.512-45.98-54.5-77.598-49.04-1.434.23-2.043 2.098-1.332 3.22 7.23 11.698 18.11 19.948 27.512 29.78 13.308 13.95 23.976 30.45 34.687 46.41 15.45 23.07 39.563 65.387 71.902 63.27 6.938-.43 12.868-6.742 10.68-14"/><path fill="#f89a39" d="M1401.422 1518.852c-.723-2.633-.973-5.16-2.41-7.543-1.352-2.348-2.602-3.438-4.39-6.399-.974-1.558-2.481-3.219-3.7-4.68 1.476 1.79-.793-1.308-.852-1.43-.61-.921-1.07-1.89-1.699-2.76-.64-.868-1.312-1.712-1.95-2.528.95 1.25 1.099 1.379.438.308-4.55-8.02-19.238-7.36-20.949 2.73-1.48 8.97 1.84 16.25 7.461 23.09 4.98 6.079 12.207 10.27 20.18 9.551 5.21-.46 9.347-4.882 7.87-10.34M1554.16 1612.79c-20.441-7.528-42.172-8.38-63.14-14.052-11.81-3.187-22.301-8.777-32.192-15.879-6.43-4.699-8.937-9.808-16.75-10.78-.867-.099-2.117.64-2.45 1.433-7.737 17.52 20.384 33.457 32.743 39.66 24.52 12.238 55.328 19.34 81.79 10.297 5.359-1.84 5.21-8.758 0-10.68"/><path fill="#f89a39" d="M1580 1615.14c-18.95-12.081-43.879-14.511-64.309-23.75-10.68-4.859-21.41-10.32-31.363-16.55-3.707-2.328-20.027-11.98-19.93-11.602-.757-3.797-5.718-2.937-6.84 0-4.699 12.032-7.82 15-1.23 28.07 6.492 12.852 23.5 23.403 35.66 29.883 23.551 12.649 61.864 31.137 88.012 16.399 8.79-4.961 8.031-17.309 0-22.45"/><path fill="#f89a39" d="M1649.02 1618.379c-31.672-16.39-71.434-10.031-105.895-19.082-30.441-8.04-62.277-26.098-94.203-18-3.188.762-4.688 5.441-2.008 7.762 26.738 22.89 65.89 33.41 98.313 46.511 33.324 13.489 78.03 27.23 105.64-2.941 3.746-4.11 3.563-11.441-1.847-14.25"/><path fill="#f89a39" d="M1712.82 1592.852c-21.968 7.14-43.437 16.109-65.902 21.757-6.406 1.633-38.098 3.883-35.805 15.32.094.383.16.743.254 1.173.485 2.43 2.707 4.27 4.98 4.988 31.755 9.91 86.516-3.3 103.981-33.488 2.809-4.88-1.84-11.622-7.508-9.75"/><path fill="#f89a39" d="M1826.934 1461.41c-1.727-21.87-32.946-22.2-34.168 0-4.133 73.973-62.942 113.45-115.551 154.399-5.05 3.953-.66 12.203 5.008 12.101 36.675-.61 69.902-29.93 95.215-53.89 29.578-27.989 52.921-71.188 49.496-112.61"/><path fill="#f89a39" d="M1833.332 1402.762c-7.312-47.68-47.84-89.875-77.574-125.364-32.344-38.59-58.184-80.543-93.559-116.843-18.887-19.368-38.547-37.801-60.328-53.875-24.32-17.946-53.05-29.192-77.047-47.657-1.418-2.585-3.597-4.648-6.734-5.437-.844-.203-1.692-.43-2.504-.61-7.05-1.792-12.203 1.836-14.324 6.993-18.059 11.52-38.242 20.023-53.559 34.957-2.2 2.078-.644 6.16 2.492 6.035 21.758-.867 38.016-14.922 58.04-21.758 29.214 32.285 68.953 51.055 100.55 80.969 34.922 33.05 66.598 67.785 92.262 108.629 21.297 33.922 43.656 67.781 61.578 103.64 8.79 17.68 14.348 39.41 14.945 58.98.633 20.49-10.14 35.829-4.52 56.52 2.66 9.711 12.36 14.41 21.759 12.371 43.16-9.3 43.879-62.382 38.523-97.55"/><path fill="#f89a39" d="M1652.027 1261.012c-1.148 1.32-2.14 2.734-3.062 4.312-2.453-1.894-4.957-3.73-7.668-5.293-5.77-3.472-12.535-5.097-19.406-5.914-.07-.34-.153-.644-.2-.969.91-7.668 1.192-15.46.524-23.5-.024-.234-.047-.433-.07-.68 10.8 9.759 20.695 20.637 29.882 32.044Zm-6.593-99.164c-20.309-14.887-43.036-24.668-64.817-37.078-9.512-5.387-16.945-14.153-24.156-23.02-.27-.457-.477-.934-.723-1.402-1.976-3.344-4.781-6.485-8.074-9.078-2.2-2.516-4.441-4.993-6.789-7.211-29.742-28.024-64.273-20.227-96.629-2.91-24.598 13.203-62.55 41.097-61.629 72.94.387 13.872 4.488 25.849 13.098 35.993-8.05 14.535-14.688 29.305-19.387 43.375-3.902 11.742.258 20.883 7.645 26.328-.844 2.02-1.72 4.055-2.535 6.027-9.293 22.57-19.305 50.079-25.208 78.438-9.5 3.273-17.445 12.871-16.628 22.984 6.242 77.04 58.593 158.438 119.484 203.817 71.95 53.57 179.351 58.172 259.605 23.652 186.047-80.043 33.715-354.281-73.257-432.855"/><path fill="#f89a39" d="M1401.52 1249.871c-5.918-10.812-20.739-11.77-29.27-3.762-11.422 10.711-17.469 25.063-19.98 40.29-2.008 12.41-2.239 29.39 3.332 40.882 1.726 3.528 7.578 4.399 10.109 1.309 6.36-7.762 8.27-17.91 13.789-26.328 3.5-5.422 6.59-10.91 9.84-16.274 3.058-.11 7.332-.508 7.988-1.308 9.25-11.18 11.422-21.66 4.192-34.809M1675.066 1302.836c-4.09-18.813-8.734-37.11-22.5-51.309-14.64-15.035-36.347-13.761-55.574-13.586-30.015.258-78.133 8.786-75.273 48.352.074 1.324 1.683 1.789 2.449.664 13.133-19.105 52.875-8.84 72.793-5.062 19.074 3.605 18.68 15.718 22.203 36.347 6.258 36.43 63.926 21.406 55.902-15.406"/><path fill="#f89a39" d="M1632.754 1265.602c-1.563-1.762-.645-5.575-.516-7.637.285-5.055 1.13-9.985 2.328-14.895 3.188-12.66-6.082-25.492-19.363-25.492-15.219 0-25.133 17.117-17.371 30.3 6.691 11.415 9.66 27.024 22.582 33.704 10.469 5.426 20.02-7.273 12.34-15.98"/><path fill="#e87430" d="M1029 1435.352c.27-22.274 1.762-41.993-5.422-63.391-.84-2.352-3.879-2.25-4.726 0-8.68 23.93-10.243 46.738-10.063 72.027.102 17.98.39 40.66 14.68 53.184 2.41 2.09 6.57 1.45 7.39-1.953 4.653-18.918-2.148-40.2-1.859-59.867"/><path fill="#e87430" d="M1031.93 1318.762c-2.399-2-6.282-3.352-9.14-1.203-13.18 10.062-9.81 25.82-11.09 41.32-1.84 22.402-5.72 44.723 3.171 66 1.379 3.3 6.078 3.832 7.25 0 6.23-20.41 8.578-41.957 12.93-62.86 2.91-14.199 9.55-32.789-3.121-43.257"/><path fill="#e87430" d="M1041.738 1270.84c-1.937-5.262-7.867-7.02-12.207-3.219-20.43 18.078-25.293 53.969-31.773 79.23-6.719 26-5.926 52.52 6.332 76.45 1.629 3.219 6.898 2.449 7.71-1 5.981-25.82 12.372-51.52 18.75-77.211 5.77-23.32 20.028-50.39 11.188-74.25"/><path fill="#e87430" d="M1071.93 1194.422c-24.828 12.59-41.43 44.058-51.54 68.988-14.41 35.399-19.878 67.149-14.25 104.969.81 5.422 8.122 3.27 8.68-1.149 4.258-32.48 15.63-64.23 30.239-93.43 11.77-23.519 31.472-46.05 36.293-72.128 1.046-5.613-4.16-9.934-9.422-7.25"/><path fill="#e87430" d="M1097.238 1136.77c-45.898 26.03-111.742 91.8-91.867 150.16.738 2.172 4.078 2.48 4.7 0 14.577-59.508 64.058-93.43 93.23-144.078 2.187-3.883-2.2-8.274-6.063-6.082"/><path fill="#e87430" d="M1144.98 1119.219c-51.652 23.203-107.582 70.172-115.55 128.582-.43 3.347 3.98 4.719 5.16 1.41 19.77-56.172 87.039-75.152 118.61-121.79 3.679-5.491-3.27-10.39-8.22-8.202M1015.61 1246.238c-10.372 7.84-20.356 25.621-16.883 38.98.613 2.321 2.554 4.294 4.851 4.884.512.117 1.07.199 1.633.226 7.16.742 10.27-9.988 12.57-14.867 3.7-7.742 6.59-15.602 6.489-24.262-.032-3.937-5.008-7.687-8.66-4.96"/><path fill="#e87430" d="M1195.04 1064.922c-26.95 9.61-50.552 32.437-72.84 50.039-28.098 22.2-51.91 44.437-67.231 77.238-2.168 4.672 3.32 9.45 7.3 5.64 25.602-24.39 54.36-46.198 82.66-67.35 21.45-15.989 47.102-32.817 57.192-58.52 1.598-3.98-3.152-8.48-7.082-7.047"/><path fill="#e87430" d="M1201.988 1046.531c-31.367-2.5-69.25 33.13-92 51.34-22.937 18.39-58.699 50.8-51.52 84.09.59 2.629 3.75 2.93 5.571 1.45 11.871-9.86 20.66-23.321 31.852-34.052 14.199-13.558 29.37-25.77 45.46-37.007 21.38-14.891 58.59-30.063 68.098-56.012 1.832-5.078-2.87-9.469-7.46-9.809"/><path fill="#e87430" d="M1535.71 979.262c-11.788-11.801-35.858-9.332-50.8-9.793-28.781-.969-57.129-6.95-86-7.578-54.039-1.153-108.12 7.66-158.101 28.09-45.52 18.648-87.2 44.96-125.508 75.578-31.192 24.96-68.66 76.472-66.153 118.21.051 1.583 1.813 2.301 2.98 1.25 19.493-17.14 29.962-41.167 52.642-54.988 23.73-14.46 44.449-34.691 68-49.86 47.199-30.421 98.902-54.991 154.402-64.882 57.34-10.21 113.02 3.5 170.027 6.64 20.742 1.16 62.57-18.59 38.512-42.667"/><path fill="#e87430" d="M1305.691 1028.7c-15.12-8.419-29.84 2-44.402 8.41-10.93 4.8-21.809 9.859-32.48 15.218-12.47 6.23-22.48 15.863-35.758 20.512-3.07 1.12-2.84 6.57.82 6.11 21.957-2.84 39.149-2.97 60.09-11.829 16.48-7 45.93-10.98 54.508-27.84 1.922-3.68 1.07-8.43-2.778-10.582"/><path fill="#e87430" d="M1513.441 1000.629c-46.132-20-115.863-6.688-164.332 3.172-31.93 6.488-61.87 17.289-92 29.27-25.418 10.12-54.77 16.269-76.629 32.98-3.55 2.75-3.12 7.629 1.282 9.32 45.277 17.32 105.226-20.973 149.617-31.312 28.66-6.668 61.121-6.88 90.473-7.79 29.187-.898 59.359 7.38 87.168-2.05 13.359-4.547 20.261-26.688 4.421-33.59"/><path fill="#e87430" d="M1539.54 1006.18c-22.669-3.711-44.31 2.09-67.63 1.808-20.988-.25-46.59-1.937-67.12-6.718-1-.23-2.4.539-2.25 1.742 3.401 25.949 37.44 32.047 58.8 35.86 28.332 5.026 67.332 12.538 85.64-14.384 4.239-6.207.282-17.058-7.44-18.308"/><path fill="#e87430" d="M1619.191 983.39c-41.23 7.57-76.14 35.938-117.96 43.04-1.07.18-.711 1.66.21 1.742 41.989 4.34 90.98-7.563 121.22-38.852 2.6-2.71-.052-6.539-3.47-5.93"/><path fill="#e87430" d="M1620.148 964.441c-14.398-.43-28.5 10.73-40.398 17.618-12.871 7.492-29.941 12.851-39.871 24.293-1.328 1.539-1 4.347 1.281 4.808 15.27 3.16 32.871-4.09 47.02-9.07 14.172-5.012 34.941-13.031 37.949-29.828.723-3.992-1.68-7.723-5.98-7.82"/><path fill="#e87430" d="M1597.45 964.852c-13.66-2.454-25.259 3.347-37.391 9.07-16.02 7.527-30.22 16.289-42.38 29.09-2.73 2.879 0 7 3.65 6.308 16.48-3.12 31.96-8.28 47.46-14.61 12.34-5.03 24.883-9.269 32.242-21.07 1.91-3.07.23-8.12-3.582-8.788"/><path fill="#e87430" d="M1659.395 951.793c-33.82-5.996-69.63 21.36-94.665 40.613-2.351 1.82-1.113 6.434 2.247 5.262 16.503-5.691 33.156-10.93 49.703-16.621 15.28-5.238 32.543-9.578 45.156-20.008 3.094-2.523 1.48-8.531-2.441-9.246"/><path fill="#e87430" d="M1695.453 942.137c-16.035-8.735-38.773 1.312-55.14 5.488-22.426 5.805-41.836 17.32-56.926 34.773-1.875 2.114.406 5 2.93 3.825 20.816-9.88 44.085-13.172 66.382-18.235 15.172-3.449 36.168-4.117 44.492-19.183 1.254-2.274.637-5.356-1.738-6.668"/><path fill="#e87430" d="M1679.11 959.586c-22.61-5.719-48.075 13.21-66.973 23.656-27.235 15.02-55.23 29.531-82.61 44.063-2.812 1.5-1.386 5.687 1.594 5.77 35.031.921 61.707-3.786 95.207-16.188 23.067-8.532 55.574-21.586 59.11-48.973.488-3.672-2.989-7.426-6.329-8.328"/><path fill="#e87430" d="M1686.566 941.574c-16.011-10.394-39.894-3.851-57.363-.226-22.535 4.672-41.816 15.254-58.195 31.37-3.82 3.77 1.039 9.907 5.629 7.321 18.93-10.726 40.812-13.2 62.265-14.527 16.606-1.07 36.168 1.258 49.399-10.375 4.37-3.832 2.66-10.696-1.735-13.563"/><path fill="#e87430" d="M1656.004 967.95c-1.527 3.21-.195 6.612 3.176 7.816 12.207 4.207 26.507-1.075 39.125-1.875 17.652-1.075 35.3-1.758 52.93-3.645 7.199-.77 15.882-6.21 14.808-14.816-3.266-26.465-99.64-8.89-110.04 12.52"/><path fill="#e87430" d="M1847.781 945.434c-25.129-13.196-56.761-9.137-84.695-10.614-29.902-1.558-70.356-6.511-95.629 12.125-1.434 1.102-1.637 3.149 0 4.196 23.648 15.07 55.063 11.343 82.238 12.593 31.223 1.453 69.524 8.809 98.086-5.672 4.797-2.457 4.692-10.14 0-12.628"/><path fill="#e87430" d="M1852.887 967.05c-6.895-13.484-24.668-17.956-38.106-22.835-16.82-6.156-35.457-5.18-52.64-1.504-4.438.945-2.946 7 1 7.387 17.41 1.808 32.683 8.293 48.476 15.418 12.563 5.62 22.824 14.304 37.028 11.949 4.753-.785 6.132-6.715 4.242-10.414"/><path fill="#e87430" d="M1984.172 1047.422c-11.235-18.57-18.031-34.934-34.274-49.371-13.78-12.211-29.941-21.582-47-28.246-20.578-7.992-74.168-32.996-91.53-10.16-.06.093-.06.277 0 .398 9.491 19.547 47.8 18.598 66.76 24.629 33.767 10.672 80.407 37.16 101.099 65.637 2.082 2.972 6.894.355 4.945-2.887"/><path fill="#e87430" d="M1960.262 1025.742c-4.754-19.742-32.59-34.273-48.578-44.922-18.036-12.078-43.586-27.511-66.047-22.351-3.02.687-4.09 4.957-1.84 7.05 7.195 6.594 15.676 9.864 24.058 14.762 11.997 7 22.774 15.555 33.36 24.469 14.605 12.32 34.527 32.77 55.004 28.09 3.129-.735 4.703-4.137 4.043-7.098"/><path fill="#e87430" d="M1901.52 976.762c-2.356-11.57-17.63-20.282-27.239-26.004-9.597-5.754-22.008-3.547-29.879 4.027-1.527 1.531-1.062 4.09.723 5.242 6.785 4.368 12.82 10.801 19.043 16.008 7.719 6.422 15.074 16.43 26.203 15.403 7.774-.711 12.785-6.81 11.149-14.676M1995.055 1045.082c-21.551-23.941-59.918-46.75-91.188-54.352-1.32-.34-2.441 1.07-1.789 2.266 13.899 23.828 44.297 43.957 67.485 58.078 15.835 9.68 34.843 15.485 47.972 29.242 12.512 13.192 18.492 29.657 29.883 43.125 1.273 1.563 4.395.329 4.14-1.734-2.968-28.512-38.468-56.535-56.503-76.625"/><path fill="#e87430" d="M2014.773 1064.203c-3.156-9.707-10.878-15.734-17.972-22.703-7.055-7.008-14.211-13.79-23.348-17.629-6.273-2.621-10.781 4.68-9.851 9.918 1.472 9.035 8.12 16.117 14.347 22.566 6.485 6.622 14.246 15.051 22.727 18.676 7.054 3.008 17.02-1.879 14.097-10.828"/><path fill="#e87430" d="M1983.77 1015.059c-11.34-10.079-21.25-17.418-36.27-20.63-3.164-.69-5.723 3.09-3.215 5.512 10.219 9.907 20.016 20.309 30.184 30.313 8.683 8.601 20.531 24.637 34.23 23.25 3.211-.309 4.953-2.691 4.45-5.879-2.102-13.281-19.977-24.14-29.38-32.566"/><path fill="#e87430" d="M2046.61 1086.172c-12.02-13.79-24.985-27.817-43.13-32.774-.902-.253-1.37.852-.851 1.489 12.2 14.586 22.672 29.797 31.348 46.734 6.343 12.29 15.441 29.89 29.785 33.738 3.687.954 7.258-1.816 7.308-5.566.203-16.008-14.511-32.211-24.46-43.621"/><path fill="#f89a39" d="M1386.879 1453.54c-2.68-5.52-2.5-12.31-5.738-17.849-6.032-10.3-17.422-12.652-27.82-8.203-20.762 8.961-11.243 36.961-4.391 51.672 7.351 15.809 21.89 30.75 40.41 27.738 5.39-.898 10.308-6.468 11.57-11.578 3.77-15.468-7.672-28.68-14.031-41.78"/><path fill="#f89a39" d="M1499.29 1585.18c-6.38-11.239-13.74-15.121-24.52-22.84-19.54-13.961-36.68-30.852-52.97-48.371-25.26-27.23-43.831-55.68-62.991-87.07-.918-1.508-3.11-1.169-3.618.492-10.55 32.738 21.02 63.52 40.84 85.71 22.91 25.7 61.828 78.208 99.989 77.75 2.89-.05 4.699-3.171 3.27-5.671"/><path fill="#f89a39" d="M1446.55 1552.129c-1.609-4.188-2.48-7.89-6-11.008-5.26-4.75-10.929-9.043-16.05-13.992-8.371-8.149-22.059-17.758-25.43-29.48-.41-1.508-2.53-1.458-3.02 0-4.16 13.203 3.579 25.492 10.829 35.91 7.71 11.113 20.742 25.742 35.2 24.441 2.76-.25 5.64-2.809 4.472-5.871"/><path fill="#f89a39" d="M1410.64 1518.852c-4.831-9.782-14.769-15.102-23.421-21.153-2.867-1.988-6.899 1.992-4.86 4.832 6.13 8.61 12.852 17.438 22.532 22.09 3.859 1.84 7.66-1.86 5.75-5.77"/><path fill="#834935" d="M1468.64 1216.559c-1.94-2.297-5.21-1.579-7.23 0-6.3 5.011-6.82 16.152-10.32 23.25-4.05 8.25-7.48 16.703-10.211 25.511-.8 2.48 2.68 4.602 4.422 2.578 6.87-7.707 14.449-14.07 19.789-23.007 4.93-8.2 10.5-20.032 3.55-28.332"/><path fill="#834935" d="M1447.648 1161.422c-8.66-7.613-19.718-1.942-21.078 8.726-2.468 20.34 33.59 65.012 10.14 78.75-1.78 1.051-1.679 3.524 0 4.602 19.368 12.379 33.77-8.148 33.77-26.129-.05-19.441-7.609-52.543-22.832-65.95"/><path fill="#834935" d="M1453.98 1133.148c-1.332-6.207-8.48-7.898-13.511-5.468-17.93 8.55-13.77 40.379 1.152 49.68 1.84 1.12 4.848.152 5.207-2.122 1.07-6.41 2.48-13.129 4.703-19.258 2.399-6.62 3.93-15.94 2.45-22.832M1519.238 1180.781c-2.168-1.84-4.93-1.531-6.59.84-6.097 8.707-4.007 17.7-4.16 27.867-.16 12.211-1.02 23.73-5.718 35.192-1.48 3.68 3.289 6.289 6.18 4.73 12.109-6.41 16.09-17.62 18.41-30.601 2.28-12.457 2.378-29.45-8.122-38.028"/><path fill="#834935" d="M1514.719 1173.07c-2.2-9 2.043-22.07-4.598-29.039-1.101-1.152-3.012-1.691-4.52-1.18-11.21 3.727-8.351 17.848-6 26.887 3.32 12.524 10.008 22.942 18.13 32.801.917 1.152 3.199.262 3.019-1.25-1.129-9.809-3.71-18.648-6.031-28.219"/><path fill="#834935" d="M1527.29 1130.738c-13.642-.59-27.54 12.672-28.61 26.23-.41 5.602.46 11.09 1.992 16.454 1.687 5.957 5.387 10.527 7.36 16.117.507 1.48 2.468 1.48 3.007 0 1.23-3.5 3.93-6.738 5.473-10.187 1.597-3.653 3.566-7.032 5.77-10.34 4.238-6.473 9.91-8.793 14.968-14.313 8.43-9.168 2.469-23.418-9.96-23.96M1621.129 1248.52c-1.098-10.63-9.707-27.29-20.027-31.27-2.301-.922-4.801.969-5.473 3.09-2.29 7.539 2.66 14.922 6.34 21.23 2.5 4.239 4.672 8.711 7.05 13.02 3.27 6.012-.667 14.95-3.53 20.21-.66 1.231.64 2.4 1.84 1.84 12.03-5.93 15.183-15.12 13.8-28.12"/><path fill="#834935" d="M1609.531 1253.7c-10.75-13-10.222-34.302-12.312-50.16-1.098-8.462-14.047-12.11-16.239-2.169-4.66 21.25.38 50.668 21.301 61.73 6.278 3.29 11.489-4.242 7.25-9.402"/><path fill="#834935" d="M1631.895 1175.145c-13.118-9.665-30.817-.262-41.473 8.859-4.805 4.086-7.817 10.547-9.094 16.582-1.383 6.297 2.715 12.094 5.867 17.234.364.586 1.188.305 1.235-.34.562-9.007 10.68-15.238 18.082-18.875 8.304-4.054 17.726-3.472 25.383-9.078 5.343-3.898 5.324-10.507 0-14.382M1606.16 1276.559c-.308-1.098-1.89-.59-1.691.492 1.02 6.199-1.63 10.11-4.34 15.3-.707 1.297 1.02 2.75 2.043 1.598 4.297-4.597 5.52-11.39 3.988-17.39"/><path fill="#834935" d="M1613.621 1258.121c-1.152-3.98-7.672-4.5-8.543 0-1.367 7.328-3.777 15.578-7.547 22.07-4.5 7.579-12.27 8.79-19.312 12.72-6.489 3.57-3.547 13.82 3.73 13.76 11.281-.07 21.52-8.452 27.813-17.183 6.867-9.61 7.02-20.457 3.86-31.367"/><path fill="#834935" d="M1581.02 1295.95c-3.391.05-5.36-2.38-8.63-2.91-3.449-.571-6.87-1.462-10.34-1.59-8.859-.278-10.35 10.878-4.16 15.331 4.75 3.418 11.258 3.16 16.391.89 4.29-1.87 5.469-6.343 7.707-10.062.422-.718-.117-1.66-.968-1.66M1552.672 1229.64c-1.402-1.449-3.934-1.449-5.344 0-3.75 3.93-3.539 7.59-3.437 12.77.148 6.18 1.53 12.012.937 18.211-.078.918 1.332 1.54 1.922.8 6.21-7.901 14.379-22.972 5.922-31.78M1470.27 1374.95c-8.52-6.212-20.122-10.938-29.93-15.071-9.809-4.168-22.09-9.758-31.29-1.54-2.53 2.231-2.6 6.032-1.152 8.821 4.551 8.66 19.82 14.352 28.59 17.649 11.313 4.21 24.953 5.89 34.813-1.868 2.808-2.191 1.347-6.28-1.031-7.992"/><path fill="#834935" d="M1494.691 1341.79c-.71-2.802-3.78-3.618-6.152-2.5-6.16 2.89-8.809 11.14-10.648 17.17-2.051 6.712-4.91 12.99-7.38 19.481-1.081 2.84 2.169 5.778 4.93 4.91 6.938-2.23 11.13-9.07 13.938-15.351 3.09-6.95 7.262-15.988 5.312-23.71"/><path fill="#834935" d="M1503.129 1320.7c-1.719-2.278-4.5-4.169-7.488-3.071-11.641 4.27-14.13 17.86-18.16 28.152-3.833 9.91-10.172 19.59-18.083 26.61-.867.789-.82 2.328 0 3.12 10.442 9.68 25.383-1.382 31.98-10.5 7.552-10.523 21.423-31.542 11.75-44.312"/><path fill="#834935" d="M1494.129 1279.45c-13.988 14.448-14.25 38.359-9.09 56.57 1.133 3.96 7.77 4.5 8.531 0 1.328-7.758 4.059-14.68 6.54-22.06 2.94-8.608 8.218-16.1 10.421-24.94 2.367-9.372-9.402-16.801-16.402-9.57"/><path fill="#834935" d="M1532.852 1269.79c-17.954-2.552-33.352 13.98-33.872 31.32-.05 2.6 3.25 3.062 4.579 1.218 7.941-11.156 23.421-10.27 32.722-19.457 3.828-3.762 2.598-12.21-3.43-13.082"/><path fill="#834935" d="M1536.379 1269.61c-13.438-4.59-27.867 2.628-36.55 12.671-9.79 11.34-12.688 24.469-9.4 38.899.993 4.37 7.38 4.058 8.5 0 2.36-8.25 7.051-17.489 12.7-23.98 6.723-7.688 15.371-9.09 24.75-11.11 8.812-1.871 7.46-13.899 0-16.48M1410.871 1298.422c-6.902 3.726-12.16 9.937-18.832 14.047-6.05 3.73-13.25 3.27-19.64 5.98-.868.38-1.118 1.711-.637 2.45 5.488 8.18 16.828 7.613 25.11 3.78 9.648-4.488 17.57-12.538 18.648-23.57.218-2.46-2.758-3.71-4.649-2.687"/><path fill="#834935" d="M1421.95 1267.95c-2.86-3.04-8.56-4.028-12.052-1.56-8.328 5.93-8.918 14.36-10.886 23.63-1.582 7.539-3.723 15.101-7.25 21.968-1.942 3.782.41 8.992 5.058 8.813 21.352-.723 40.809-35.91 25.13-52.852"/><path fill="#834935" d="M1410 1279.781c-.871-6.031-1.078-13.43-3.96-18.8-.821-1.532-3.22-1.172-3.65.46-1.261 5.059.712 10.27 1.782 15.25 1.328 6.207 2.808 12.688 3.27 19.028.109.941 1.48 1.222 1.788.23 1.48-5.57 1.59-10.469.77-16.168"/><path fill="#834935" d="M1422.672 1239.629c-4.602-14.129-24.063-14.207-28.613 0-2.86 8.84-.97 19.922 1.84 28.66 2.43 7.61 3.882 14.3 11.242 18.332 2.168 1.149 4.34.688 6.18-.812 5.769-4.75 6.23-10.5 8.019-17.52 2.25-8.969 4.262-19.75 1.332-28.66"/><path fill="#834935" d="M1409.95 1228.078c-8.278 3.172-14.759 10.582-13.641 20 .921 7.41 3.421 12.703 9.91 16.582.71.461 1.71.18 2.14-.539 4.653-8.152 10.532-15.043 13.54-24.082 2.222-6.64-5.079-14.59-11.95-11.96M1433.09 1396.988c-4.34-13-22.168-11.617-32.488-7.937-12.012 4.34-20.41 15.039-23.141 27.347-.672 3.024 3.168 4.551 4.867 2.07 5.344-7.866 13.422-12.179 22.203-15.218 8.528-2.91 16.957 1.48 25.34-.54 2.32-.562 4.008-3.339 3.219-5.722"/><path fill="#834935" d="M1447.422 1408.922c-3.55-13.852-28.281-16.5-39.774-14.613-16.707 2.73-27.59 9.882-32.437 26.28-.66 2.2 2.09 3.583 3.68 2.141 8.937-8.09 23.09-8.68 34.5-8.91 9.91-.18 22.28 5.668 31.5 1.301 2.25-1.043 3.109-3.98 2.53-6.2M1477.328 1448.988c-4.988-3.75-8.457-6.84-14.77-8.86-7.578-2.429-18.078-.097-25.437 1.763-16.86 4.289-29.68 22.988-21.351 39.488 3.12 6.23 11.39 7.59 17.058 4.492 3.352-1.812 6.742-3.8 9.91-5.871 3.25-2.14 6.442-3.422 9.91-4.73 5.243-1.942 10.48-2.75 15.532-5.31 3.53-1.78 5.98-4.698 9.148-6.46 6.07-3.32 4.8-10.96 0-14.512"/><path fill="#834935" d="M1444.328 1457.219c-9.168 1.351-17.976 4.75-22.558 13.23-4.29 7.942-4.57 24.77 5.55 29.192 11.008 4.847 14.149-3.762 11.899-13.282-1.989-8.558.562-20 6.851-26.18 1.352-1.359-.11-3.19-1.742-2.96"/><path fill="#834935" d="M1436 1490.55c-1.531-5.472-1.129-10.679.328-16.12.774-2.809-2.887-4.059-4.437-1.89-7.313 10.37-11.903 30.17 3.847 35.66 2.633.94 5.012-1.891 4.371-4.34-1.148-4.47-2.859-8.872-4.109-13.31"/><path fill="#834935" d="M1454.64 1502.91c-.562-1.2-3.57-8.5-2.038-4.441-1.48-3.89-2.25-5.39-4.852-8.66 1.73 2.171.559.3-.102-.77.204.18-.82-2.3-.82-2.398-.918-2.551-1.379-3.782-.098-6.36.579-1.25.098-2.883-1.332-3.242-11.058-2.89-19.57 5.18-23.449 14.73-6.59 16.172 5.371 36.32 23.961 32.77 4.04-.789 8.68-5.129 9.3-9.32.642-4.29.919-8.168-.57-12.309"/><path fill="#834935" d="M1454.54 1502.602c.03.078.05.207.1.308.11.262.16.328-.1-.308M1496.738 1513.02c-9.886-2.86-21.457-.692-31.718-1.43-2.97-.23-3.68 4.73-.72 5.219 10.16 1.632 22.4 4.242 32.438 1.351 2.551-.738 2.551-4.422 0-5.14"/><path fill="#834935" d="M1499.34 1510.96c-7.281-6.85-15.602-6.21-25.13-6.98-9.882-.808-22.089-2.699-31.722.11-2.527.738-3.476 4.012-1.527 5.922 6.84 6.847 18.129 8.61 27.367 10.218 9.942 1.68 21.281 4.06 30.043-1.968 2.41-1.633 3.27-5.133.969-7.301"/><path fill="#834935" d="M1516.969 1514.3c-9.45-5.23-20-7.89-29.45-1.378-3.597 2.508-4.417 8.406 0 10.726 7.532 3.961 15.2 7.102 21.63 12.872 4.5 4.039 17.882 15.332 21.152 3.48 2.61-9.602-4.961-21.102-13.332-25.7M1551.09 1587.32c-8.84-16.98-35.63-12.12-47.149-26.53-6.691-8.4-19-.821-19.46 8.07-.872 15.581 15.12 25.18 27.808 29.831 6.922 2.528 14.18 4.239 21.563 4.239 1.808 0 3.5-.309 5.16-1 .636-.22 1.199-.43 1.636-.61 3.883-.41 6.774-1.89 9.274-4.851 2.297-2.73 2.879-5.93 1.168-9.149M1584.7 1489.988c-10.06-5.238-20.79 3.934-26.329 11.852-5.851 8.398-6.57 17.62-1.05 26.36.44.66 1.41.48 1.64-.231 2.168-6.797 7.68-13.047 13.43-17.188 5.57-4.062 13.328-8.02 14.46-15.531.31-2.02-.132-4.219-2.152-5.262"/><path fill="#834935" d="M1590.07 1493c-12.52-3.809-25.34-1.48-29.12 12.441-.56 1.97 1.28 3.75 3.25 3.27 6.609-1.711 13.78 1.809 19.28 5.289 6.891 4.29 14.348 8.27 20.23 13.988 2.731 2.742 6.868.614 7.15-2.957 1.05-13.18-7.66-28.043-20.79-32.031"/><path fill="#834935" d="M1596.602 1510.879c-2.012-3.469-7.352-1.938-7.403 2.02-.199 15.07-7.05 30.421-4.719 45.312.84 5.46 9.04 8.89 13.45 5.488 18.37-14.148 8.129-36.699-1.328-52.82"/><path fill="#834935" d="M1598.672 1562.828c-.742-8.02-.742-16.75.617-24.719.66-3.89-4.219-6.257-6.46-2.71-6.079 9.48-11.29 18.492-12.419 29.882-1.02 9.938 2.809 23.758 15.461 22.168 2.649-.3 4.11-1.789 4.41-4.41.918-7.258-.972-13-1.61-20.21M1713.43 1532.207c-12.965-5.73-24.696-1.3-38.153.281-5.004.59-11.668 1.348-16.609.2-3.41-.84-4.61-3.981-8.57-3.391-7.973 1.14-8.489 11.719-5.496 17.242 4.57 8.32 15.27 11.488 23.902 12.36 15.965 1.578 45.453-1.333 47.789-21.711.21-1.79-1.223-4.27-2.863-4.981"/><path fill="#834935" d="M1720.434 1502.219c-1.48-3.75-6.172-4.672-8.524-1.121-7.87 12.16-3.422 28.3-14.512 39.129-2.753 2.71.743 6.968 4.036 5.23 13.875-7.379 24.933-27.84 19-43.238"/><path fill="#834935" d="M1715.8 1469.602c-16.269 15.25-14.558 43.09-11.152 63.07.508 3.21 5.793 3.14 6.375 0 1.946-10.399 4.22-20.77 6.493-31.059 2.168-9.68 5.898-19.16 5.074-29.172-.274-3.449-4.133-5.34-6.79-2.84"/><path fill="#834935" d="M1749.004 1468.203c-12.899-14.71-43.93 2.27-40 20.84.184.77 1.184 1.328 1.945 1.07 4.703-1.761 9.836-2.879 14.871-3.37 7.637-.688 13.5 1.94 20.97-1.27 6.894-3.02 6.39-12.5 2.214-17.27M1747.457 1419.586c.258-.02.461-.098.719-.129-.817.11-.922.11-.719.129M1756.277 1425.746c-.691-2.86-3.152-5.207-6.011-5.98-.614-.18-2.407-.118-2.817-.18-3.515.57-5.629 2.101-7.55 5.293-3.528 5.848-2.352 14.098-2.094 20.559.207 4.398 5.437 6.82 8.707 3.597 6.367-6.25 12.062-13.84 9.765-23.289"/><path fill="#834935" d="M1737.703 1372.621c-5.21-2.879-10.32-1.21-13.383 2.684.16-.34.258-.7.442-1-1.336 1.351-2.285 2.91-2.793 4.73-.973 3.59-.918 7.86-.711 11.563.332 8.047 1.347 16.757 3.062 24.648 1.133 5.262-.238 29.27 7.817 30.172 13.027 1.398 20.004-16.914 22.086-26.8 3.504-16.552-.66-37.212-16.52-45.997"/><path fill="#834935" d="M1741.266 1338.883c0-2.371-2.407-4.39-4.754-3.621-22.082 7.015-16.953 35.914-8.25 51.511.738 1.332 2.789.41 2.437-1.039-4.347-16.609 10.543-30.582 10.567-46.851"/><path fill="#834935" d="M1741.488 1336.512c-9.636 1.246-15.027 9.031-15.918 18.386-.742 7.563 1.254 13.461 5.004 19.918.688 1.168 2.375 1.149 3.07 0 2.579-4.16 5.868-7.832 8.551-11.976 3.524-5.524 8.637-10.086 8.41-17.242-.14-4.47-4.058-9.762-9.117-9.086"/><path fill="#834935" d="M1756.45 1323.05c-5.973-4.472-14.9-.667-19.114 4.313-4.332 5.11-6.438 10.188-5.844 16.91.184 2.454 2.656 4.192 4.98 2.883a28.365 28.365 0 0 1 4.106-2.02c1.867-.734 3.781-2.269 5.39-2.937 4.864-1.957 10.696-3.547 13.216-8.71 1.964-4.083.789-7.79-2.735-10.438M1680.172 1428.766c-3.578.668-8.242.898-12.309 2.199-6.054 1.969-11.515 5.437-17.218 8.219-5.008 2.511-10.47 3.859-15.477 6.34-1.371.66-2.656 1.18-4.18 1.609-.672.18-1.39.281-2.05.383-.82.328-1.63.718-2.481 1.046-.277.2-.383.313-.633.481-2.808 1.41-4.406 4.32-4.652 7.441-1.328 16.848 24.703 12.508 33.746 9.93 15.34-4.32 34.344-11.851 34.8-30.39.137-5.239-4.87-8.149-9.546-7.258"/><path fill="#834935" d="M1679.512 1391.445c-1.883-2.222-6.23-2.246-8.114 0-6.101 7.336-5.968 17.88-5.625 27.051.41 10.422-.093 21.582 4.293 31.211.918 1.961 3.477 1.79 4.914.61 7.989-6.692 9.758-18.012 10.418-27.989.684-10.187 1.098-22.738-5.886-30.883"/><path fill="#834935" d="M1686.406 1344.094c-1.379-4.16-6.379-5.594-9.597-2.555-22.68 21.305-16.91 64.16 1.214 86.484 1.848 2.25 6.133 1.079 6.641-1.73 2.399-12.75 3.375-25.14 3.684-38.11.406-15.484 2.988-29.023-1.942-44.09"/><path fill="#834935" d="M1701.984 1326.066c-26.226 7.524-35.082 36.692-26.66 60.422.488 1.418 2.551 1.567 2.985 0 2.425-8.531 6.214-15.496 12.945-21.316 6.539-5.703 14.508-8.594 21.516-13.567 12.308-8.816 5.312-30.144-10.786-25.539M1604.398 1354.621c-5.52-5.16-10.859-7.312-18.058-9.633-6.461-2.097-13.13-6.488-19.621-2.117-2.25 1.508-3.14 3.75-2.598 6.379 1.559 7.89 10.668 10.629 17.16 13.488 8.48 3.73 15.758 4.09 23.117-1.867 1.84-1.48 1.602-4.723 0-6.25"/><path fill="#834935" d="M1621.078 1343.91c-8.098 4.828-14.95 8.531-24.547 8.82-8.86.23-17.472-6.57-25.75-9.039-1.152-.34-2.68.63-2.531 1.91 1.59 13.458 13.29 21.579 26.11 23.29 14.511 1.968 27.581-7.38 31.902-20.993.937-2.968-2.614-5.539-5.184-3.988"/><path fill="#834935" d="M1660.96 1296.82c-1.523-3.703-4.972-5.41-8.757-3.578-10.906 5.36-16.676 22.223-20.738 32.625-2.938 7.602-9.3 26.871-19.41 26.98-2.446.051-3.856 2.231-3.45 4.505 1.528 7.886 8.434 9.812 15.48 8.789 9.302-1.383 15.583-10.141 20.606-17.137 8.871-12.422 23.043-36.172 16.27-52.184"/><path fill="#834935" d="M1650.828 1291.25c-1.004-4.465-6.047-5.703-9.73-3.957-10.856 5.062-16.305 18.18-20.364 28.73-4.105 10.645-12.843 22.098-13.296 33.614-.165 3.265 3.011 5 5.87 4.523 12.208-2.152 20.485-16.527 26.696-26.125 6.746-10.43 13.664-24.074 10.824-36.785"/><path fill="#834935" d="M1676.246 1265.086c-7.453-4.61-14.668 4.93-19 9.84-6.039 6.844-10.887 14.668-14.71 22.937-2.048 4.364 3.722 7.817 6.48 3.774 5.117-7.43 11.113-13.985 18.132-19.703 3.317-2.75 17.832-11.403 9.098-16.848"/><path fill="#834935" d="M1691.016 1257.93c-12.985-8.344-29.426 4.062-37.094 14.422-7.2 9.699-10.45 19.816-8.274 31.859.211 1.137 1.836 1.512 2.586.7 5.313-6.056 12.41-11.575 18.973-16.173 3.27-2.343 7.336-4.676 11.043-6.261 5.504-2.293 10.617-2.575 15.004-7.2 5.043-5.312 3.836-13.46-2.238-17.347M1521.719 1386.32c-.559-2.492-4.09-4.07-6.23-2.511-9.348 6.77-11.27 17.52-10.118 28.351.36 3.88 5.129 19.668 12.059 16.32 13.968-6.84 6.64-30.699 4.289-42.16M1531.27 1396.91c-.36-.18-.461-.219-.641-.332-.23-.027-.43-.027-.84-.078.461.129.973.29 1.48.41"/><path fill="#834935" d="M1549.988 1371.09c-13.199-12.059-31.879-5.52-41.449 7.05-3.32 4.32-4.45 10.391-4.648 15.68-.051 2.89.609 5.39 1.738 8.02.101.23 2.55 3.941 1.55 1.512.54 1.378 1.262 2.68 2 3.976.84 1.594 3.09 1.082 3.622-.476 1.097-1.23.969-1.973-.281-2.223 1.53-.309 2.609-1.527 3.628-2.629 1.383-1.512 2.172-3.602 3.883-4.879 1.047-.793 4.008-1.793 2.559-1.61.558-.03 1.09-.03 1.629 0-.66.098 2.203.458 2.562.528 1.89.23 3.028.36 3.7.441-.31-.18-.231-.152.28.051.458.078.509.078.15.078.609.25 1.69.711 3.35 1.48 5.489.891 9.68 1.45 14.887-.968 11.082-5.09 8.332-19.16.84-26.031"/><path fill="#834935" d="M1530.48 1396.48c.02.02.13.07.149.098.082 0 .23.031.281.031a1.097 1.097 0 0 0-.148-.078c-.051-.031-.211-.031-.282-.05M1530.3 1384.48c-2.25.73-3.421 4.489-.769 5.641 14.719 6.277 25.469 15.809 36.598 27.05 1.36 1.4 3.96-.03 3.32-1.94-5.18-15.84-19.789-37.372-39.148-30.75"/><path fill="#834935" d="M1594.102 1422.328c-3.114-5.387-11.852-8.789-17.543-10.5-6.668-1.988-11.98-5.52-17.91-8.988-5.008-2.961-8.27-8-13.489-10.55-2.34-1.2-4.59-.099-5.539 2.222-4.031 9.957 5.54 23.27 11.91 30.187 8.957 9.711 25.25 20.492 38.64 12.64 5.24-3.058 7-9.85 3.93-15.01"/><path fill="#834935" d="M1616.84 1412.98c-1.442-2.3-3.73-2.968-6.262-2.558-4.629.75-7.11 4.957-10.578 8.816-3.04 3.32-7.988 3.852-12.23 3.75-3.32-.027-5.09 5.16-1.758 6.621 6.457 2.86 12.949 3.782 19.886 1.961 7.774-2.039 15.993-10.422 10.942-18.59M1667.73 1574.777c-4.406-1.863-9.066-1.172-13.675-.222-6.262 1.3-12.899.25-18.883-1.61-.602-.18-1.168.692-.652 1.121 7.71 6.309 25.363 15.63 33.867 5.918 1.218-1.449 1.402-4.308-.657-5.207M1485.191 1109.441c-.793-2.53-2.78-3.851-5.332-4.09-20.62-1.601-21.82 35.098-11.73 45.88 2.45 2.597 7.543 2.859 9.91 0 5.29-6.34 4.45-12.981 5.57-20.692.942-6.59 3.63-14.578 1.582-21.098"/><path fill="#040606" d="M2102.734 1522.094c-22.433 104.14-71.117 204.617-148.644 278.77-82.867 79.218-193.668 116.519-307.41 112.988-73.371-2.301-145.563-20.528-213.985-46.36-102.437-38.691-197.23-100.73-274.39-178.328-75.118-75.52-134.348-170.492-151.309-276.89-17.926-112.258 20.129-228.63 91.649-315.684 50.722-61.7 120.761-101.16 198.511-117.512 78.524-16.55 160.856-10.648 239.574 1.637-14.964 7.535-29.933 14.965-45.242 21.808-4.617 2.055-.586 8.844 3.992 6.778 58.692-26.442 114.75-63.676 179.864-72.063 30.468-3.926 60.965-6.07 91.722-4.46 52.309 2.734 103.856 16.417 149.774 41.84 87.605 48.55 145.023 136.023 174.5 229.917 32.027 102.02 33.77 213.399 11.394 317.559Zm-2.406-313.672c-27.879-93.543-83.012-180.703-167.148-232.914-43.211-26.848-92.352-42.52-142.774-48.383-28.86-3.363-58.086-3.27-87.011-.73-22.204 1.96-44.352 4.878-65.836 10.894-29.567 8.309-57.563 21.875-84.996 35.508-3.731 1.832-7.407 3.703-11.11 5.574-.183-.367-.535-.613-1.098-.746-92.968-16.04-190.515-22.07-281.93 5.77-94.987 28.914-167.237 97.257-213.32 183.847-50.57 95.074-62.066 203.75-30.187 306.711 31.156 100.61 98.59 187.27 176.777 256.078 78.032 68.73 169.946 121.32 268.266 154.961 66.094 22.602 135.668 36.7 205.703 36.602 111.621-.153 218.274-41.563 298.277-119.742 76.114-74.352 123.567-174.63 145.989-277.739 22.582-103.55 20.789-213.941-9.602-315.691"/><path fill="#040606" d="M2105.34 1237.383c-28.461-96.516-97.469-196.805-193.813-234.824-62.265-24.555-128.007-40.93-195.441-34.235-54.406 5.364-100.223 35.281-149.086 56.875-19.848 8.778-40.074 15.82-61.785 17.938-21.867 2.148-43.992-.84-65.574-4.262-38.383-6.035-76.547-14.332-115.496-7.898-1.149.207-.891 2.199.296 2.082 62.368-8.09 122.102 21.195 184.508 15.261 55.676-5.312 103.582-42.777 154.926-61.785 62.809-23.21 133.355-14.89 196.215 3.836 29.375 8.711 58.894 19.84 85.152 35.836 23.86 14.527 44.899 33.383 63.805 53.867 41.328 44.805 72.797 100.61 90.062 158.988 1.176 4.043 7.407 2.301 6.23-1.68M1330.512 1037.59c-29.832-14.07-67.32 3.91-93.793 17.93-38.867 20.59-74.117 48.199-107.008 77.242-28.82 25.437-55.941 52.097-74.461 86.199-24.441 45.039-33.48 97.32-34.25 148.09-.719 45.37 5.871 91.008 18.11 134.66 6.05 21.68 13.718 43.09 21.378 64.238 7.203 19.973 15.782 42.961 32.492 56.91 1.891 1.551 5.38-.57 3.668-2.82-17.207-22.418-27.628-47.25-36.617-73.89-8.281-24.34-16.71-48.348-22.48-73.45-12.461-54.23-15.43-111.16-6.211-166.148 8.148-48.531 27.59-95.531 61.48-131.723 27.739-29.629 59-56.27 91.52-80.457 23.37-17.39 48.07-33.41 74.66-45.36 21.91-9.863 47.3-17.39 71.262-10.8.36.098.61-.441.25-.621"/><path fill="#040606" d="M1794.91 1377.14c-21.457-57.956-60.476-108.648-102.906-152.808-19.078-19.879-39.762-37.96-60.664-55.89-18.613-15.95-37.95-33.118-59.41-45.258-27.578-15.684-81.778-26.336-85.688-64.676-.23-2.153-2.887-3.797-4.62-1.887-9.04 9.961-15.384 21.113-25.345 30.387-9.953 9.23-18.382 20.015-25.902 31.265-14.816 22.204-24.332 47.692-31.707 73.16-7.73 26.536-11.707 53.868-18.195 80.657-6.84 28.168-16.47 55.547-22.325 83.93-11.039 53.64.258 109.68 34.176 153.25 30.543 39.23 74.637 64.878 121.84 78.949a254.563 254.563 0 0 0 81.313 10.57c1.488-.02 1.488-2.219 0-2.289-109-4.762-227.7-67.66-236.051-188.32-2.067-29.66 5.222-58.95 13.172-87.285 7.797-27.657 14.93-55.09 20.648-83.258 11.242-55.532 28.223-112.543 71.871-151.418 6.953-6.153 11.262-14.25 16.781-21.5 8.399 34.863 55.301 46.824 83.293 61.12 26.41 13.505 49.403 35.497 71.594 54.845 24.367 21.191 47.656 43.183 69.215 67.293 22.148 24.77 42.074 51.527 58.934 80.171 14.316 24.372 27.632 51.403 32.476 79.489 8.027 45.972-5.043 97.82-29.625 136.902-20.27 32.238-49.855 47.262-86.508 54.691-42.16 8.56-85.746 6.918-127.882 15.938-.977.2-2.122 1.223-2.278 2.242-.222.238-.457.461-.687.719-3.88 1.402-2.2 7.629 1.71 6.21 2.22-.85 4.696-1.66 5.11-4.448-.125.867 16.227-1.891 17.934-2.141 16.273-2.45 32.765-3.648 49.136-5.11 28.91-2.53 58.055-5.421 85.746-14.48 42.547-13.98 67.84-50.55 82.399-91.191 14.96-41.711 17.926-88.04 2.445-129.828"/><path fill="#040606" d="M1445.809 1205.32c-10.778-23.261-25.489-48.191-2.809-69.492.809-.77-.309-2.328-1.23-1.59-18.57 13.98-16.91 33.801-8.758 53.41 7.277 17.551 27.59 44.82 7.539 60.633-2.461 1.918 1.02 5.418 3.469 3.457 15.53-12.68 8.992-30.86 1.789-46.418M1530.988 1269.41c-12.699-2.61-26.668 6-34.636 15.27-9.063 10.601-13.051 25.058-16.274 38.289-3.719 15.402-5.918 31.422-12.277 46.031-1.762 4.012-2.43 5.969-7.18 5.672-5.77-.363-11.57-1.82-17.191-3.102-8.25-1.832-16.27-4.34-24.7-3.949-.25 0-.351.43-.101.457 15.992 2.3 30.851 9.5 47.2 10.473.671.027 1.28-.41 1.593-.922 10.976-16.988 12.84-38.8 17.77-57.98 2.91-11.32 6.82-22.708 14.097-32.028 8.691-11.062 19.672-11.39 31.7-15.781 1.1-.39 1.331-2.149 0-2.43M1665.621 1268.64c-8.047 2.2-13.129 10.598-17.215 17.247-6.992 11.468-12.422 23.851-18.75 35.699-5.765 10.73-12.433 23.176-23.144 29.73-13.633 8.356-26.352-7.046-34.176-16.293-.461-.566-1.332.133-.961.747 5.969 10.015 15.094 21.25 27.836 21.187 10.117-.05 18.012-9.133 23.45-16.52 8.827-11.847 15.034-25.64 21.804-38.687 4.7-9.055 11.348-26.137 22.273-29.148 2.563-.696 1.485-4.649-1.117-3.961M1613.21 1188.36c.25-.02.25-.43 0-.462-9.76-2.109-22.25-.66-29.632 6.723-6.078 6.16-4.547 15.89-2.398 23.32 5.98 21.098 25.949 41.348 22.172 64.207-.153.98.867 1.66 1.628.98 11.598-10.14-6.46-37.07-11.18-46.589-4.698-9.527-10.421-20.129-10.269-31.008.23-14.812 19.489-14.64 29.68-17.172M1524.781 1144.23c.36-.03.36-.558 0-.558-8.652.02-19.66-.262-25.59 7.457-5.363 7-4.293 16.012-2.55 24.082 4.59 21.48 21.199 43.45 12.558 65.719-.277.718.66 1.43 1.301 1 13.672-9.25 0-36.578-4.05-47.489-3.68-9.91-7.872-20.351-8.18-31.03-.461-14.641 14.41-18.802 26.511-19.18M1581.379 1419.8c-11.8-6.21-17.848-16.628-24.617-27.59-4.852-7.839-10.633-14.78-19.871-17.21-9.532-2.5-21.512 1.86-27.2 9.879-7.77 10.941-6.82 23.832-2.812 36.043.082.308.543.207.45-.102-4.028-14.199-3.188-30.32 10.023-39.34 11.668-7.992 24.878-2.468 32.437 7.641 9.121 12.238 14.121 28.969 30.621 32.95 1.36.327 2.25-1.583.969-2.27M1707.664 1352.34c-26.465-6.875-23.195 38.34-22.879 52.437.324 14.364 1.371 29.73-3.324 43.524-6.39 18.777-26.59 15.148-41.691 10.547-.36-.098-.61.46-.274.64 11.004 4.782 27.043 9.809 37.512.922 9.254-7.87 10.68-21.41 11.34-32.723.922-15.546-.555-31.136.46-46.71.872-13.793 4.227-24.317 18.856-27.043.79-.188.715-1.414 0-1.594M1471.941 1517.059c-10.171-.66-22.402-1.989-25.113-13.707-4.95-21.743 17.98-36.403 36.73-37.832.512-.032.563-.872 0-.899-15.73-.2-31.468 5.848-38.57 20.668-4.437 9.172-4.136 22.961 4.14 29.8 7.923 6.49 20.59 6.083 30.192 6.54 14.48.742 27.02 2 35.86 14.59.59.82 1.73.3 1.582-.668-3.114-19-30.723-17.54-44.82-18.492M1602.172 1502.809c-4.64-9.887-16.652-11.598-25.742-7.82-11.11 4.652-17.27 17.933-19.34 28.991 0 .079.16.16.18.032 3.32-14.461 15.171-32.211 32.289-27.871 14.101 3.578 12.84 20.738 11.18 31.62-2.067 13.31-11.54 34.13-2.958 46.688.489.723 1.528.262 1.38-.558-4.9-23.32 13.788-48.5 3.01-71.082M1727.684 1479.16c-15.934 10.781-12.23 25.512-11.809 42.352.363 13.379-10.871 24.488-24.027 25-11.575.437-22.934-3.93-34.297-5.59-1.028-.18-1.38 1.14-.414 1.527 19.308 7.203 39.742 13.563 56.047-2.168 6.32-6.129 7.011-15.199 6.48-23.422-.89-14.328-1.812-25.16 8.941-36.527.563-.613-.21-1.633-.921-1.172M1436.46 1403.04c-16.14-3.142-37.288-3.981-53.081 3.12-23.5 10.55-11.29 36.828 2.25 50.719.77.75 1.941-.2 1.46-1.117-5.288-9.91-14.429-22.121-12.288-34.07 1.488-8.204 10.527-11.75 17.57-13.692 14.36-3.988 29.988-1.969 44.09-4.621.148-.059.148-.309 0-.34M1745.824 1393.668c-4.422-7.02-7.773-14-6.898-22.371.562-6.063.918-12.14 1.363-18.184.012-.496-.777-.593-.875-.11-2.219 10.372-5.644 20.813-2.27 31.216 2.27 7.05 7.047 13.277 10.852 19.539 6.152 10.16 7.59 20.05 5.871 31.672-.074.738.942 1.379 1.332.539 7.125-15.84-.941-28.84-9.375-42.301M1406.48 1225.68c-37.55 20.23 18.59 78.18-29.07 94.789-.36.101-.23.59.121.511 49.79-8.992 1.969-69.55 30.04-93.89.788-.719-.231-1.89-1.09-1.41"/></svg>