<?xml version="1.0" encoding="UTF-8"?><svg xmlns="http://www.w3.org/2000/svg" xmlns:xlink="http://www.w3.org/1999/xlink" height="85.4" preserveAspectRatio="xMidYMid meet" version="1.0" viewBox="-0.6 -0.3 121.6 85.4" width="121.6" zoomAndPan="magnify"><g data-name="7"><g id="change1_1"><path d="M119.66,74.15c-.82-3.14-1.49-6.18-2.57-9.2a76.42,76.42,0,0,1-2.72-10.09c-.71-3.29-1.72-6.45-2.42-9.75S110.4,38.4,109.54,35a98.1,98.1,0,0,1-1.85-11.81c-.42-3.26-.35-7.3-2.16-9.88a.76.76,0,0,0-1.33,0c-.45-.17-.9-.31-1.36-.45,0,0,0,0,0,0,0-2.77.27-5.69-.63-8.29A6.15,6.15,0,0,0,96.83.25c-2.2-.08-4.51,1.87-5.88,4a10.37,10.37,0,0,0-1.54,4.08,15.52,15.52,0,0,0-1.87-5.1A6.18,6.18,0,0,0,81.23.09a5.36,5.36,0,0,0-2.67,1.84,11.49,11.49,0,0,0-2.56,3,4.66,4.66,0,0,0-.27.74,18,18,0,0,0-2.3-2.86A5.61,5.61,0,0,0,70.66.85a5.25,5.25,0,0,0-3.44.64,9,9,0,0,0-4.81,5.56,15,15,0,0,0-.58,2.53,10.42,10.42,0,0,0-.25-2.32,24.36,24.36,0,0,0-.76-3.65A5.1,5.1,0,0,0,55.26.28a9.72,9.72,0,0,0-6.67,6.45,10.71,10.71,0,0,0-.8-1.83c-1-1.8-2.19-3.18-3.93-3.61A6.37,6.37,0,0,0,40,1.64a4.63,4.63,0,0,0-2.68,1.81A15.22,15.22,0,0,0,36,6a9.25,9.25,0,0,0-.79-2.09C34,1.67,32.1.46,30,.87a7.89,7.89,0,0,0-5.36,3.94,11.06,11.06,0,0,0-1,6.11c-1.43.07-2.87.13-4.31.13C18,11.06,18,13.3,19,13.57a1.3,1.3,0,0,0,0,.21c-.42,6.42-1.24,12.78-2.25,19.09-1,6-2,12-3.37,17.86A107.56,107.56,0,0,1,7.78,67c-1,2.35-2.18,4.56-3.21,6.88a38.52,38.52,0,0,1-1.84,3.56,17.18,17.18,0,0,1-1.68,3A1.26,1.26,0,0,0,.78,81a2.52,2.52,0,0,0-.48.45c-.93,1.14.48,3,1.42,1.82.55-.67,1.94-.48,2.65-.59,1.52-.23,3.05-.37,4.58-.49a42.38,42.38,0,0,1,8.79-.24A19.07,19.07,0,0,0,22,81.76a44.29,44.29,0,0,1,4.75-.07c3,0,6.05-.31,9.07-.24,6.08.13,12,2,18,2.51s12-.68,18.09-.24c3.24.24,6.34,1.38,9.58,1a6,6,0,0,1,2.36,0,7,7,0,0,0,2,.39,8.36,8.36,0,0,0,1.69-.42,9.2,9.2,0,0,1,2.77-.11,6.64,6.64,0,0,1,1.45-.86c.17-.19.33-.43.49-.65a.88.88,0,0,0,.29.07,33.76,33.76,0,0,0,5.12-.4,14.38,14.38,0,0,1,2.17-.14c.39,0,1.62-.47,1.93-.29a.86.86,0,0,0,1.15-.19c2.3-.45,4.44-1.69,6.81-1.65,2.53,0,5-.43,7.46.32,1.25.37,3,1.25,3.46-1.08C121,77.88,120.1,75.84,119.66,74.15ZM92.05,6.58c.88-1.69,2.6-3.42,4.19-3.73a4,4,0,0,1,4.14,2.67c.76,2.05.51,4.57.47,6.81a43,43,0,0,0-9.45-.85A7.53,7.53,0,0,1,92.05,6.58Zm-14.62.54A4.75,4.75,0,0,1,79.1,4.65a10.71,10.71,0,0,1,2-1.86,3.28,3.28,0,0,1,2.48,0,4.13,4.13,0,0,1,2.18,1.56,13.37,13.37,0,0,1,2.07,7.07c-3.62-.08-7.23-.41-10.84-.71a.59.59,0,0,0,0-.14A8.78,8.78,0,0,1,77.43,7.12ZM64,8.91a6.92,6.92,0,0,1,3.19-4.62,5.41,5.41,0,0,1,2.64-1,2.75,2.75,0,0,1,2,1A19.45,19.45,0,0,1,74,6.93a8,8,0,0,1,.79,3.64l-2-.13c-3-.18-6-.23-9-.24C63.83,9.77,63.9,9.34,64,8.91Zm-11.91-4a8.23,8.23,0,0,1,3-1.92,2.92,2.92,0,0,1,3,.52,3.81,3.81,0,0,1,1.37,2.85c.18,1.14.75,2.71.31,3.81-1.43,0-2.87,0-4.31-.06-1.79,0-3.59,0-5.39-.06A7.57,7.57,0,0,1,52.09,4.91ZM37.85,7.1a6.34,6.34,0,0,1,1.43-2.43,6.9,6.9,0,0,1,2.46-1,3.47,3.47,0,0,1,1.47,0A7.93,7.93,0,0,1,44,4l.28.1h0l0,0a5.26,5.26,0,0,1,1.17,1.26,8.82,8.82,0,0,1,1.21,2.25,6.65,6.65,0,0,1,.21.89.62.62,0,0,1,0,.27c0,.23,0,.11-.13.34a1.21,1.21,0,0,0-.14.88q-4.1,0-8.18.06c-.33,0-.65,0-1,0A5.26,5.26,0,0,1,37.85,7.1Zm-12.07.28A5.33,5.33,0,0,1,28.62,4a4.37,4.37,0,0,1,2.72-.64A2.72,2.72,0,0,1,33,4.49a6.07,6.07,0,0,1,1.21,5.13,1.39,1.39,0,0,0-.25.63c-2.79.16-5.59.39-8.38.56A9.39,9.39,0,0,1,25.78,7.38Z" fill="#866255"/></g><g id="change2_1"><path d="M106.27,62.22c0,2,.06,4.25-.11,6.4-.08,1.07-.2,2.13-.31,3.18s-.2,1.86-.28,2.8c0,.38,0,.83,0,1.31a8.16,8.16,0,0,1-.38,3.11.23.23,0,0,1,0,.13l-.08.23-.22.08a13.33,13.33,0,0,1-1.43.47l-.71.18.09-.73c.06-.51.16-1,.25-1.56s.13-.77.18-1.11c.13-1,.29-2.06.45-3.1l.16-1c.4-2.61.82-5.31,1.17-8h0c.08-.63.15-1.25.22-1.88l.06-.55Zm12.87,16.3a12.35,12.35,0,0,1-.27-1.25c-.08-.4-.15-.8-.25-1.17-.28-1-.52-2.07-.76-3.08-.29-1.28-.59-2.59-1-3.86s-.84-2.58-1.29-3.82A51.23,51.23,0,0,1,114,60.21c-.3-1.22-.58-2.45-.85-3.68-.38-1.74-.78-3.54-1.26-5.29-.62-2.2-1.1-4.51-1.57-6.74-.15-.73-.31-1.47-.47-2.2-.31-1.49-.71-3-1.09-4.39-.31-1.13-.61-2.27-.88-3.42l-1-4.48,0,4.6c0,3.12.1,6.24.16,9.35.08,4.74.17,9.64.19,14.47l0,2.26a86.42,86.42,0,0,1-.25,9.94c0,.49-.11,1-.16,1.47-.15,1.4-.31,2.86-.35,4.3l0,.47c0,.46,0,.91-.06,1.37l-.07.7.69-.17a10.42,10.42,0,0,1,2.93-.37c.71,0,1.4,0,2.09,0a19.35,19.35,0,0,1,5.26.34l.24.06a2.41,2.41,0,0,1,.81.28l1.34,1.2Z" fill="#a48c7e"/></g><g id="change3_1"><path d="M105.3,41.66h0c-.18,2.65-.28,5.26-.28,8a116.17,116.17,0,0,1-1.3,16.86c-.3,2.1-.62,4.21-.94,6.31l-.24,1.56q-.12.8-.27,1.62a34.31,34.31,0,0,0-.51,3.86l0,.41-.63.09a8.4,8.4,0,0,1-1.66.15c-.35,0-.7,0-1,.06l-1.51.17c-1,.12-2.12.24-3.2.3l-.83,0,.35-.75c.23-.49.44-1,.62-1.45a11.32,11.32,0,0,0,.37-1.28c.11-.42.21-.84.35-1.24a7.52,7.52,0,0,1,.93-1.68,7.61,7.61,0,0,0,.72-1.18c.39-.87.77-1.76,1.15-2.65.48-1.12,1-2.25,1.47-3.36a26.18,26.18,0,0,0,1.79-6,136.52,136.52,0,0,0,2-14.91c.13-1.46.23-2.93.34-4.4.08-1.11.16-2.21.25-3.32.1-1.31.26-2.63.41-3.9s.27-2.28.38-3.42l0-.24,1,0,.09,2.08c0,.65.06,1.28.1,1.92A53.14,53.14,0,0,1,105.3,41.66Zm-12,35.06a12.3,12.3,0,0,1-.83,2.33c-.13.26-.26.53-.38.8a10.45,10.45,0,0,1-1.39,2.38s0,0,0,0l-.15.23h-.28l-.65,0a9,9,0,0,0-1.56,0,5.69,5.69,0,0,0-.92.24,6.52,6.52,0,0,1-.72.21,3.39,3.39,0,0,1-.7.07,7,7,0,0,1-1.65-.26,5.38,5.38,0,0,0-1.65-.23c-.38,0-.76.08-1.13.13a8.61,8.61,0,0,1-3,0l-1.09-.22c-1.16-.25-2.27-.49-3.41-.63a59.86,59.86,0,0,0-10.54,0A77.44,77.44,0,0,1,55,82a68.65,68.65,0,0,1-9.19-1.28,66.33,66.33,0,0,0-9.32-1.29c-1.68-.06-3.4,0-5.07.11-1.38.07-2.82.14-4.23.12H26c-1.07,0-2.18,0-3.25,0-.47,0-.94.08-1.41.13a15.88,15.88,0,0,1-3.66.08A37.29,37.29,0,0,0,9.5,80l-1.65.15c-.9.08-1.79.2-2.69.31l-1.38.17-.88.1.37-.8.22-.46.1-.22c.27-.55.57-1.07.87-1.6s.67-1.18,1-1.8l1-2.19c.8-1.68,1.63-3.42,2.4-5.15a103.51,103.51,0,0,0,5.82-16.66c1.55-6.29,2.63-12.83,3.6-19,1.11-7,1.84-13.3,2.22-19.14l0-.18v-.49H21c.8,0,1.59-.05,2.38-.09l1-.06.1.41A18.14,18.14,0,0,0,26.26,18a.73.73,0,0,0,.41.38.28.28,0,0,0,.23-.07,1.05,1.05,0,0,0,.22-1.12,17.73,17.73,0,0,1-1.58-3.76l-.17-.59,3-.21c2.46-.17,5-.35,7.54-.43l.43,0,.08.43A15.67,15.67,0,0,0,37.28,16a7.43,7.43,0,0,0,.92,1.74c.1.13.2.25.31.37s.2.21.29.32l.1.13.12.15a1,1,0,0,1,.19.39h0l.11.41a.52.52,0,0,0,.48.32c.28,0,.44-.29.41-.72a3.54,3.54,0,0,0-1.13-2.3,7,7,0,0,1-1.38-2.87c-.1-.36-.17-.75-.24-1.14l-.11-.58.58,0c3.44-.07,6.92,0,10.29,0h.42l.08.41a17.77,17.77,0,0,0,3,7.13c.06.07.18.2.27.19s.29-.15.4-.4a1,1,0,0,0-.07-1,15.72,15.72,0,0,1-2.51-5.69l-.14-.61,3.28,0c1.41,0,2.85.06,4.23.11s2.81.11,4.21.11h.88l.06.43a8,8,0,0,0,.49,1.9,10.92,10.92,0,0,0,5.53,5.62s.05,0,.13,0a.83.83,0,0,0,.39-.55.9.9,0,0,0-.44-1,10.38,10.38,0,0,1-4.34-4A6,6,0,0,1,63.38,13l-.14-.59,1.26,0c1.82,0,3.69-.07,5.54,0,1.57.08,3.21.21,5.32.42l.36,0,.17.75c0,.16.07.31.11.46a6.55,6.55,0,0,0,2,3.44A8.8,8.8,0,0,0,82,19.8c.33.07.56-.11.65-.51a1.18,1.18,0,0,0-.16-.84c-.06-.1-.12-.14-.15-.14a7.2,7.2,0,0,1-3.13-1.64,5.68,5.68,0,0,1-2-2.52c-.06-.19-.11-.37-.15-.55l-.16-.68.69.07c3.23.31,6.38.6,9.49.6h3.35l.12.33a13.31,13.31,0,0,0,4.13,5.86c.15.12.23.09.25.08a.84.84,0,0,0,.39-.65,1,1,0,0,0-.26-.88,12.21,12.21,0,0,1-3.12-4l-.36-.74h.81a33.33,33.33,0,0,1,11.62,1.78l.36.13,0,.38c0,.41-.09.82-.14,1.23-.08.68-.17,1.39-.19,2.08,0,1.49-.07,3.24-.27,5-.15,1.42-.26,2.87-.36,4.28s-.22,3-.39,4.54c-.35,3.13-.62,6.33-.87,9.42s-.53,6.3-.88,9.44c-.31,2.72-.76,5.52-1.42,8.8l-.09.47a23.24,23.24,0,0,1-1,3.92,29.49,29.49,0,0,1-1.25,2.79c-.17.35-.34.7-.5,1.06-.29.61-.55,1.27-.79,1.9s-.39,1-.61,1.49a8.76,8.76,0,0,1-.89,1.54,7.31,7.31,0,0,0-.89,1.62C93.56,75.92,93.44,76.32,93.33,76.72Zm-5.09-2.6.11-.15A17.4,17.4,0,0,0,90,70.77l.48-1.11h0a55.28,55.28,0,0,0,2.41-6.45c1.46-4.66,2.59-9.48,3.63-14A65.31,65.31,0,0,0,98.1,35.06c0-1.21.09-2.41.16-3.57,0-.82.11-1.63.14-2.45s-.12-2.3-1.45-2.56a10.12,10.12,0,0,0-2.86,0c-.47,0-.93.08-1.37.09-1.19,0-2.39.17-3.56.29-.84.09-1.68.18-2.52.23-4.11.3-8.28.25-12.17.15-2,0-4-.18-6-.31s-3.73-.24-5.59-.3c-4.45-.12-8.4-.11-12.09,0-7.89.29-15.93.28-23.71.28H23.89a.31.31,0,0,0-.24.1,1.1,1.1,0,0,0-.22.73v.19l-.13.15a.72.72,0,0,0-.16.4c-.28,2.69-.71,5.38-1.12,8-.19,1.23-.39,2.47-.57,3.71l0,.1a103.82,103.82,0,0,1-2.11,11.29c-1,3.81-2.28,7.39-3.37,10.4-.47,1.3-1,2.56-1.53,3.78l-.56,1.34c-.11.24-.2.49-.29.74A11.52,11.52,0,0,1,13,69.13l-.2.38a4.39,4.39,0,0,0-.56,1.42.86.86,0,0,1,0,.16l-.06.36-.36.06c-.29,0-.43.5-.4.89,0,.07.06.65.45.65,11.09,0,20.34.06,29.94.81,2.05.15,4.09.32,6.13.49,7.69.64,15.64,1.3,23.48,1.24h1c1.15,0,2.31,0,3.46,0l3.44,0c1.46,0,2.94-.1,4.37-.21s2.72-.19,4.09-.21a.31.31,0,0,0,.25-.11,1.13,1.13,0,0,0,.21-.8Z" fill="#dbcbbb"/></g><g id="change4_1"><path d="M47,35.65h.58l-.08.58c-.31,2.12-.7,4.36-1.25,7l-.07.39h-.4c-2.39.08-4.76.17-7.13.23l-3.77.1.14-.62c.47-2.24.89-4.62,1.26-7.06l.06-.42h1.71C40.67,35.72,43.51,35.66,47,35.65Zm38.41.18c-1.58.07-3.16.12-4.74.16s-2.88.06-4.33.06h-.45l0,.44c-.2,1.94-.38,3.56-.62,5.2-.06.43-.12.85-.2,1.32l-.09.56h.57c1.71.06,3.39.1,5.08.1.58,0,1.17,0,1.76,0l2.82,0,.06-.43c.31-2.35.55-4.65.7-6.84l0-.56ZM70.05,58.29l.59.05-.15.57c-.37,1.41-.75,2.81-1.17,4.21-.51,1.74-1.1,3.51-1.79,5.41-.09.26-.19.53-.3.8A9.28,9.28,0,0,0,66.37,73a1.19,1.19,0,0,0,.08.34l.24.67H66c-3,0-5.37-.12-7.54-.29l-3.16-.25L53,73.23l.25-.63a144.77,144.77,0,0,0,5-14.89l.11-.41.41,0q3.25.25,6.51.54ZM60.93,65l-.2.2a13.13,13.13,0,0,0-1.12,1.29c-.22.3-.43.61-.65.92s-.62.92-1,1.35A1.13,1.13,0,0,0,58,70a.42.42,0,0,0,.31.18h0a.43.43,0,0,0,.32-.19c.34-.42.67-.9,1-1.36.18-.27.37-.55.56-.81s.46-.57.68-.82l.51-.59.33.7A8.32,8.32,0,0,0,62.83,69a.45.45,0,0,0,.36.18.36.36,0,0,0,.27-.16,1.13,1.13,0,0,0,0-1.21c-.15-.18-.3-.39-.44-.59L63,67.13c-.07-.13-.12-.2-.16-.29l-.2-.41a3.17,3.17,0,0,1-.16-.37l-.19-.47.25-.23a20.27,20.27,0,0,0,2.82-3,1.14,1.14,0,0,0,0-1.23.43.43,0,0,0-.34-.18.35.35,0,0,0-.28.17,15.94,15.94,0,0,1-2.29,2.53l-.62.58-.21-.82c-.2-.8-.39-1.59-.56-2.39a.8.8,0,0,0-.36-.53l-.12,0-.07,0a.89.89,0,0,0-.41,1l.1.45c.21.93.42,1.9.69,2.83Z" fill="#deaf5f"/></g><g id="change5_1"><path d="M40.05,34.17l-3.48.19.08-.6c.25-1.91.44-3.49.58-5l0-.45,2.21,0c2.3,0,4.59-.06,6.87-.06h1.86l0,.53c-.06,1.56-.17,3.12-.35,4.77l-.05.44h-.44C44.92,34,42.46,34.07,40.05,34.17Zm7.18,9.44.63,0c4.73-.14,8.35-.22,11.73-.25H60l.06-.43c.28-2.11.53-4.24.76-6.53l.06-.54h-.54q-4.12-.12-8.24-.17l-3.53,0-.06.44c-.31,2.23-.7,4.56-1.18,6.93Zm-18.5-9.35c1.09.06,2.17.12,3.26.15h0c.37,0,.74,0,1.11,0,.7,0,1.38,0,2,0l.42,0,.06-.42c.23-1.65.43-3.35.6-5l.06-.56h-.7c-3.61.05-7.33.09-11,.09h-.5V29c0,.05,0,.09,0,.09-.17,1.58-.39,3.14-.59,4.46l-.08.58H24C25.57,34.09,27.18,34.17,28.73,34.26Zm5.8,11.31-.08.37c-.42,1.8-.84,3.49-1.3,5.15-.21.75-.44,1.5-.67,2.26L32,54.88l.78,0q1.7,0,3.39,0h7.35l.33-1.28c.21-.84.43-1.68.63-2.53l.09-.38c.37-1.61.75-3.25,1.12-4.91l.14-.63-.64,0-10.28.3Zm34-11.21q3.06.06,6.1.07h.46l0-.46c.15-1.47.31-2.95.5-4.42l.29-.79-.7,0c-2.54-.06-4.75-.16-6.76-.29-1.66-.12-3.42-.19-5.37-.24h-.47l0,.47c-.15,1.67-.3,3.34-.46,5l0,.53,2.53.06ZM75.1,45.19l-.43,0-.08.43c-.35,2-.8,4.17-1.41,6.83-.31,1.31-.63,2.62-1,3.92l-.15.58.6,0c2.15.16,4.7.34,7.28.42.69,0,1.39,0,2.07,0h.39l.1-.37c1-3.78,1.76-7.57,2.34-11.27l.09-.59-3.83.07C79,45.3,76.88,45.25,75.1,45.19Zm1-11.3-.06.55h.55c2.35,0,4.27,0,6-.09l3-.11h.45l0-.46c.07-1.47.1-3,.1-4.66v-.53l-.52,0c-2.85.15-5.71.21-8.75.16h-.79l.33.72a1.13,1.13,0,0,1,.1.65C76.4,31.38,76.26,32.64,76.13,33.89Zm-15.54.29.47,0,.56-6h-.54c-3.16,0-6.37,0-9.48,0l-2.39,0,0,.48c0,1.48-.16,3-.33,4.7L48.8,34h.55C53.1,34,56.91,34.1,60.59,34.18Zm-37.34,10c3,0,6.3,0,10.19-.15h.39l.08-.38c.5-2.27,1-4.67,1.34-7.13l.09-.57h-.58c-1.73,0-3.5-.06-5.2-.12s-3.76-.13-5.65-.12l-.7-.23-.13.84c-.25,1.57-.49,3.15-.73,4.72l-.48,3.15h1.38ZM61,43.32h.57c2,0,4.1,0,6.14,0s3.82.1,5.73.17l.43,0,.08-.43c.11-.65.21-1.31.31-2,.23-1.63.4-3.21.54-4.55l.06-.55h-.55c-4.29,0-8.47-.11-12-.19l-.47,0,0,.46c-.21,2.06-.45,4.27-.73,6.45ZM92.28,58.75l.83-.2-.23.82c-.06.21-.12.42-.17.62a63.45,63.45,0,0,1-2.44,7.31c-.29.69-.61,1.37-.92,2l-.4.85c-.12.26-.22.52-.33.78a8.07,8.07,0,0,1-1.14,2.15,1.47,1.47,0,0,0-.12.23l-.12.31h-.32c-.9,0-1.8.11-2.69.18-1.21.09-2.45.19-3.69.2-.62,0-1.23,0-1.86,0L76,74l-2.65,0H67.16l.17-.62a1.18,1.18,0,0,0,0-.35,9.76,9.76,0,0,1,1-3.9c.18-.42.35-.82.48-1.2C69.5,66.18,70,64.44,70.45,63s.77-2.76,1.14-4.14l.11-.41.41,0q3,.24,6,.44c1.07.06,2.14.12,3.23.14l.64,0-.18.62c-1.05,3.7-2.26,7.3-3.59,10.7a1,1,0,0,0,.09,1,.55.55,0,0,0,.4.28c.16,0,.27-.25.3-.33a122.65,122.65,0,0,0,4-11.89l.1-.36h.37c1,0,1.79-.08,2.57-.17l.17,0a10.5,10.5,0,0,1,3.58,0h.08a4.48,4.48,0,0,0,1.42.17,3.65,3.65,0,0,0,.59-.15Zm-2.66.59ZM94.2,45.42l-.91-.06c-.79,0-1.58,0-2.38-.07l-1.46,0c-.85,0-1.7,0-2.55,0H86l-.07.43c-.57,3.72-1.33,7.47-2.26,11.14l-.16.65.67,0c1.06,0,2-.11,2.83-.2a9.1,9.1,0,0,1,3.07.16,4,4,0,0,0,1.79-.1,3.29,3.29,0,0,1,1.06-.12l.53.24.16-.56c.93-3.42,1.87-7.09,2.49-10.76l.11-.65-.66.07A6.69,6.69,0,0,1,94.2,45.42Zm3.16-16.91c-.3-.72-1.27-.58-1.91-.5l-.25,0c-.68,0-1.36.06-2,.08-.91,0-1.86.05-2.79.15s-1.81.15-2.72.21l-.47,0V29c0,1.65,0,3.18-.09,4.67l0,.54,2.69-.08c1.42,0,2.85.07,4.24.17.86.07,1.72.13,2.6.16l.51,0v-.52c0-.76,0-1.65.06-2.53,0-.15.06-.39.1-.66A4.75,4.75,0,0,0,97.36,28.51ZM94,35.87c-1.7-.1-3.46-.21-5.28-.16-.42,0-.83,0-1.25,0l-.45,0,0,.45c-.16,2.27-.39,4.57-.69,6.84l-.08.56h.57c.9,0,1.78,0,2.67,0l1.45.06c.8,0,1.61.06,2.41.07a6.21,6.21,0,0,1,.7.06c.3,0,.62.07.93.07h.27l.15-.22c.21-.31.37-.23.45-.19l.63.32.09-.7c.26-1.9.42-3.48.53-5,0-.55,0-1.1.06-1.65V36h-.49C95.73,36,94.84,35.93,94,35.87ZM71,56.84l.3-1.19c.25-1,.51-2,.75-3.08.57-2.42,1-4.67,1.46-6.86l.1-.57-1.47-.06c-1.88-.07-3.76-.14-5.64-.17-1.26,0-2.51,0-3.77,0H60.81l-.06.43c-.31,2.08-.66,4.12-1,6.06-.28,1.32-.58,2.62-.9,3.92l-.14.56.58.05c1.91.18,4,.37,6,.5l3.58.26ZM28.25,62.61l.34-.89c.52-1.38,1.05-2.91,1.64-4.67l.21-.63-.67,0c-3.34-.13-6.64-.36-10-.62l-.5-.2-.16.51c-.63,2-1.3,4-2,6L17,62.3c-.58,1.58-1.17,3.21-1.86,4.73-.22.47-.41,1-.6,1.45l-.35.86a5.17,5.17,0,0,1-.34.66,8.46,8.46,0,0,0-.41.79l-.29.69h.75c3.29,0,7.17,0,11.05.07h.43l.07-.42A19.64,19.64,0,0,1,26.31,68c.13-.38.26-.74.38-1.1C27.16,65.47,27.72,64,28.25,62.61Zm13.31-.92c.47-1.5.92-3,1.36-4.54l.18-.63H39.16c-1.64,0-3.28,0-4.93,0q-.87,0-1.74,0l-1,0-.11.36c-.56,1.71-1.1,3.29-1.65,4.81l-.74,2c-.44,1.14-.89,2.32-1.29,3.51-.1.3-.21.62-.33.94A28.7,28.7,0,0,0,26.5,71l-.14.59.61,0c.38,0,.77,0,1.16,0h.58c2.47.06,5.18.18,8.53.39l.29,0,.16-.24A31.79,31.79,0,0,0,41,63.52C41.19,62.9,41.37,62.29,41.56,61.69Zm-11-6.87.38,0,.44-1.44c.23-.72.46-1.45.67-2.18h0c.4-1.46.81-3,1.28-5l.15-.63-.65,0c-4.24.1-7.67.14-10.79.12H21.6l-.07.42c-.38,2.22-.79,4.13-1.25,5.83-.08.31-.17.62-.26.93l-.36,1.31.61,0C24.1,54.53,27.46,54.72,30.55,54.82Zm29.16-9.34.09-.58h-.59c-2.54,0-5.1.08-7.64.15l-4.67.15-.08.38c-.45,2.08-1,4.24-1.51,6.59-.18.73-.37,1.46-.56,2.18l-.16.61h.63c2.24.05,3.94.12,5.53.22,2.08.15,4.2.35,6.25.54l.61.05.1-.41c.43-1.72.76-3.13,1-4.46C59.08,49.28,59.4,47.51,59.71,45.48ZM48.86,56.66c-1.35-.07-2.75-.11-4.3-.14h-.38l-.11.37c-.65,2.33-1.35,4.64-2.07,6.87l-.34,1.09a46,46,0,0,1-2.45,6.58l-.34.67.75.05c3.94.29,8,.63,11.82,1l.76.06,0-.57a1.31,1.31,0,0,1,.07-.44A140.37,140.37,0,0,0,57.08,57.8l.16-.59-.61,0C54,57,51.42,56.79,48.86,56.66Z" fill="#eae5d9"/></g><g id="change1_2"><path d="M119.66,74.15c-.82-3.14-1.49-6.18-2.57-9.2a76.42,76.42,0,0,1-2.72-10.09c-.71-3.29-1.72-6.45-2.42-9.75S110.4,38.4,109.54,35a98.1,98.1,0,0,1-1.85-11.81c-.42-3.26-.35-7.3-2.16-9.88a.76.76,0,0,0-1.33,0c-.45-.17-.9-.31-1.36-.45,0,0,0,0,0,0,0-2.77.27-5.69-.63-8.29A6.15,6.15,0,0,0,96.83.25c-2.2-.08-4.51,1.87-5.88,4a10.37,10.37,0,0,0-1.54,4.08,15.52,15.52,0,0,0-1.87-5.1A6.18,6.18,0,0,0,81.23.09a5.36,5.36,0,0,0-2.67,1.84,11.49,11.49,0,0,0-2.56,3,4.66,4.66,0,0,0-.27.74,18,18,0,0,0-2.3-2.86A5.61,5.61,0,0,0,70.66.85a5.25,5.25,0,0,0-3.44.64,9,9,0,0,0-4.81,5.56,15,15,0,0,0-.58,2.53,10.42,10.42,0,0,0-.25-2.32,24.36,24.36,0,0,0-.76-3.65A5.1,5.1,0,0,0,55.26.28a9.72,9.72,0,0,0-6.67,6.45,10.71,10.71,0,0,0-.8-1.83c-1-1.8-2.19-3.18-3.93-3.61A6.37,6.37,0,0,0,40,1.64a4.63,4.63,0,0,0-2.68,1.81A15.22,15.22,0,0,0,36,6a9.25,9.25,0,0,0-.79-2.09C34,1.67,32.1.46,30,.87a7.89,7.89,0,0,0-5.36,3.94,11.06,11.06,0,0,0-1,6.11c-1.43.07-2.87.13-4.31.13C18,11.06,18,13.3,19,13.57a1.3,1.3,0,0,0,0,.21c-.42,6.42-1.24,12.78-2.25,19.09-1,6-2,12-3.37,17.86A107.56,107.56,0,0,1,7.78,67c-1,2.35-2.18,4.56-3.21,6.88a38.52,38.52,0,0,1-1.84,3.56,17.18,17.18,0,0,1-1.68,3A1.26,1.26,0,0,0,.78,81a2.52,2.52,0,0,0-.48.45c-.93,1.14.48,3,1.42,1.82.55-.67,1.94-.48,2.65-.59,1.52-.23,3.05-.37,4.58-.49a42.38,42.38,0,0,1,8.79-.24A19.07,19.07,0,0,0,22,81.76a44.29,44.29,0,0,1,4.75-.07c3,0,6.05-.31,9.07-.24,6.08.13,12,2,18,2.51s12-.68,18.09-.24c3.24.24,6.34,1.38,9.58,1a6,6,0,0,1,2.36,0,7,7,0,0,0,2,.39,8.36,8.36,0,0,0,1.69-.42,9.2,9.2,0,0,1,2.77-.11,6.64,6.64,0,0,1,1.45-.86c.17-.19.33-.43.49-.65a.88.88,0,0,0,.29.07,33.76,33.76,0,0,0,5.12-.4,14.38,14.38,0,0,1,2.17-.14c.39,0,1.62-.47,1.93-.29a.86.86,0,0,0,1.15-.19c2.3-.45,4.44-1.69,6.81-1.65,2.53,0,5-.43,7.46.32,1.25.37,3,1.25,3.46-1.08C121,77.88,120.1,75.84,119.66,74.15ZM92.05,6.58c.88-1.69,2.6-3.42,4.19-3.73a4,4,0,0,1,4.14,2.67c.76,2.05.51,4.57.47,6.81a43,43,0,0,0-9.45-.85A7.53,7.53,0,0,1,92.05,6.58Zm-14.62.54A4.75,4.75,0,0,1,79.1,4.65a10.71,10.71,0,0,1,2-1.86,3.28,3.28,0,0,1,2.48,0,4.13,4.13,0,0,1,2.18,1.56,13.37,13.37,0,0,1,2.07,7.07c-3.62-.08-7.23-.41-10.84-.71a.59.59,0,0,0,0-.14A8.78,8.78,0,0,1,77.43,7.12ZM64,8.91a6.92,6.92,0,0,1,3.19-4.62,5.41,5.41,0,0,1,2.64-1,2.75,2.75,0,0,1,2,1A19.45,19.45,0,0,1,74,6.93a8,8,0,0,1,.79,3.64l-2-.13c-3-.18-6-.23-9-.24C63.83,9.77,63.9,9.34,64,8.91Zm-11.91-4a8.23,8.23,0,0,1,3-1.92,2.92,2.92,0,0,1,3,.52,3.81,3.81,0,0,1,1.37,2.85c.18,1.14.75,2.71.31,3.81-1.43,0-2.87,0-4.31-.06-1.79,0-3.59,0-5.39-.06A7.57,7.57,0,0,1,52.09,4.91ZM37.85,7.1a6.34,6.34,0,0,1,1.43-2.43,6.9,6.9,0,0,1,2.46-1,3.47,3.47,0,0,1,1.47,0A7.93,7.93,0,0,1,44,4l.28.1h0l0,0a5.26,5.26,0,0,1,1.17,1.26,8.82,8.82,0,0,1,1.21,2.25,6.65,6.65,0,0,1,.21.89.62.62,0,0,1,0,.27c0,.23,0,.11-.13.34a1.21,1.21,0,0,0-.14.88q-4.1,0-8.18.06c-.33,0-.65,0-1,0A5.26,5.26,0,0,1,37.85,7.1Zm-12.07.28A5.33,5.33,0,0,1,28.62,4a4.37,4.37,0,0,1,2.72-.64A2.72,2.72,0,0,1,33,4.49a6.07,6.07,0,0,1,1.21,5.13,1.39,1.39,0,0,0-.25.63c-2.79.16-5.59.39-8.38.56A9.39,9.39,0,0,1,25.78,7.38ZM92.05,78.82a15.23,15.23,0,0,1-1.7,3.08.53.53,0,0,0-.06.1A15.79,15.79,0,0,0,88,82a16.39,16.39,0,0,0-1.7.46c-1.3.28-2.59-.53-3.92-.43a14.08,14.08,0,0,1-4,.18c-1.52-.31-3-.67-4.54-.86-6.28-.77-12.52.44-18.8.13s-12.28-2.31-18.51-2.57c-3.11-.12-6.21.26-9.32.23-1.5,0-3-.08-4.51,0a26,26,0,0,1-5,.21c-3.32-.41-6.62,0-9.94.34-1.36.12-2.72.32-4.08.48.1-.22.21-.44.32-.67.57-1.17,1.28-2.21,1.83-3.41C7,73.64,8.22,71.21,9.31,68.74A103.78,103.78,0,0,0,15.16,52c1.53-6.22,2.6-12.65,3.61-19S20.57,20.23,21,13.78c0-.08,0-.14,0-.21,1,0,2-.08,3-.13a18.75,18.75,0,0,0,1.85,4.82c.32.57.87.84,1.37.47A1.53,1.53,0,0,0,27.55,17,17,17,0,0,1,26,13.31c3.29-.22,6.57-.49,9.87-.6a16.9,16.9,0,0,0,.92,3.42,7.75,7.75,0,0,0,1,1.87c.19.24.41.46.61.7s.15.2.23.29a.45.45,0,0,1,.08.18.17.17,0,0,1,0-.08c.11,1.61,2.08,1.61,2,0a4.05,4.05,0,0,0-1.26-2.6,6.63,6.63,0,0,1-1.27-2.67c-.1-.36-.17-.74-.24-1.12,3.43-.07,6.85-.05,10.28,0A18.18,18.18,0,0,0,51.28,20c.87,1.23,2.28-.6,1.41-1.82a15.3,15.3,0,0,1-2.43-5.5l2.65,0c2.81,0,5.63.21,8.44.22h.45a8.74,8.74,0,0,0,.52,2,11.61,11.61,0,0,0,5.77,5.88c.51.26,1.1-.28,1.23-.9a1.38,1.38,0,0,0-.7-1.58,9.85,9.85,0,0,1-4.13-3.77,5.74,5.74,0,0,1-.63-1.67c2,0,4.1-.1,6.15,0,1.77.1,3.53.25,5.3.42.07.29.13.59.2.87a7.06,7.06,0,0,0,2.19,3.69,9.22,9.22,0,0,0,4.16,2.45,1,1,0,0,0,1.23-.9c.14-.61-.17-1.48-.7-1.58a6.83,6.83,0,0,1-2.91-1.53A5.28,5.28,0,0,1,77.59,14c0-.16-.1-.33-.14-.5,3.18.31,6.36.6,9.53.61h3a13.76,13.76,0,0,0,4.29,6.08c1.09.9,2.09-1.33,1-2.22a11.86,11.86,0,0,1-3-3.85,33,33,0,0,1,11.45,1.74c-.1,1.11-.31,2.22-.33,3.35,0,1.69-.09,3.32-.27,5-.31,2.93-.43,5.89-.75,8.82-.7,6.27-1,12.59-1.75,18.86-.34,3-.83,5.85-1.41,8.76a26.89,26.89,0,0,1-1.07,4.31c-.49,1.32-1.15,2.55-1.74,3.81S95.51,71,95,72.15s-1.36,2-1.8,3.19A25.4,25.4,0,0,1,92.05,78.82Zm10-4.54c-.26,1.75-.69,3.68-.78,5.53l-.21,0c-.91.19-1.79.11-2.71.21-1.57.16-3.11.38-4.68.47.23-.5.45-1,.63-1.48.31-.81.44-1.71.73-2.53.37-1.06,1.17-1.8,1.63-2.82.89-2,1.71-4,2.62-6a27.29,27.29,0,0,0,1.83-6.1,137.62,137.62,0,0,0,2.05-15c.23-2.57.38-5.15.59-7.72s.57-4.87.79-7.32c0-.07,0-.14,0-.22l.09,2.08a74.4,74.4,0,0,1,.16,8.18c-.19,2.69-.28,5.32-.28,8a117.39,117.39,0,0,1-1.3,16.78C102.85,69,102.44,71.66,102,74.28Zm3.62-5.7c-.16,2-.42,4-.59,6-.11,1.23.12,3.17-.37,4.26,0,.06,0,.12,0,.18-.46.17-.92.33-1.38.45.11-.91.32-1.87.43-2.67.17-1.31.38-2.61.58-3.92.42-2.73.84-5.45,1.2-8.19.11-.81.19-1.62.28-2.44C105.81,64.35,105.82,66.47,105.66,68.58Zm11.74,9.63c-2.54-.62-4.93-.29-7.47-.32a11.57,11.57,0,0,0-3.06.39c.06-.62.06-1.25.08-1.87.06-1.92.32-3.83.51-5.74a111.25,111.25,0,0,0,.23-12.25c0-8-.25-15.88-.35-23.82.61,2.62,1.41,5.16,2,7.8.65,3,1.22,6,2,9s1.37,6,2.11,9,2.05,5.94,3,9c.68,2.26,1.09,4.64,1.72,6.93.21.77.3,1.68.53,2.43A3.41,3.41,0,0,0,117.4,78.21ZM98.6,35.06c0-2,.22-4,.29-6,.06-1.65-.56-2.81-1.84-3.07a19.8,19.8,0,0,0-4.35.07c-2,.06-4.06.38-6.1.52-4,.29-8.09.25-12.12.15-3.87-.09-7.72-.5-11.59-.61-4-.11-8.08-.13-12.12,0-8.94.32-17.93.27-26.88.27-.66,0-1,.68-1,1.35a1.16,1.16,0,0,0-.28.68c-.41,3.92-1.12,7.77-1.69,11.66a104.45,104.45,0,0,1-2.12,11.34c-1,3.57-2.11,6.93-3.35,10.35-.64,1.75-1.38,3.4-2.09,5.1-.28.67-.49,1.39-.82,2a6.22,6.22,0,0,0-.81,1.94c0,.06,0,.11,0,.17-1.14.18-1.11,2.54.13,2.54,10,0,19.94,0,29.9.8s19.73,1.81,29.65,1.73c2.64,0,5.27,0,7.9,0,2.83,0,5.64-.39,8.46-.42.7,0,1-.76,1-1.45a26.36,26.36,0,0,0,2.14-4.4,55.52,55.52,0,0,0,2.43-6.51C94.75,58.79,95.88,54,97,49.3A65.74,65.74,0,0,0,98.6,35.06ZM76.9,29.27c2.93,0,5.85,0,8.78-.17,0,1.55,0,3.1-.1,4.64l-2.94.11c-2,.07-4,.09-6,.09.13-1.25.27-2.51.42-3.76A1.59,1.59,0,0,0,76.9,29.27ZM75.72,41.76c.25-1.73.44-3.47.62-5.21,1.45,0,2.89,0,4.34-.06s3.16-.1,4.75-.17c-.16,2.29-.4,4.56-.7,6.81l-2.39,0c-2.28,0-4.55,0-6.82-.08C75.59,42.65,75.66,42.21,75.72,41.76Zm8.63,4C83.76,49.51,83,53.26,82,56.93c-.68,0-1.37,0-2,0-2.42-.08-4.85-.24-7.27-.42q.49-2,1-3.93c.52-2.27,1-4.55,1.42-6.86,2,.07,4,.12,6,.09Zm-21.29-17c1.78,0,3.57.11,5.35.23,2.26.15,4.52.24,6.78.3a1,1,0,0,0-.07.24c-.19,1.48-.35,3-.5,4.44q-3,0-6.09-.08l-5.93-.12C62.76,32.06,62.91,30.39,63.06,28.72Zm-.72,7.63c4,.1,8,.18,12,.19-.16,1.52-.33,3-.54,4.54-.1.65-.2,1.3-.31,2-1.91-.07-3.82-.14-5.73-.18s-4.1,0-6.15,0C61.89,40.67,62.12,38.51,62.34,36.35Zm4.18,9.06c2.17,0,4.35.12,6.52.2-.43,2.3-.92,4.58-1.45,6.84-.3,1.29-.63,2.58-1,3.86-1.79-.13-3.57-.27-5.36-.39-2-.13-4-.31-6-.5q.48-2,.9-3.93.62-3,1.06-6.09C63,45.4,64.76,45.38,66.52,45.41ZM49.69,28.75c3.8,0,7.59-.1,11.38-.06-.16,1.67-.31,3.33-.47,5-3.75-.09-7.5-.18-11.25-.19C49.51,31.91,49.63,30.33,49.69,28.75ZM49,36.13l3.09,0c2.74,0,5.49.09,8.23.16q-.33,3.27-.76,6.52c-3.91,0-7.83.14-11.74.26C48.3,40.79,48.7,38.46,49,36.13ZM59.21,45.4c-.28,1.81-.59,3.61-1,5.4-.31,1.5-.66,3-1,4.44-2.15-.2-4.29-.4-6.44-.55-1.85-.12-3.7-.18-5.55-.22.19-.72.38-1.45.56-2.19.52-2.16,1-4.37,1.51-6.6l4.28-.13C54.12,45.48,56.67,45.43,59.21,45.4ZM37.72,28.84c2.88,0,5.76-.07,8.63-.07h1.34c-.06,1.58-.18,3.15-.35,4.73q-3.68,0-7.32.18l-2.88.15C37.36,32.16,37.56,30.51,37.72,28.84Zm.35,7.51c3-.15,6-.2,8.93-.21-.34,2.35-.77,4.69-1.24,7l-7.13.23-3.13.08c.49-2.34.91-4.71,1.27-7.09C37.21,36.36,37.64,36.37,38.07,36.35Zm7.14,9.39c-.4,1.78-.81,3.55-1.21,5.28-.27,1.15-.57,2.28-.86,3.42-2.32,0-4.64,0-7,0-1.17,0-2.33,0-3.5,0,.32-1.06.65-2.11,1-3.17q.7-2.56,1.3-5.17C38.35,46,41.78,45.85,45.21,45.74ZM24.57,29c3.72,0,7.43-.05,11.15-.1-.17,1.68-.37,3.36-.6,5-1,0-2.08,0-3.12,0-2.67-.08-5.33-.33-8-.33.22-1.48.43-3,.59-4.48C24.58,29.05,24.57,29,24.57,29ZM22.84,41.07c.25-1.66.51-3.32.77-5a.89.89,0,0,0,.28.07c3.63,0,7.24.24,10.86.25q-.57,3.59-1.33,7.1c-3.66.09-7.31.15-11,.14Zm-2.08,11c.52-1.92.92-3.89,1.26-5.87,3.61,0,7.21,0,10.81-.13-.4,1.67-.82,3.34-1.28,5-.31,1.09-.66,2.16-1,3.24-3.42-.12-6.84-.32-10.26-.56C20.45,53.21,20.61,52.66,20.76,52.1ZM24.92,71C21.23,71,17.55,71,13.87,71c.21-.5.55-1,.75-1.45.32-.77.6-1.55.94-2.3.73-1.6,1.33-3.27,1.94-5,.73-2,1.41-4,2.05-6a.43.43,0,0,0,.16,0c3.35.24,6.69.47,10,.6-.52,1.56-1.06,3.12-1.63,4.65-.66,1.74-1.34,3.46-1.91,5.24A30.4,30.4,0,0,0,24.92,71Zm3.8.06c-.58,0-1.16,0-1.74,0,.31-1.3.84-2.66,1.24-3.85.62-1.84,1.35-3.62,2-5.44Q31.11,59.4,31.9,57c.77,0,1.55,0,2.33,0,2.73,0,5.47,0,8.2,0q-.65,2.28-1.35,4.53c-1,3.31-2,7.18-3.81,10C34.42,71.32,31.57,71.17,28.72,71.1Zm23,1.52c-4-.34-8-.68-12-1a53.13,53.13,0,0,0,2.82-7.74c.74-2.28,1.43-4.57,2.08-6.89,1.43,0,2.86.06,4.28.13,2.59.14,5.17.31,7.76.51A141.4,141.4,0,0,1,51.77,72,1.69,1.69,0,0,0,51.67,72.62Zm14.3.84c-2.5,0-5-.1-7.51-.29l-4.77-.39a144.67,144.67,0,0,0,5-15c3.78.3,7.56.64,11.34,1-.37,1.4-.75,2.8-1.16,4.19-.54,1.83-1.14,3.62-1.78,5.38A12.24,12.24,0,0,0,65.87,73,1.63,1.63,0,0,0,66,73.46ZM92.22,59.87A63.87,63.87,0,0,1,89.8,67.1c-.41,1-.87,1.92-1.31,2.88a12.1,12.1,0,0,1-1.4,2.81,1.54,1.54,0,0,0-.2.38c-2.12.09-4.24.35-6.36.38H78.68c-1.76,0-3.52-.06-5.29-.07H67.81a1.56,1.56,0,0,0,.06-.5c-.06-1.61,1-3.46,1.49-4.91.57-1.63,1.08-3.3,1.57-5,.4-1.38.77-2.77,1.14-4.16q3,.24,6,.44c1.08.06,2.16.12,3.25.15-1,3.63-2.23,7.19-3.58,10.65a1.37,1.37,0,0,0,1,1.95c.29,0,.58-.19.76-.65a123.72,123.72,0,0,0,4-11.94c.87,0,1.75-.07,2.61-.17a10.82,10.82,0,0,1,3.59,0,5.2,5.2,0,0,0,1.66.19,8.67,8.67,0,0,0,1.11-.3C92.33,59.44,92.27,59.66,92.22,59.87Zm.88-3.2a.65.65,0,0,0-.28-.08c-.93,0-1.72.47-2.67.27a9.48,9.48,0,0,0-3.23-.17c-.93.1-1.87.16-2.8.2q1.39-5.51,2.27-11.19c1,0,2,0,3,0,1.29,0,2.57.11,3.85.13a21.19,21.19,0,0,0,2.3.1A109.31,109.31,0,0,1,93.1,56.67Zm3.43-18.54c-.12,1.64-.31,3.29-.53,4.93a.81.81,0,0,0-1.09.35c-.57,0-1.18-.13-1.63-.13-1.28,0-2.56-.09-3.85-.13-.89,0-1.78,0-2.68,0q.45-3.42.69-6.87l1.31,0c2.63-.07,5.22.21,7.84.31C96.58,37.05,96.57,37.59,96.53,38.13Zm.13-6.76c0,.85-.06,1.71-.06,2.57-2.3-.09-4.56-.39-6.87-.34l-2.15.07c.07-1.56.1-3.12.1-4.69q1.36-.09,2.73-.21c1.61-.16,3.21-.12,4.82-.23.4,0,1.48-.29,1.67.16A10.29,10.29,0,0,1,96.66,31.37ZM65.72,60.81a1.61,1.61,0,0,1,0,1.82,20.26,20.26,0,0,1-2.88,3.09c.07.17.13.34.21.5l.19.39.12.22,0,0a7.68,7.68,0,0,0,.47.65,1.61,1.61,0,0,1,0,1.82.87.87,0,0,1-1.42,0,8.73,8.73,0,0,1-1.21-2c-.22.25-.44.5-.66.79-.52.73-1,1.51-1.55,2.2a.86.86,0,0,1-1.42,0,1.61,1.61,0,0,1,0-1.82c.57-.71,1.06-1.52,1.6-2.25a12.62,12.62,0,0,1,1.17-1.34c-.31-1.09-.55-2.23-.79-3.31a1.39,1.39,0,0,1,.7-1.58c.52-.22,1.09.25,1.23.9s.36,1.58.56,2.37a15.65,15.65,0,0,0,2.23-2.46A.86.86,0,0,1,65.72,60.81Z" fill="#866255"/></g></g></svg>