<?xml version="1.0" encoding="UTF-8"?><svg xmlns="http://www.w3.org/2000/svg" xmlns:xlink="http://www.w3.org/1999/xlink" height="2919.4" preserveAspectRatio="xMidYMid meet" version="1.0" viewBox="0.0 0.0 3130.2 2919.4" width="3130.2" zoomAndPan="magnify"><defs><clipPath id="a"><path d="M 2696 1218 L 3130.191406 1218 L 3130.191406 1382 L 2696 1382 Z M 2696 1218"/></clipPath><clipPath id="b"><path d="M 368 350 L 2743 350 L 2743 2919.398438 L 368 2919.398438 Z M 368 350"/></clipPath></defs><g><g id="change1_1"><path d="M 2508.707031 1586.210938 C 2496.804688 1582.410156 2486.886719 1584.847656 2480.101562 1593 C 2447.222656 1632.519531 2476.339844 1786.089844 2579.894531 1786.058594 C 2640.914062 1786.039062 2690.378906 1726.980469 2690.363281 1654.140625 C 2690.347656 1601.238281 2667.453125 1561.269531 2631.933594 1539.339844 C 2632.578125 1540.519531 2633.089844 1541.667969 2633.503906 1542.78125 C 2637.363281 1553.179688 2630.863281 1563 2622.957031 1569.460938 C 2592.785156 1594.140625 2544.652344 1597.699219 2508.707031 1586.210938 Z M 2560.085938 1554.308594 C 2559.90625 1557.628906 2557.082031 1560.199219 2553.75 1560.03125 C 2550.429688 1559.859375 2547.871094 1557.03125 2548.039062 1553.710938 C 2548.039062 1553.5 2551.964844 1480.671875 2523.542969 1459.3125 C 2520.886719 1457.300781 2520.359375 1453.507812 2522.355469 1450.851562 C 2524.367188 1448.191406 2528.164062 1447.648438 2530.824219 1449.660156 C 2564.363281 1474.878906 2560.085938 1554.078125 2560.085938 1554.308594 Z M 2507.085938 1785.28125 C 2517.503906 1788.828125 2528.527344 1790.730469 2539.917969 1790.730469 C 2546.355469 1790.730469 2552.644531 1790.121094 2558.765625 1788.960938 C 2560.976562 1788.539062 2563.171875 1788.050781 2565.351562 1787.488281 C 2539.867188 1783.601562 2517.058594 1769.640625 2499.808594 1749.070312 C 2493.554688 1741.609375 2488.089844 1732.917969 2483.386719 1723.570312 C 2466.023438 1688.988281 2452.191406 1629.441406 2473.019531 1594.269531 C 2476.453125 1588.460938 2481.042969 1583.78125 2487.214844 1581.390625 C 2496.011719 1577.96875 2505.371094 1581.097656 2514.777344 1583.851562 C 2546.335938 1593.050781 2606.617188 1588.378906 2627.199219 1559.210938 C 2634.292969 1549.128906 2630.648438 1539.308594 2620.679688 1533.730469 C 2604.667969 1524.78125 2573.257812 1520.460938 2563.074219 1520.378906 C 2564.460938 1534.921875 2564.328125 1547.019531 2564.179688 1552.03125 C 2564.082031 1555.6875 2564.015625 1558.558594 2560.796875 1561.460938 C 2556.6875 1565.191406 2550.316406 1564.878906 2546.601562 1560.757812 C 2543.863281 1557.730469 2543.976562 1555.140625 2544.09375 1551.710938 C 2544.242188 1547.328125 2544.457031 1535.421875 2543.21875 1521.460938 C 2473.449219 1529.550781 2427.664062 1571.921875 2421.09375 1641.851562 C 2415.464844 1702.101562 2445.507812 1764.300781 2507.085938 1785.28125" fill="#ed1d24"/></g><g id="change2_1"><path d="M 397.261719 1902.660156 C 390.53125 1893.710938 314.96875 1789.101562 400.21875 1716.488281 C 400.695312 1708.75 401.570312 1700.480469 403.097656 1692.640625 C 404.648438 1684.679688 408.324219 1687.488281 407.121094 1693.738281 C 405.734375 1700.96875 404.914062 1708.621094 404.449219 1715.851562 C 486.65625 1793.460938 404.53125 1894.089844 397.261719 1902.660156" fill="#2f8651" fill-rule="evenodd"/></g><g id="change2_2"><path d="M 2169.6875 259.648438 C 2169.429688 282.3125 2161.480469 543.410156 1935.09375 554.636719 C 1924.761719 566.449219 1913.160156 578.636719 1901.019531 589.328125 C 1888.703125 600.195312 1886.285156 591.136719 1895.929688 582.585938 C 1907.074219 572.714844 1917.84375 561.457031 1927.519531 550.425781 C 1891.476562 324.445312 2147.433594 264.414062 2169.671875 259.648438 L 2169.6875 259.648438" fill="#2f8651" fill-rule="evenodd"/></g><g id="change2_3"><path d="M 2602.605469 775.046875 C 2591.300781 784.464844 2458.984375 890.484375 2358.121094 783.394531 C 2347.917969 783.269531 2337.011719 782.660156 2326.617188 781.175781 C 2316.078125 779.660156 2319.527344 774.644531 2327.796875 775.828125 C 2337.378906 777.167969 2347.46875 777.742188 2357 777.871094 C 2453.441406 664.90625 2590.886719 766.054688 2602.605469 775.046875" fill="#2f8651" fill-rule="evenodd"/></g><g id="change2_4"><path d="M 1769.304688 240.007812 C 1767.132812 262.722656 1737.316406 523.890625 1509.355469 516.199219 C 1498.015625 527.195312 1485.347656 538.4375 1472.289062 548.136719 C 1459.035156 558 1457.347656 548.726562 1467.746094 540.953125 C 1479.757812 531.976562 1491.476562 521.605469 1502.109375 511.347656 C 1484.867188 281.710938 1746.585938 242.933594 1769.304688 240.007812" fill="#2f8651" fill-rule="evenodd"/></g><g id="change2_5"><path d="M 1804.21875 237.660156 C 1819.652344 249.832031 1994.671875 393.496094 1882.550781 554.84375 C 1885.199219 568.1875 1887.417969 582.617188 1888.339844 596.601562 C 1889.261719 610.800781 1881.757812 607.691406 1881.003906 596.535156 C 1880.132812 583.652344 1878.089844 570.308594 1875.640625 557.824219 C 1701.425781 462.941406 1795.714844 255.460938 1804.21875 237.660156" fill="#2f8651" fill-rule="evenodd"/></g><g id="change2_6"><path d="M 2456.457031 497.882812 C 2457.183594 518.1875 2461.167969 752.152344 2259.066406 771.8125 C 2250.324219 782.832031 2240.449219 794.21875 2230.046875 804.304688 C 2219.492188 814.542969 2216.925781 806.554688 2225.214844 798.492188 C 2234.773438 789.175781 2243.90625 778.652344 2252.105469 768.367188 C 2210.25 567.667969 2436.753906 503.089844 2456.457031 497.882812" fill="#2f8651" fill-rule="evenodd"/></g><g id="change2_7"><path d="M 2207.800781 418.574219 C 2215.410156 441.648438 2298.046875 709.128906 2072.417969 799.128906 C 2066.050781 814.714844 2058.503906 831.101562 2049.925781 846.152344 C 2041.210938 861.433594 2035.613281 853.101562 2042.425781 841.089844 C 2050.296875 827.203125 2057.292969 812.0625 2063.273438 797.5 C 1948.222656 580.894531 2186.90625 431.136719 2207.800781 418.574219" fill="#2f8651" fill-rule="evenodd"/></g><g id="change2_8"><path d="M 2539.800781 961.726562 C 2521.835938 965.949219 2313.882812 1010.589844 2260.875 833.820312 C 2249.515625 827.960938 2237.609375 821.167969 2226.796875 813.65625 C 2215.8125 806.035156 2222.496094 802.359375 2231.128906 808.3125 C 2241.117188 815.199219 2252.101562 821.507812 2262.714844 827.007812 C 2434.3125 754.445312 2531.699219 945.070312 2539.800781 961.726562" fill="#2f8651" fill-rule="evenodd"/></g><g id="change2_9"><path d="M 2839.214844 1372.371094 C 2828.3125 1386.003906 2699.710938 1540.632812 2557.054688 1440.109375 C 2545.191406 1442.390625 2532.371094 1444.273438 2519.933594 1445.011719 C 2507.324219 1445.753906 2510.128906 1439.113281 2520.039062 1438.5 C 2531.484375 1437.800781 2543.34375 1436.070312 2554.441406 1433.960938 C 2639.722656 1279.78125 2823.46875 1364.722656 2839.214844 1372.371094" fill="#2f8651" fill-rule="evenodd"/></g><g id="change2_10"><path d="M 1040.367188 555.378906 C 1021.707031 567.445312 809.53125 710.503906 918.574219 903.949219 C 914.167969 918.683594 910.144531 934.679688 907.625 950.316406 C 905.066406 966.195312 913.835938 963.484375 915.875 951.027344 C 918.230469 936.609375 921.929688 921.816406 926.019531 908.039062 C 1132.109375 819.773438 1048.039062 576.304688 1040.367188 555.378906" fill="#2f8651" fill-rule="evenodd"/></g><g id="change2_11"><path d="M 718.988281 1194.972656 C 723.390625 1215.933594 778.714844 1456.347656 990.492188 1425.160156 C 1002.234375 1434.214844 1015.234375 1443.367188 1028.433594 1451.046875 C 1041.832031 1458.832031 1042.425781 1450.019531 1031.914062 1443.863281 C 1019.765625 1436.765625 1007.734375 1428.3125 996.746094 1419.867188 C 988.621094 1203.890625 740.472656 1195.3125 718.992188 1194.972656 L 718.988281 1194.972656" fill="#2f8651" fill-rule="evenodd"/></g><g id="change2_12"><path d="M 640.890625 384.945312 C 628.902344 399.949219 494.144531 575.386719 636.546875 704.101562 C 636.972656 717.378906 638.058594 731.605469 640.277344 745.117188 C 642.53125 758.832031 648.976562 754.199219 647.230469 743.421875 C 645.21875 730.96875 644.199219 717.828125 643.769531 705.40625 C 788.550781 576.570312 652.917969 399.996094 640.890625 384.945312" fill="#2f8651" fill-rule="evenodd"/></g><g id="change2_13"><path d="M 0 1489.878906 C 17.578125 1509.148438 224.273438 1727.21875 427.21875 1563.550781 C 445.136719 1565.800781 464.4375 1567.371094 483.035156 1567.261719 C 501.917969 1567.160156 497.082031 1557.53125 482.25 1557.578125 C 465.113281 1557.628906 447.265625 1556.210938 430.511719 1554.140625 C 288.457031 1332.53125 22.75 1476.949219 0 1489.878906" fill="#2f8651" fill-rule="evenodd"/></g><g id="change2_14"><path d="M 2841.148438 945.363281 C 2820.511719 953.78125 2584.570312 1055.296875 2656.007812 1266.402344 C 2648.917969 1280.113281 2641.953125 1295.132812 2636.558594 1310.082031 C 2631.078125 1325.261719 2640.21875 1324.222656 2644.570312 1312.3125 C 2649.574219 1298.550781 2655.992188 1284.652344 2662.585938 1271.8125 C 2882.296875 1223.222656 2844.808594 967.429688 2841.148438 945.363281" fill="#2f8651" fill-rule="evenodd"/></g><g id="change2_15"><path d="M 1188.449219 54.609375 C 1186.128906 80.585938 1165.117188 380.316406 1422.921875 419.265625 C 1433.367188 433.992188 1445.261719 449.265625 1457.910156 462.902344 C 1470.75 476.753906 1474.578125 466.683594 1464.519531 455.785156 C 1452.890625 443.183594 1441.878906 429.070312 1432.082031 415.328125 C 1499.390625 160.835938 1213.359375 62.640625 1188.449219 54.609375" fill="#2f8651" fill-rule="evenodd"/></g><g id="change2_16"><path d="M 196.683594 727.980469 C 199.71875 748.980469 239.308594 990.128906 450.644531 972.597656 C 461.679688 982.292969 473.957031 992.160156 486.523438 1000.589844 C 499.285156 1009.140625 500.421875 1000.441406 490.417969 993.707031 C 478.859375 985.921875 467.492188 976.804688 457.15625 967.773438 C 462.699219 753.738281 217.902344 729.660156 196.683594 727.980469" fill="#2f8651" fill-rule="evenodd"/></g><g id="change2_17"><path d="M 754.335938 1841.550781 C 774.476562 1832.898438 1004.550781 1728.890625 930.519531 1522.679688 C 937.242188 1509.070312 943.808594 1494.179688 948.847656 1479.390625 C 953.964844 1464.371094 944.988281 1465.550781 940.9375 1477.339844 C 936.261719 1490.960938 930.214844 1504.738281 923.953125 1517.46875 C 708.882812 1569.191406 750.335938 1819.921875 754.335938 1841.550781" fill="#2f8651" fill-rule="evenodd"/></g><g id="change2_18"><path d="M 1941.15625 1821.371094 C 1948.25 1797.324219 2024.703125 1518.738281 1789.019531 1433.304688 C 1781.949219 1417.441406 1773.640625 1400.785156 1764.300781 1385.542969 C 1754.808594 1370.066406 1749.296875 1378.847656 1756.710938 1391.007812 C 1765.292969 1405.082031 1773.007812 1420.472656 1779.640625 1435.277344 C 1668.109375 1662.46875 1919.195312 1809.101562 1941.15625 1821.371094" fill="#2f8651" fill-rule="evenodd"/></g><g id="change2_19"><path d="M 969.847656 1896.699219 C 992.917969 1884.53125 1255.96875 1739.339844 1148.609375 1501.75 C 1155.300781 1484.96875 1161.671875 1466.691406 1166.25 1448.660156 C 1170.890625 1430.359375 1160.359375 1432.621094 1156.671875 1446.980469 C 1152.421875 1463.578125 1146.550781 1480.5 1140.328125 1496.191406 C 890.113281 1577.929688 963.050781 1871.429688 969.847656 1896.699219" fill="#2f8651" fill-rule="evenodd"/></g><g id="change2_20"><path d="M 220.621094 1151.632812 C 235.492188 1153.933594 407.289062 1177.117188 439.253906 1030.140625 C 448.121094 1024.667969 457.359375 1018.386719 465.679688 1011.605469 C 474.125 1004.726562 468.464844 1002.140625 461.820312 1007.527344 C 454.140625 1013.761719 445.601562 1019.578125 437.324219 1024.714844 C 293.296875 976.539062 226.164062 1137.582031 220.621094 1151.632812" fill="#2f8651" fill-rule="evenodd"/></g><g id="change2_21"><path d="M 397.773438 541.410156 C 392.730469 567 340.253906 862.847656 592.507812 928.730469 C 601.351562 944.484375 611.5625 960.941406 622.707031 975.824219 C 634.015625 990.953125 638.882812 981.335938 630.027344 969.433594 C 619.796875 955.691406 610.332031 940.488281 602.035156 925.78125 C 695.785156 679.8125 421.703125 552.015625 397.777344 541.410156 L 397.773438 541.410156" fill="#2f8651" fill-rule="evenodd"/></g><g id="change2_22"><path d="M 70.699219 1133 L 70.695312 1133 L 70.699219 1133 C 74.386719 1158.820312 122.585938 1455.398438 382.445312 1434.257812 C 395.992188 1446.203125 411.066406 1458.355469 426.503906 1468.734375 C 442.175781 1479.265625 443.589844 1468.59375 431.300781 1460.285156 C 417.105469 1450.695312 403.152344 1439.472656 390.460938 1428.328125 C 397.699219 1165.199219 96.78125 1135.117188 70.699219 1133" fill="#2f8651" fill-rule="evenodd"/></g><g id="change2_23"><path d="M 76.050781 1776.230469 L 76.054688 1776.230469 L 76.050781 1776.230469 L 76.054688 1776.230469 C 95.140625 1782.78125 316.429688 1854.011719 393.367188 1667.539062 C 406.363281 1662.410156 420.050781 1656.308594 432.632812 1649.320312 C 441.550781 1644.378906 445.34375 1637.480469 440.722656 1637.519531 C 438.722656 1637.53125 431.53125 1641.371094 428.496094 1643.039062 C 416.890625 1649.441406 404.246094 1655.109375 392.105469 1659.929688 C 213.378906 1562.289062 86.6875 1759 76.054688 1776.230469 L 76.050781 1776.230469" fill="#2f8651" fill-rule="evenodd"/></g><g id="change2_24"><path d="M 2356.996094 1820.648438 C 2368.59375 1798.210938 2497.242188 1537.230469 2280.425781 1407.867188 C 2276.457031 1390.839844 2271.386719 1372.78125 2265.042969 1355.914062 C 2258.609375 1338.816406 2251.484375 1346.445312 2256.511719 1359.894531 C 2262.316406 1375.445312 2267.019531 1392.128906 2270.773438 1408.039062 C 2117.1875 1611.5 2337.601562 1804.328125 2356.996094 1820.648438" fill="#2f8651" fill-rule="evenodd"/></g><g id="change2_25"><path d="M 1049.230469 573.710938 C 1059.109375 580.359375 1174.382812 654.824219 1246.769531 560.277344 C 1254.972656 559.347656 1263.703125 557.964844 1271.941406 555.910156 C 1280.3125 553.824219 1277.121094 550.070312 1270.550781 551.691406 C 1262.949219 553.566406 1254.871094 554.859375 1247.222656 555.742188 C 1160.25 472.738281 1057.929688 565.515625 1049.230469 573.710938" fill="#2f8651" fill-rule="evenodd"/></g><g id="change2_26"><path d="M 1661.507812 0.00390625 C 1640.808594 8.601562 1404.257812 112.265625 1477.527344 324.039062 C 1470.488281 337.882812 1463.597656 353.035156 1458.269531 368.097656 C 1452.859375 383.414062 1462.046875 382.300781 1466.328125 370.285156 C 1471.277344 356.421875 1477.628906 342.398438 1484.175781 329.449219 C 1704.765625 279.101562 1665.347656 22.179688 1661.507812 0.00390625" fill="#2f8651" fill-rule="evenodd"/></g><g id="change2_27"><path d="M 868.992188 434.691406 C 847.289062 449.160156 600.527344 620.589844 731.707031 845.90625 C 726.777344 863.28125 722.3125 882.125 719.613281 900.523438 C 716.871094 919.210938 727.117188 915.871094 729.308594 901.207031 C 731.839844 884.257812 735.941406 866.835938 740.511719 850.585938 C 981.019531 743.589844 878.34375 459.128906 868.992188 434.691406" fill="#2f8651" fill-rule="evenodd"/></g><g id="change2_28"><path d="M 1257.757812 1051.4375 L 1257.757812 1051.449219 C 1253.585938 1077.1875 1211.289062 1374.652344 1465.652344 1431.859375 C 1475.027344 1447.296875 1485.800781 1463.398438 1497.441406 1477.894531 C 1509.269531 1492.621094 1513.808594 1482.84375 1504.546875 1471.257812 C 1493.84375 1457.863281 1483.863281 1443.007812 1475.0625 1428.582031 C 1560.335938 1179.558594 1282.03125 1061.210938 1257.757812 1051.449219 L 1257.757812 1051.4375" fill="#2f8651" fill-rule="evenodd"/></g><g id="change2_29"><path d="M 2626.316406 971.007812 C 2602.921875 978.667969 2335.070312 1072.148438 2397.371094 1310.3125 C 2388.496094 1324.875 2379.667969 1340.882812 2372.5625 1356.933594 C 2365.328125 1373.234375 2375.488281 1372.804688 2381.195312 1360.015625 C 2387.78125 1345.234375 2395.941406 1330.425781 2404.199219 1316.792969 C 2650.054688 1280.332031 2628.640625 995.605469 2626.316406 971.007812" fill="#2f8651" fill-rule="evenodd"/></g><g id="change2_30"><path d="M 2018.554688 930.90625 C 2002.507812 941.304688 1819.953125 1064.621094 1913.964844 1231.074219 C 1910.195312 1243.765625 1906.746094 1257.535156 1904.582031 1270.996094 C 1902.394531 1284.675781 1909.9375 1282.335938 1911.675781 1271.589844 C 1913.695312 1259.195312 1916.875 1246.457031 1920.375 1234.578125 C 2097.726562 1158.453125 2025.183594 948.914062 2018.554688 930.90625" fill="#2f8651" fill-rule="evenodd"/></g><g clip-path="url(#a)" id="change2_34"><path d="M 3130.1875 1308.070312 C 3113.09375 1293.261719 2912.859375 1126.460938 2754.71875 1288.089844 C 2739.066406 1287.972656 2722.28125 1288.59375 2706.265625 1290.570312 C 2690.019531 1292.582031 2695.167969 1300.382812 2707.9375 1298.832031 C 2722.6875 1297.042969 2738.203125 1296.453125 2752.855469 1296.53125 C 2897.746094 1472.953125 3111.925781 1321.523438 3130.1875 1308.070312" fill="#2f8651" fill-rule="evenodd"/></g><g id="change2_31"><path d="M 3083.878906 1535.390625 C 3066.433594 1520.152344 2862.066406 1348.429688 2699.378906 1513.300781 C 2683.332031 1513.109375 2666.136719 1513.667969 2649.734375 1515.628906 C 2633.082031 1517.621094 2638.324219 1525.628906 2651.417969 1524.101562 C 2666.535156 1522.332031 2682.425781 1521.800781 2697.410156 1521.941406 C 2845.078125 1703.269531 3065.089844 1549.089844 3083.878906 1535.390625" fill="#2f8651" fill-rule="evenodd"/></g><g id="change2_32"><path d="M 1096.566406 247.945312 C 1095.425781 268.316406 1086.738281 503.289062 1289.367188 527.085938 C 1297.925781 538.347656 1307.617188 549.984375 1317.855469 560.324219 C 1328.265625 570.828125 1330.996094 562.847656 1322.847656 554.589844 C 1313.425781 545.03125 1304.457031 534.28125 1296.425781 523.777344 C 1342.507812 323.007812 1116.257812 253.582031 1096.578125 247.945312 L 1096.566406 247.945312" fill="#2f8651" fill-rule="evenodd"/></g><g id="change2_33"><path d="M 645.820312 1170.363281 C 664.910156 1171.578125 885.085938 1181.410156 908.84375 991.65625 C 919.449219 983.714844 930.441406 974.707031 940.203125 965.1875 C 950.113281 955.511719 942.65625 952.890625 934.851562 960.476562 C 925.835938 969.230469 915.6875 977.5625 905.789062 985.003906 C 717.9375 940.382812 651.242188 1151.945312 645.820312 1170.363281" fill="#2f8651" fill-rule="evenodd"/></g><g id="change3_1"><path d="M 2056.085938 1318.21875 C 2053.734375 1315.660156 2049.753906 1315.480469 2047.195312 1317.816406 C 2044.636719 1320.167969 2044.457031 1324.148438 2046.808594 1326.707031 C 2046.925781 1326.847656 2090.199219 1373.597656 2062.441406 1415.65625 C 2060.53125 1418.5625 2061.332031 1422.480469 2064.238281 1424.378906 C 2067.148438 1426.289062 2071.0625 1425.488281 2072.960938 1422.582031 C 2106.15625 1372.292969 2056.226562 1318.371094 2056.085938 1318.21875" fill="#c21e24"/></g><g id="change3_2"><path d="M 2067.667969 1390.503906 C 2069.859375 1390.800781 2072.023438 1391.171875 2074.175781 1391.617188 C 2049.046875 1396.820312 2027.054688 1411.855469 2010.90625 1433.179688 C 1998.558594 1449.496094 1989.632812 1469.5 1985.34375 1491.582031 C 1985.238281 1492.105469 1985.136719 1492.617188 1985.046875 1493.15625 L 1985.035156 1493.195312 C 1984.84375 1494.234375 1984.664062 1495.28125 1984.496094 1496.332031 L 1984.484375 1496.398438 C 1984.40625 1496.910156 1984.316406 1497.410156 1984.242188 1497.921875 L 1984.214844 1498.101562 C 1984.136719 1498.574219 1984.085938 1499.046875 1984.011719 1499.507812 L 1983.972656 1499.777344 C 1983.90625 1500.238281 1983.855469 1500.6875 1983.792969 1501.148438 L 1983.765625 1501.367188 C 1983.703125 1501.839844 1983.636719 1502.300781 1983.585938 1502.761719 L 1983.546875 1503.058594 C 1983.496094 1503.492188 1983.460938 1503.941406 1983.40625 1504.375 L 1983.371094 1504.746094 C 1983.316406 1505.171875 1983.28125 1505.59375 1983.230469 1506.027344 L 1983.203125 1506.347656 C 1983.164062 1506.796875 1983.125 1507.230469 1983.085938 1507.679688 L 1983.050781 1508 C 1983.023438 1508.4375 1982.984375 1508.859375 1982.945312 1509.292969 L 1982.910156 1509.820312 C 1982.882812 1510.203125 1982.855469 1510.585938 1982.832031 1510.960938 C 1982.820312 1511.136719 1982.820312 1511.304688 1982.804688 1511.472656 C 1982.765625 1511.867188 1982.753906 1512.238281 1982.730469 1512.625 C 1982.714844 1512.816406 1982.714844 1513.019531 1982.703125 1513.199219 C 1982.679688 1513.558594 1982.664062 1513.929688 1982.640625 1514.289062 C 1982.625 1514.492188 1982.625 1514.699219 1982.625 1514.917969 C 1982.601562 1515.273438 1982.589844 1515.621094 1982.574219 1515.980469 C 1982.574219 1516.160156 1982.5625 1516.351562 1982.5625 1516.53125 C 1982.535156 1516.902344 1982.535156 1517.285156 1982.523438 1517.671875 C 1982.523438 1517.886719 1982.511719 1518.105469 1982.511719 1518.3125 C 1982.5 1518.65625 1982.5 1518.988281 1982.5 1519.324219 C 1982.5 1519.589844 1982.5 1519.859375 1982.484375 1520.117188 C 1982.484375 1520.425781 1982.484375 1520.730469 1982.484375 1521.039062 C 1982.484375 1521.269531 1982.484375 1521.5 1982.484375 1521.742188 C 1982.484375 1522.074219 1982.484375 1522.410156 1982.484375 1522.730469 C 1982.484375 1523.0625 1982.5 1523.421875 1982.5 1523.753906 C 1982.5 1523.972656 1982.5 1524.1875 1982.5 1524.417969 C 1982.511719 1524.703125 1982.511719 1524.996094 1982.523438 1525.289062 C 1982.535156 1525.574219 1982.535156 1525.867188 1982.535156 1526.160156 L 1982.535156 1526.277344 C 1982.589844 1527.378906 1982.625 1528.480469 1982.679688 1529.582031 C 1982.730469 1530.554688 1982.78125 1531.539062 1982.855469 1532.515625 C 1982.855469 1532.679688 1982.871094 1532.847656 1982.882812 1533 C 1982.910156 1533.230469 1982.921875 1533.460938 1982.933594 1533.691406 C 1982.960938 1534.050781 1982.984375 1534.382812 1983.011719 1534.730469 C 1983.035156 1534.921875 1983.050781 1535.128906 1983.0625 1535.320312 C 1983.085938 1535.691406 1983.125 1536.050781 1983.164062 1536.421875 C 1983.191406 1536.742188 1983.230469 1537.074219 1983.253906 1537.40625 C 1983.28125 1537.636719 1983.304688 1537.867188 1983.316406 1538.109375 C 1983.355469 1538.445312 1983.394531 1538.789062 1983.433594 1539.148438 C 1983.460938 1539.351562 1983.484375 1539.570312 1983.496094 1539.789062 C 1983.546875 1540.160156 1983.585938 1540.542969 1983.636719 1540.929688 C 1983.664062 1541.109375 1983.675781 1541.273438 1983.703125 1541.453125 C 1983.742188 1541.800781 1983.792969 1542.160156 1983.84375 1542.492188 C 1983.867188 1542.710938 1983.894531 1542.941406 1983.921875 1543.144531 C 1983.972656 1543.492188 1984.023438 1543.847656 1984.074219 1544.195312 C 1984.085938 1544.398438 1984.125 1544.589844 1984.152344 1544.796875 C 1984.214844 1545.179688 1984.265625 1545.539062 1984.316406 1545.910156 C 1984.355469 1546.089844 1984.367188 1546.269531 1984.40625 1546.449219 C 1984.457031 1546.820312 1984.523438 1547.179688 1984.585938 1547.550781 L 1984.675781 1548.101562 C 1984.726562 1548.472656 1984.792969 1548.84375 1984.867188 1549.203125 L 1984.957031 1549.753906 C 1985.023438 1550.148438 1985.097656 1550.546875 1985.175781 1550.929688 L 1985.253906 1551.367188 C 1985.328125 1551.789062 1985.417969 1552.210938 1985.496094 1552.648438 L 1985.558594 1552.980469 C 1985.636719 1553.390625 1985.738281 1553.800781 1985.816406 1554.210938 L 1985.90625 1554.621094 C 1985.996094 1555.054688 1986.085938 1555.492188 1986.1875 1555.925781 L 1986.238281 1556.207031 C 1986.339844 1556.644531 1986.441406 1557.078125 1986.546875 1557.527344 L 1986.597656 1557.808594 C 1986.710938 1558.269531 1986.828125 1558.730469 1986.929688 1559.179688 L 1986.980469 1559.398438 C 1987.097656 1559.871094 1987.210938 1560.34375 1987.328125 1560.820312 L 1987.378906 1560.960938 C 1987.507812 1561.472656 1987.632812 1561.972656 1987.761719 1562.472656 L 1987.773438 1562.507812 C 1987.917969 1563.023438 1988.042969 1563.519531 1988.183594 1564.019531 L 1988.199219 1564.097656 C 1988.339844 1564.585938 1988.480469 1565.082031 1988.621094 1565.570312 L 1988.644531 1565.660156 C 1995.035156 1587.804688 2006.0625 1607.347656 2020.28125 1622.703125 C 2038.519531 1642.414062 2061.996094 1655.234375 2087.621094 1657.863281 C 2085.484375 1658.523438 2083.320312 1659.125 2081.128906 1659.65625 C 2075.070312 1661.113281 2068.808594 1662.035156 2062.378906 1662.355469 C 2030.207031 1663.945312 2000.3125 1650.183594 1977.976562 1626.648438 C 1955.5625 1603.007812 1940.757812 1569.527344 1938.890625 1531.796875 C 1937.019531 1494.078125 1948.457031 1459.292969 1968.4375 1433.550781 C 1988.339844 1407.9375 2016.71875 1391.285156 2048.894531 1389.699219 C 2055.269531 1389.390625 2061.546875 1389.660156 2067.667969 1390.503906" fill="#c21e24" fill-rule="evenodd"/></g><g id="change3_3"><path d="M 2205.941406 1518.519531 C 2202.347656 1445.769531 2150.011719 1389.242188 2089.066406 1392.25 C 2028.105469 1395.261719 1981.609375 1456.679688 1985.214844 1529.445312 C 1988.824219 1602.195312 2041.148438 1658.726562 2102.09375 1655.71875 C 2163.050781 1652.695312 2209.546875 1591.277344 2205.941406 1518.519531" fill="#c21e24" fill-rule="evenodd"/></g><g id="change1_2"><path d="M 1686.992188 1111.09375 C 1675.121094 1107.296875 1665.183594 1109.742188 1658.410156 1117.890625 C 1625.515625 1157.398438 1654.636719 1310.976562 1758.191406 1310.949219 C 1819.222656 1310.9375 1868.683594 1251.875 1868.660156 1179.03125 C 1868.660156 1126.132812 1845.75 1086.15625 1810.230469 1064.226562 C 1810.863281 1065.40625 1811.386719 1066.554688 1811.804688 1067.675781 C 1815.664062 1078.070312 1809.167969 1087.886719 1801.257812 1094.359375 C 1771.089844 1119.023438 1722.957031 1122.582031 1686.992188 1111.09375 Z M 1738.375 1079.191406 C 1738.21875 1082.523438 1735.390625 1085.089844 1732.054688 1084.914062 C 1728.734375 1084.757812 1726.167969 1081.914062 1726.335938 1078.59375 C 1726.347656 1078.390625 1730.265625 1005.558594 1701.839844 984.203125 C 1699.1875 982.195312 1698.648438 978.398438 1700.667969 975.734375 C 1702.664062 973.082031 1706.449219 972.542969 1709.125 974.550781 C 1742.664062 999.765625 1738.386719 1078.976562 1738.375 1079.191406 Z M 1685.390625 1310.175781 C 1695.808594 1313.710938 1706.820312 1315.621094 1718.214844 1315.621094 C 1724.652344 1315.621094 1730.957031 1315.011719 1737.074219 1313.851562 C 1739.28125 1313.433594 1741.480469 1312.933594 1743.640625 1312.371094 C 1718.179688 1308.492188 1695.363281 1294.539062 1678.117188 1273.960938 C 1671.859375 1266.507812 1666.390625 1257.800781 1661.695312 1248.460938 C 1644.328125 1213.882812 1630.496094 1154.332031 1651.316406 1119.15625 C 1654.753906 1113.351562 1659.355469 1108.679688 1665.515625 1106.28125 C 1674.320312 1102.851562 1683.671875 1105.992188 1693.082031 1108.742188 C 1724.640625 1117.9375 1784.921875 1113.265625 1805.488281 1084.101562 C 1812.59375 1074.019531 1808.953125 1064.203125 1798.988281 1058.625 C 1782.960938 1049.667969 1751.5625 1045.34375 1741.359375 1045.269531 C 1742.757812 1059.804688 1742.640625 1071.917969 1742.484375 1076.921875 C 1742.386719 1080.578125 1742.316406 1083.445312 1739.101562 1086.359375 C 1734.996094 1090.074219 1728.628906 1089.761719 1724.902344 1085.640625 C 1722.167969 1082.632812 1722.273438 1080.039062 1722.394531 1076.613281 C 1722.539062 1072.226562 1722.765625 1060.308594 1721.511719 1046.359375 C 1651.757812 1054.445312 1605.964844 1096.820312 1599.40625 1166.738281 C 1593.757812 1226.984375 1623.808594 1289.1875 1685.390625 1310.175781" fill="#ed1d24"/></g><g id="change3_4"><path d="M 2168.519531 823.6875 C 2166.175781 821.128906 2162.203125 820.953125 2159.644531 823.292969 C 2157.070312 825.648438 2156.90625 829.621094 2159.25 832.179688 C 2159.371094 832.316406 2202.640625 879.082031 2174.886719 921.128906 C 2172.96875 924.039062 2173.785156 927.949219 2176.699219 929.851562 C 2179.597656 931.773438 2183.503906 930.957031 2185.410156 928.054688 C 2218.59375 877.777344 2168.667969 823.851562 2168.519531 823.6875" fill="#c21e24"/></g><g id="change3_5"><path d="M 2180.101562 895.976562 C 2182.300781 896.273438 2184.460938 896.652344 2186.632812 897.085938 C 2161.488281 902.28125 2139.5 917.332031 2123.355469 938.65625 C 2111.007812 954.960938 2102.070312 974.964844 2097.78125 997.046875 L 2097.78125 997.058594 C 2097.683594 997.574219 2097.589844 998.097656 2097.496094 998.625 L 2097.484375 998.652344 C 2097.292969 999.707031 2097.117188 1000.757812 2096.941406 1001.8125 L 2096.929688 1001.863281 C 2096.863281 1002.378906 2096.78125 1002.878906 2096.699219 1003.390625 L 2096.660156 1003.578125 C 2096.589844 1004.050781 2096.523438 1004.511719 2096.46875 1004.984375 L 2096.429688 1005.238281 C 2096.363281 1005.699219 2096.308594 1006.15625 2096.242188 1006.617188 L 2096.214844 1006.832031 C 2096.160156 1007.304688 2096.09375 1007.761719 2096.039062 1008.234375 L 2096.011719 1008.519531 C 2095.957031 1008.964844 2095.902344 1009.410156 2095.847656 1009.84375 L 2095.824219 1010.21875 C 2095.78125 1010.636719 2095.726562 1011.070312 2095.6875 1011.488281 L 2095.660156 1011.8125 C 2095.621094 1012.269531 2095.566406 1012.703125 2095.539062 1013.148438 L 2095.511719 1013.472656 C 2095.472656 1013.90625 2095.429688 1014.335938 2095.390625 1014.769531 L 2095.351562 1015.292969 C 2095.335938 1015.671875 2095.308594 1016.050781 2095.269531 1016.429688 C 2095.269531 1016.605469 2095.253906 1016.78125 2095.242188 1016.941406 C 2095.226562 1017.332031 2095.203125 1017.710938 2095.175781 1018.089844 C 2095.160156 1018.292969 2095.160156 1018.480469 2095.148438 1018.667969 C 2095.121094 1019.035156 2095.105469 1019.398438 2095.09375 1019.75 C 2095.078125 1019.964844 2095.078125 1020.179688 2095.066406 1020.382812 C 2095.054688 1020.746094 2095.039062 1021.097656 2095.027344 1021.449219 C 2095.011719 1021.625 2095.011719 1021.8125 2095.011719 1021.988281 C 2095 1022.382812 2094.984375 1022.757812 2094.972656 1023.136719 C 2094.972656 1023.351562 2094.972656 1023.570312 2094.972656 1023.785156 C 2094.957031 1024.121094 2094.945312 1024.460938 2094.945312 1024.796875 C 2094.929688 1025.054688 2094.929688 1025.324219 2094.929688 1025.578125 C 2094.929688 1025.890625 2094.929688 1026.199219 2094.929688 1026.511719 C 2094.929688 1026.742188 2094.929688 1026.96875 2094.929688 1027.214844 C 2094.929688 1027.550781 2094.929688 1027.859375 2094.929688 1028.199219 C 2094.929688 1028.535156 2094.929688 1028.886719 2094.945312 1029.222656 C 2094.945312 1029.441406 2094.945312 1029.667969 2094.957031 1029.886719 C 2094.957031 1030.167969 2094.972656 1030.464844 2094.972656 1030.75 C 2094.972656 1031.046875 2094.984375 1031.328125 2095 1031.625 L 2095 1031.75 C 2095.027344 1032.839844 2095.078125 1033.949219 2095.121094 1035.042969 C 2095.175781 1036.027344 2095.242188 1037 2095.296875 1037.984375 C 2095.308594 1038.144531 2095.308594 1038.320312 2095.335938 1038.46875 C 2095.351562 1038.699219 2095.363281 1038.929688 2095.390625 1039.15625 C 2095.402344 1039.507812 2095.429688 1039.859375 2095.472656 1040.210938 C 2095.472656 1040.398438 2095.5 1040.589844 2095.511719 1040.792969 C 2095.550781 1041.15625 2095.578125 1041.519531 2095.605469 1041.882812 C 2095.632812 1042.207031 2095.671875 1042.546875 2095.699219 1042.871094 C 2095.726562 1043.097656 2095.742188 1043.328125 2095.78125 1043.558594 C 2095.808594 1043.910156 2095.847656 1044.261719 2095.890625 1044.609375 C 2095.902344 1044.828125 2095.929688 1045.042969 2095.957031 1045.257812 C 2095.996094 1045.636719 2096.050781 1046.015625 2096.09375 1046.394531 C 2096.105469 1046.566406 2096.132812 1046.742188 2096.160156 1046.917969 C 2096.199219 1047.269531 2096.242188 1047.621094 2096.28125 1047.957031 C 2096.320312 1048.1875 2096.347656 1048.402344 2096.375 1048.621094 C 2096.417969 1048.972656 2096.46875 1049.308594 2096.511719 1049.660156 C 2096.550781 1049.863281 2096.578125 1050.0625 2096.605469 1050.265625 C 2096.660156 1050.644531 2096.714844 1051.007812 2096.765625 1051.386719 C 2096.792969 1051.5625 2096.820312 1051.75 2096.863281 1051.925781 C 2096.902344 1052.292969 2096.96875 1052.65625 2097.023438 1053.019531 L 2097.117188 1053.574219 C 2097.183594 1053.953125 2097.238281 1054.316406 2097.308594 1054.679688 L 2097.402344 1055.21875 C 2097.46875 1055.613281 2097.550781 1056.015625 2097.617188 1056.40625 L 2097.699219 1056.839844 C 2097.78125 1057.257812 2097.859375 1057.691406 2097.941406 1058.109375 L 2098.023438 1058.460938 C 2098.089844 1058.863281 2098.171875 1059.269531 2098.265625 1059.675781 L 2098.347656 1060.078125 C 2098.441406 1060.523438 2098.535156 1060.957031 2098.628906 1061.386719 L 2098.683594 1061.671875 C 2098.792969 1062.117188 2098.886719 1062.550781 2098.980469 1062.996094 L 2099.0625 1063.292969 C 2099.15625 1063.738281 2099.265625 1064.195312 2099.371094 1064.640625 L 2099.425781 1064.871094 C 2099.546875 1065.328125 2099.667969 1065.816406 2099.789062 1066.289062 L 2099.832031 1066.4375 C 2099.9375 1066.9375 2100.085938 1067.449219 2100.222656 1067.949219 L 2100.222656 1067.988281 C 2100.355469 1068.5 2100.492188 1069 2100.640625 1069.5 L 2100.65625 1069.566406 C 2100.789062 1070.054688 2100.925781 1070.539062 2101.058594 1071.039062 L 2101.101562 1071.121094 C 2107.484375 1093.269531 2118.511719 1112.828125 2132.722656 1128.171875 C 2150.972656 1147.878906 2174.429688 1160.703125 2200.078125 1163.320312 C 2197.929688 1163.996094 2195.769531 1164.589844 2193.570312 1165.128906 C 2187.523438 1166.585938 2181.261719 1167.503906 2174.824219 1167.816406 C 2142.660156 1169.421875 2112.761719 1155.652344 2090.4375 1132.113281 C 2068.003906 1108.480469 2053.210938 1074.992188 2051.335938 1037.269531 C 2049.472656 999.542969 2060.890625 964.761719 2080.878906 939.019531 C 2100.789062 913.402344 2129.175781 896.761719 2161.351562 895.167969 C 2167.722656 894.84375 2174 895.140625 2180.101562 895.976562" fill="#c21e24" fill-rule="evenodd"/></g><g id="change3_6"><path d="M 2318.378906 1024.003906 C 2314.789062 951.253906 2262.453125 894.714844 2201.496094 897.734375 C 2140.542969 900.742188 2094.042969 962.167969 2097.648438 1034.917969 C 2101.238281 1107.683594 2153.574219 1164.207031 2214.53125 1161.1875 C 2275.488281 1158.183594 2321.984375 1096.757812 2318.378906 1024.003906" fill="#c21e24" fill-rule="evenodd"/></g><g id="change3_7"><path d="M 1639.160156 569.785156 C 1636.664062 567.375 1632.679688 567.449219 1630.269531 569.957031 C 1627.859375 572.453125 1627.933594 576.4375 1630.445312 578.847656 C 1630.574219 578.976562 1676.707031 622.914062 1651.667969 666.621094 C 1649.953125 669.652344 1650.992188 673.492188 1654.023438 675.222656 C 1657.039062 676.9375 1660.875 675.898438 1662.605469 672.871094 C 1692.546875 620.589844 1639.316406 569.929688 1639.160156 569.785156" fill="#c21e24"/></g><g id="change3_8"><path d="M 1655.285156 641.1875 C 1657.492188 641.355469 1659.675781 641.59375 1661.855469 641.886719 C 1637.097656 648.667969 1616.113281 665.066406 1601.335938 687.378906 C 1590.054688 704.433594 1582.394531 724.953125 1579.515625 747.25 L 1579.515625 747.265625 C 1579.445312 747.796875 1579.375 748.328125 1579.320312 748.84375 L 1579.304688 748.886719 C 1579.195312 749.949219 1579.070312 750.996094 1578.96875 752.074219 L 1578.957031 752.128906 C 1578.914062 752.632812 1578.871094 753.152344 1578.816406 753.652344 L 1578.816406 753.851562 C 1578.773438 754.324219 1578.734375 754.785156 1578.691406 755.261719 L 1578.664062 755.527344 C 1578.636719 755.988281 1578.59375 756.449219 1578.566406 756.910156 L 1578.566406 757.136719 C 1578.523438 757.597656 1578.496094 758.070312 1578.46875 758.53125 L 1578.453125 758.828125 C 1578.4375 759.273438 1578.410156 759.707031 1578.382812 760.15625 L 1578.382812 760.53125 C 1578.355469 760.953125 1578.339844 761.382812 1578.328125 761.816406 L 1578.3125 762.140625 C 1578.300781 762.585938 1578.285156 763.035156 1578.285156 763.480469 L 1578.273438 763.804688 C 1578.257812 764.238281 1578.242188 764.667969 1578.242188 765.101562 L 1578.242188 765.632812 C 1578.242188 766.011719 1578.230469 766.390625 1578.230469 766.765625 C 1578.230469 766.933594 1578.230469 767.117188 1578.230469 767.285156 C 1578.230469 767.660156 1578.230469 768.054688 1578.242188 768.429688 C 1578.242188 768.625 1578.242188 768.820312 1578.242188 769.015625 C 1578.242188 769.378906 1578.242188 769.730469 1578.257812 770.09375 C 1578.257812 770.304688 1578.273438 770.511719 1578.273438 770.722656 C 1578.285156 771.085938 1578.285156 771.4375 1578.300781 771.785156 C 1578.300781 771.96875 1578.3125 772.148438 1578.3125 772.332031 C 1578.328125 772.722656 1578.339844 773.097656 1578.355469 773.476562 C 1578.355469 773.6875 1578.371094 773.910156 1578.382812 774.132812 C 1578.398438 774.457031 1578.410156 774.789062 1578.425781 775.125 C 1578.4375 775.390625 1578.453125 775.65625 1578.46875 775.921875 C 1578.496094 776.230469 1578.496094 776.539062 1578.523438 776.847656 C 1578.523438 777.082031 1578.550781 777.320312 1578.566406 777.542969 C 1578.59375 777.878906 1578.605469 778.203125 1578.636719 778.523438 C 1578.648438 778.871094 1578.675781 779.207031 1578.703125 779.558594 C 1578.71875 779.769531 1578.746094 779.992188 1578.761719 780.214844 C 1578.773438 780.507812 1578.816406 780.789062 1578.832031 781.082031 C 1578.859375 781.375 1578.886719 781.65625 1578.914062 781.949219 L 1578.914062 782.058594 C 1579.027344 783.152344 1579.125 784.253906 1579.265625 785.34375 C 1579.375 786.324219 1579.488281 787.300781 1579.613281 788.28125 C 1579.640625 788.433594 1579.65625 788.601562 1579.683594 788.757812 C 1579.710938 788.992188 1579.738281 789.21875 1579.765625 789.457031 C 1579.824219 789.789062 1579.863281 790.140625 1579.921875 790.476562 C 1579.949219 790.671875 1579.976562 790.867188 1580.003906 791.0625 C 1580.0625 791.425781 1580.101562 791.789062 1580.171875 792.152344 C 1580.214844 792.476562 1580.269531 792.796875 1580.328125 793.132812 C 1580.367188 793.355469 1580.394531 793.59375 1580.4375 793.816406 C 1580.496094 794.167969 1580.5625 794.503906 1580.621094 794.851562 C 1580.648438 795.0625 1580.691406 795.269531 1580.730469 795.496094 C 1580.789062 795.871094 1580.859375 796.234375 1580.925781 796.613281 C 1580.96875 796.792969 1580.996094 796.960938 1581.027344 797.144531 C 1581.09375 797.492188 1581.164062 797.828125 1581.234375 798.179688 C 1581.261719 798.386719 1581.304688 798.613281 1581.359375 798.820312 C 1581.417969 799.171875 1581.5 799.507812 1581.570312 799.855469 C 1581.613281 800.050781 1581.65625 800.246094 1581.683594 800.457031 C 1581.765625 800.820312 1581.851562 801.183594 1581.933594 801.546875 C 1581.976562 801.730469 1582.003906 801.910156 1582.046875 802.09375 C 1582.117188 802.457031 1582.214844 802.820312 1582.285156 803.167969 L 1582.421875 803.726562 C 1582.492188 804.09375 1582.589844 804.441406 1582.675781 804.804688 L 1582.800781 805.351562 C 1582.898438 805.726562 1582.996094 806.117188 1583.09375 806.511719 L 1583.207031 806.945312 C 1583.304688 807.363281 1583.417969 807.78125 1583.527344 808.203125 L 1583.625 808.539062 C 1583.722656 808.941406 1583.835938 809.335938 1583.933594 809.738281 L 1584.046875 810.144531 C 1584.171875 810.566406 1584.296875 810.996094 1584.410156 811.417969 L 1584.492188 811.695312 C 1584.617188 812.144531 1584.742188 812.578125 1584.882812 813.011719 L 1584.953125 813.289062 C 1585.09375 813.738281 1585.234375 814.183594 1585.375 814.617188 L 1585.429688 814.84375 C 1585.582031 815.304688 1585.738281 815.765625 1585.875 816.238281 L 1585.917969 816.378906 C 1586.085938 816.882812 1586.253906 817.371094 1586.40625 817.863281 L 1586.4375 817.902344 C 1586.589844 818.40625 1586.757812 818.894531 1586.925781 819.386719 L 1586.953125 819.457031 C 1587.121094 819.929688 1587.289062 820.421875 1587.457031 820.894531 L 1587.484375 820.980469 C 1595.257812 842.6875 1607.515625 861.492188 1622.671875 875.917969 C 1642.117188 894.441406 1666.34375 905.75 1692.09375 906.757812 C 1689.996094 907.554688 1687.886719 908.296875 1685.730469 908.953125 C 1679.777344 910.796875 1673.582031 912.113281 1667.179688 912.824219 C 1635.183594 916.445312 1604.46875 904.605469 1580.703125 882.53125 C 1556.828125 860.34375 1539.941406 827.871094 1535.703125 790.335938 C 1531.453125 752.800781 1540.667969 717.363281 1558.980469 690.425781 C 1577.222656 663.597656 1604.496094 645.1875 1636.511719 641.566406 C 1642.84375 640.851562 1649.132812 640.742188 1655.285156 641.1875" fill="#c21e24" fill-rule="evenodd"/></g><g id="change3_9"><path d="M 1801.359375 760.246094 C 1793.1875 687.863281 1737.390625 634.742188 1676.742188 641.597656 C 1616.09375 648.464844 1573.582031 712.6875 1581.765625 785.066406 C 1589.9375 857.449219 1645.75 910.570312 1706.386719 903.714844 C 1767.019531 896.847656 1809.558594 832.609375 1801.359375 760.246094" fill="#c21e24" fill-rule="evenodd"/></g><g id="change1_3"><path d="M 556.761719 1129.261719 C 568.648438 1125.449219 578.574219 1127.914062 585.355469 1136.042969 C 618.238281 1175.5625 589.117188 1329.136719 485.5625 1329.113281 C 424.535156 1329.101562 375.074219 1270.03125 375.09375 1197.191406 C 375.105469 1144.300781 398.007812 1104.316406 433.523438 1082.378906 C 432.890625 1083.5625 432.367188 1084.710938 431.953125 1085.835938 C 428.09375 1096.226562 434.597656 1106.046875 442.503906 1112.519531 C 472.675781 1137.1875 520.804688 1140.75 556.761719 1129.261719 Z M 505.378906 1097.359375 C 505.546875 1100.6875 508.378906 1103.242188 511.703125 1103.074219 C 515.027344 1102.921875 517.589844 1100.082031 517.421875 1096.757812 C 517.414062 1096.542969 513.492188 1023.714844 541.910156 1002.359375 C 544.574219 1000.347656 545.105469 996.558594 543.097656 993.898438 C 541.089844 991.234375 537.300781 990.703125 534.636719 992.703125 C 501.09375 1017.929688 505.367188 1097.125 505.378906 1097.359375 Z M 558.367188 1328.332031 C 547.953125 1331.878906 536.9375 1333.785156 525.542969 1333.773438 C 519.101562 1333.773438 512.804688 1333.183594 506.683594 1332.011719 C 504.472656 1331.585938 502.28125 1331.101562 500.109375 1330.53125 C 525.582031 1326.664062 548.390625 1312.699219 565.644531 1292.113281 C 571.890625 1284.65625 577.363281 1275.972656 582.0625 1266.613281 C 599.433594 1232.039062 613.265625 1172.484375 592.4375 1137.320312 C 589 1131.507812 584.40625 1126.824219 578.242188 1124.433594 C 569.4375 1121.015625 560.085938 1124.148438 550.675781 1126.894531 C 519.128906 1136.101562 458.832031 1131.425781 438.269531 1102.269531 C 431.160156 1092.179688 434.804688 1082.355469 444.773438 1076.773438 C 460.789062 1067.828125 492.191406 1063.507812 502.390625 1063.425781 C 500.992188 1077.96875 501.128906 1090.070312 501.273438 1095.078125 C 501.375 1098.734375 501.4375 1101.609375 504.652344 1104.507812 C 508.765625 1108.234375 515.132812 1107.925781 518.855469 1103.808594 C 521.59375 1100.792969 521.480469 1098.1875 521.367188 1094.769531 C 521.21875 1090.390625 520.996094 1078.464844 522.25 1064.5 C 592.003906 1072.605469 637.789062 1114.980469 644.351562 1184.910156 C 650 1245.148438 619.945312 1307.351562 558.367188 1328.332031" fill="#ed1d24"/></g><g id="change3_10"><path d="M 1328.210938 562.296875 C 1330.710938 559.894531 1334.691406 559.964844 1337.101562 562.46875 C 1339.511719 564.972656 1339.433594 568.957031 1336.933594 571.371094 C 1336.800781 571.488281 1290.664062 615.421875 1315.703125 659.152344 C 1317.421875 662.164062 1316.371094 666.011719 1313.351562 667.734375 C 1310.332031 669.457031 1306.492188 668.417969 1304.761719 665.390625 C 1274.824219 613.105469 1328.050781 562.457031 1328.210938 562.296875" fill="#c21e24"/></g><g id="change3_11"><path d="M 1312.082031 633.707031 C 1309.882812 633.875 1307.691406 634.101562 1305.515625 634.410156 C 1330.273438 641.183594 1351.265625 657.578125 1366.035156 679.894531 C 1377.324219 696.949219 1384.972656 717.46875 1387.855469 739.769531 L 1387.863281 739.78125 C 1387.925781 740.316406 1387.996094 740.835938 1388.054688 741.367188 L 1388.0625 741.410156 C 1388.183594 742.460938 1388.304688 743.527344 1388.402344 744.578125 L 1388.414062 744.648438 C 1388.464844 745.15625 1388.503906 745.660156 1388.554688 746.179688 L 1388.5625 746.359375 C 1388.605469 746.835938 1388.644531 747.3125 1388.683594 747.777344 L 1388.703125 748.042969 C 1388.734375 748.507812 1388.773438 748.96875 1388.804688 749.417969 L 1388.8125 749.65625 C 1388.84375 750.121094 1388.875 750.582031 1388.90625 751.046875 L 1388.914062 751.339844 C 1388.933594 751.789062 1388.964844 752.238281 1388.984375 752.671875 L 1388.996094 753.050781 C 1389.015625 753.472656 1389.035156 753.90625 1389.042969 754.328125 L 1389.054688 754.664062 C 1389.074219 755.097656 1389.085938 755.546875 1389.09375 755.996094 L 1389.105469 756.320312 C 1389.113281 756.753906 1389.125 757.1875 1389.125 757.621094 L 1389.132812 758.15625 C 1389.132812 758.535156 1389.144531 758.914062 1389.144531 759.292969 C 1389.144531 759.460938 1389.144531 759.628906 1389.144531 759.796875 C 1389.144531 760.191406 1389.144531 760.566406 1389.132812 760.945312 C 1389.132812 761.144531 1389.132812 761.339844 1389.132812 761.535156 C 1389.125 761.886719 1389.125 762.25 1389.113281 762.617188 C 1389.113281 762.828125 1389.105469 763.035156 1389.105469 763.246094 C 1389.09375 763.597656 1389.085938 763.949219 1389.074219 764.300781 C 1389.074219 764.496094 1389.0625 764.679688 1389.0625 764.859375 C 1389.042969 765.238281 1389.035156 765.617188 1389.023438 765.996094 C 1389.015625 766.207031 1389.003906 766.429688 1388.996094 766.640625 C 1388.972656 766.976562 1388.964844 767.316406 1388.945312 767.652344 C 1388.933594 767.917969 1388.925781 768.183594 1388.90625 768.449219 C 1388.882812 768.746094 1388.875 769.054688 1388.855469 769.363281 C 1388.84375 769.601562 1388.824219 769.839844 1388.804688 770.0625 C 1388.785156 770.398438 1388.765625 770.722656 1388.746094 771.046875 C 1388.722656 771.394531 1388.695312 771.734375 1388.664062 772.070312 C 1388.652344 772.292969 1388.632812 772.519531 1388.613281 772.742188 C 1388.59375 773.023438 1388.5625 773.316406 1388.542969 773.597656 C 1388.515625 773.890625 1388.492188 774.171875 1388.464844 774.46875 L 1388.453125 774.578125 C 1388.351562 775.671875 1388.242188 776.769531 1388.113281 777.875 C 1388.003906 778.84375 1387.882812 779.824219 1387.753906 780.792969 C 1387.734375 780.960938 1387.714844 781.117188 1387.695312 781.285156 C 1387.664062 781.507812 1387.632812 781.734375 1387.605469 781.972656 C 1387.554688 782.308594 1387.503906 782.660156 1387.453125 782.996094 C 1387.421875 783.191406 1387.394531 783.386719 1387.363281 783.585938 C 1387.3125 783.949219 1387.261719 784.300781 1387.203125 784.664062 C 1387.152344 785 1387.105469 785.324219 1387.042969 785.644531 C 1387.003906 785.882812 1386.972656 786.109375 1386.933594 786.332031 C 1386.875 786.683594 1386.8125 787.019531 1386.753906 787.371094 C 1386.722656 787.582031 1386.683594 787.792969 1386.644531 788.015625 C 1386.582031 788.378906 1386.515625 788.757812 1386.441406 789.136719 C 1386.402344 789.304688 1386.375 789.488281 1386.34375 789.65625 C 1386.273438 790.007812 1386.214844 790.34375 1386.144531 790.695312 C 1386.105469 790.90625 1386.0625 791.128906 1386.015625 791.339844 C 1385.953125 791.675781 1385.875 792.027344 1385.804688 792.378906 C 1385.765625 792.574219 1385.722656 792.769531 1385.683594 792.96875 C 1385.605469 793.347656 1385.523438 793.710938 1385.441406 794.074219 C 1385.402344 794.257812 1385.363281 794.425781 1385.332031 794.609375 C 1385.242188 794.972656 1385.164062 795.335938 1385.085938 795.6875 L 1384.953125 796.25 C 1384.875 796.597656 1384.785156 796.964844 1384.703125 797.328125 L 1384.574219 797.863281 C 1384.472656 798.253906 1384.382812 798.648438 1384.285156 799.027344 L 1384.171875 799.460938 C 1384.0625 799.882812 1383.953125 800.300781 1383.84375 800.722656 L 1383.753906 801.058594 C 1383.652344 801.453125 1383.542969 801.859375 1383.433594 802.25 L 1383.324219 802.660156 C 1383.203125 803.09375 1383.082031 803.515625 1382.964844 803.949219 L 1382.882812 804.214844 C 1382.753906 804.648438 1382.625 805.085938 1382.492188 805.519531 L 1382.414062 805.800781 C 1382.285156 806.25 1382.144531 806.699219 1382.003906 807.148438 L 1381.945312 807.355469 C 1381.792969 807.820312 1381.644531 808.28125 1381.492188 808.757812 L 1381.453125 808.898438 C 1381.292969 809.390625 1381.125 809.894531 1380.964844 810.386719 L 1380.945312 810.429688 C 1380.785156 810.917969 1380.613281 811.410156 1380.441406 811.902344 L 1380.421875 811.972656 C 1380.253906 812.449219 1380.082031 812.9375 1379.914062 813.417969 L 1379.882812 813.5 C 1372.113281 835.210938 1359.863281 854.019531 1344.703125 868.453125 C 1325.265625 886.953125 1301.035156 898.269531 1275.285156 899.28125 C 1277.375 900.078125 1279.492188 900.808594 1281.644531 901.480469 C 1287.59375 903.320312 1293.792969 904.625 1300.195312 905.351562 C 1332.191406 908.972656 1362.894531 897.121094 1386.664062 875.042969 C 1410.546875 852.871094 1427.433594 820.386719 1431.671875 782.855469 C 1435.921875 745.324219 1426.71875 709.894531 1408.386719 682.9375 C 1390.152344 656.105469 1362.875 637.707031 1330.863281 634.085938 C 1324.523438 633.371094 1318.246094 633.261719 1312.082031 633.707031" fill="#c21e24" fill-rule="evenodd"/></g><g id="change3_12"><path d="M 1166 752.753906 C 1174.179688 680.375 1229.980469 627.261719 1290.621094 634.125 C 1351.269531 640.972656 1393.789062 705.207031 1385.601562 777.585938 C 1377.421875 849.964844 1321.621094 903.089844 1260.980469 896.230469 C 1200.339844 889.367188 1157.808594 825.128906 1166 752.753906" fill="#c21e24" fill-rule="evenodd"/></g><g id="change1_4"><path d="M 1361.511719 1611.921875 C 1373.390625 1608.121094 1383.320312 1610.570312 1390.101562 1618.710938 C 1422.988281 1658.230469 1393.871094 1811.800781 1290.308594 1811.769531 C 1229.28125 1811.761719 1179.820312 1752.691406 1179.839844 1679.851562 C 1179.851562 1626.960938 1202.75 1586.980469 1238.269531 1565.050781 C 1237.640625 1566.230469 1237.109375 1567.378906 1236.699219 1568.5 C 1232.839844 1578.890625 1239.339844 1588.710938 1247.25 1595.179688 C 1277.421875 1619.851562 1325.550781 1623.410156 1361.511719 1611.921875 Z M 1310.128906 1580.019531 C 1310.289062 1583.351562 1313.121094 1585.910156 1316.449219 1585.738281 C 1319.769531 1585.578125 1322.339844 1582.738281 1322.171875 1579.421875 C 1322.160156 1579.210938 1318.238281 1506.378906 1346.660156 1485.019531 C 1349.320312 1483.011719 1349.851562 1479.21875 1347.839844 1476.558594 C 1345.839844 1473.898438 1342.050781 1473.371094 1339.378906 1475.371094 C 1305.839844 1500.589844 1310.109375 1579.800781 1310.128906 1580.019531 Z M 1363.109375 1810.988281 C 1352.699219 1814.539062 1341.679688 1816.449219 1330.289062 1816.441406 C 1323.851562 1816.441406 1317.550781 1815.839844 1311.429688 1814.671875 C 1309.21875 1814.25 1307.03125 1813.761719 1304.859375 1813.199219 C 1330.328125 1809.320312 1353.140625 1795.359375 1370.390625 1774.78125 C 1376.640625 1767.320312 1382.109375 1758.628906 1386.808594 1749.28125 C 1404.179688 1714.710938 1418.011719 1655.148438 1397.179688 1619.980469 C 1393.75 1614.179688 1389.148438 1609.488281 1382.988281 1607.101562 C 1374.179688 1603.679688 1364.828125 1606.808594 1355.421875 1609.558594 C 1323.871094 1618.761719 1263.578125 1614.089844 1243.011719 1584.929688 C 1235.898438 1574.839844 1239.550781 1565.019531 1249.519531 1559.441406 C 1265.539062 1550.488281 1296.941406 1546.171875 1307.128906 1546.089844 C 1305.738281 1560.628906 1305.871094 1572.730469 1306.019531 1577.738281 C 1306.121094 1581.398438 1306.179688 1584.269531 1309.398438 1587.171875 C 1313.511719 1590.898438 1319.878906 1590.589844 1323.601562 1586.46875 C 1326.339844 1583.441406 1326.230469 1580.851562 1326.109375 1577.429688 C 1325.960938 1573.050781 1325.738281 1561.128906 1327 1547.179688 C 1396.75 1555.269531 1442.539062 1597.640625 1449.101562 1667.570312 C 1454.75 1727.808594 1424.691406 1790.011719 1363.109375 1810.988281" fill="#ed1d24"/></g><g id="change3_13"><path d="M 1100.289062 947.261719 C 1102.636719 944.695312 1106.609375 944.523438 1109.175781 946.875 C 1111.738281 949.214844 1111.90625 953.199219 1109.566406 955.757812 C 1109.4375 955.890625 1066.167969 1002.65625 1093.917969 1044.710938 C 1095.835938 1047.605469 1095.027344 1051.519531 1092.128906 1053.421875 C 1089.21875 1055.335938 1085.308594 1054.535156 1083.398438 1051.628906 C 1050.21875 1001.347656 1100.148438 947.421875 1100.289062 947.261719" fill="#c21e24"/></g><g id="change3_14"><path d="M 1088.714844 1019.53125 C 1086.523438 1019.835938 1084.355469 1020.207031 1082.195312 1020.652344 C 1107.335938 1025.839844 1129.324219 1040.886719 1145.464844 1062.21875 C 1157.816406 1078.53125 1166.738281 1098.535156 1171.03125 1120.597656 L 1171.03125 1120.621094 C 1171.136719 1121.148438 1171.230469 1121.660156 1171.324219 1122.183594 L 1171.335938 1122.21875 C 1171.519531 1123.257812 1171.707031 1124.308594 1171.871094 1125.371094 L 1171.882812 1125.425781 C 1171.976562 1125.929688 1172.046875 1126.441406 1172.128906 1126.957031 L 1172.152344 1127.128906 C 1172.222656 1127.609375 1172.292969 1128.074219 1172.347656 1128.542969 L 1172.394531 1128.796875 C 1172.453125 1129.265625 1172.523438 1129.707031 1172.582031 1130.175781 L 1172.605469 1130.40625 C 1172.664062 1130.863281 1172.722656 1131.328125 1172.78125 1131.796875 L 1172.816406 1132.085938 C 1172.863281 1132.519531 1172.910156 1132.960938 1172.96875 1133.417969 L 1173.003906 1133.777344 C 1173.050781 1134.199219 1173.097656 1134.628906 1173.132812 1135.050781 L 1173.164062 1135.386719 C 1173.199219 1135.820312 1173.257812 1136.273438 1173.292969 1136.71875 L 1173.316406 1137.03125 C 1173.351562 1137.464844 1173.398438 1137.894531 1173.421875 1138.339844 L 1173.46875 1138.863281 C 1173.480469 1139.246094 1173.515625 1139.609375 1173.539062 1139.992188 C 1173.550781 1140.15625 1173.5625 1140.34375 1173.574219 1140.507812 C 1173.597656 1140.890625 1173.621094 1141.277344 1173.644531 1141.648438 C 1173.65625 1141.847656 1173.667969 1142.046875 1173.679688 1142.234375 C 1173.691406 1142.59375 1173.714844 1142.96875 1173.726562 1143.316406 C 1173.738281 1143.527344 1173.75 1143.738281 1173.75 1143.949219 C 1173.761719 1144.296875 1173.785156 1144.660156 1173.796875 1145.007812 C 1173.808594 1145.195312 1173.808594 1145.371094 1173.820312 1145.570312 C 1173.820312 1145.929688 1173.832031 1146.316406 1173.84375 1146.6875 C 1173.855469 1146.910156 1173.855469 1147.132812 1173.855469 1147.351562 C 1173.867188 1147.679688 1173.878906 1148.019531 1173.878906 1148.355469 C 1173.890625 1148.625 1173.890625 1148.882812 1173.890625 1149.148438 C 1173.890625 1149.453125 1173.902344 1149.765625 1173.902344 1150.070312 C 1173.902344 1150.304688 1173.902344 1150.546875 1173.902344 1150.769531 C 1173.902344 1151.109375 1173.902344 1151.433594 1173.902344 1151.761719 C 1173.890625 1152.101562 1173.890625 1152.4375 1173.878906 1152.789062 C 1173.878906 1152.996094 1173.878906 1153.230469 1173.867188 1153.453125 C 1173.867188 1153.746094 1173.855469 1154.035156 1173.84375 1154.316406 C 1173.84375 1154.617188 1173.832031 1154.898438 1173.820312 1155.191406 L 1173.820312 1155.308594 C 1173.796875 1156.402344 1173.75 1157.5 1173.691406 1158.605469 C 1173.644531 1159.597656 1173.585938 1160.578125 1173.527344 1161.558594 C 1173.515625 1161.710938 1173.503906 1161.871094 1173.492188 1162.035156 C 1173.46875 1162.257812 1173.457031 1162.492188 1173.433594 1162.734375 C 1173.410156 1163.074219 1173.386719 1163.425781 1173.351562 1163.761719 C 1173.339844 1163.960938 1173.328125 1164.160156 1173.304688 1164.355469 C 1173.269531 1164.71875 1173.246094 1165.082031 1173.210938 1165.441406 C 1173.1875 1165.769531 1173.140625 1166.105469 1173.121094 1166.433594 C 1173.097656 1166.679688 1173.074219 1166.898438 1173.050781 1167.132812 C 1173.015625 1167.484375 1172.980469 1167.820312 1172.933594 1168.171875 C 1172.910156 1168.390625 1172.898438 1168.601562 1172.863281 1168.824219 C 1172.828125 1169.207031 1172.769531 1169.570312 1172.734375 1169.953125 C 1172.710938 1170.128906 1172.699219 1170.316406 1172.664062 1170.480469 C 1172.628906 1170.828125 1172.582031 1171.179688 1172.535156 1171.53125 C 1172.5 1171.738281 1172.476562 1171.960938 1172.453125 1172.183594 C 1172.40625 1172.53125 1172.347656 1172.871094 1172.304688 1173.21875 C 1172.28125 1173.417969 1172.246094 1173.628906 1172.210938 1173.839844 C 1172.164062 1174.199219 1172.105469 1174.574219 1172.058594 1174.945312 C 1172.023438 1175.121094 1172 1175.308594 1171.964844 1175.484375 C 1171.917969 1175.855469 1171.859375 1176.21875 1171.789062 1176.578125 L 1171.707031 1177.140625 C 1171.648438 1177.511719 1171.578125 1177.875 1171.511719 1178.246094 L 1171.417969 1178.785156 C 1171.347656 1179.179688 1171.277344 1179.578125 1171.207031 1179.972656 L 1171.125 1180.40625 C 1171.042969 1180.824219 1170.949219 1181.257812 1170.878906 1181.675781 L 1170.808594 1182.027344 C 1170.726562 1182.421875 1170.648438 1182.832031 1170.554688 1183.238281 L 1170.472656 1183.660156 C 1170.390625 1184.078125 1170.285156 1184.523438 1170.191406 1184.953125 L 1170.132812 1185.234375 C 1170.039062 1185.6875 1169.933594 1186.121094 1169.832031 1186.5625 L 1169.761719 1186.84375 C 1169.667969 1187.308594 1169.550781 1187.753906 1169.445312 1188.207031 L 1169.398438 1188.429688 C 1169.269531 1188.90625 1169.152344 1189.375 1169.039062 1189.839844 L 1168.992188 1189.992188 C 1168.875 1190.503906 1168.734375 1191.003906 1168.605469 1191.519531 L 1168.59375 1191.554688 C 1168.464844 1192.054688 1168.324219 1192.558594 1168.1875 1193.058594 L 1168.164062 1193.128906 C 1168.035156 1193.617188 1167.894531 1194.109375 1167.753906 1194.597656 L 1167.71875 1194.691406 C 1161.335938 1216.839844 1150.304688 1236.382812 1136.09375 1251.742188 C 1117.855469 1271.441406 1094.382812 1284.257812 1068.753906 1286.894531 C 1070.894531 1287.558594 1073.054688 1288.167969 1075.242188 1288.691406 C 1081.292969 1290.148438 1087.554688 1291.058594 1093.996094 1291.386719 C 1126.164062 1292.972656 1156.054688 1279.210938 1178.378906 1255.6875 C 1200.816406 1232.046875 1215.617188 1198.550781 1217.484375 1160.835938 C 1219.347656 1123.105469 1207.921875 1088.316406 1187.929688 1062.578125 C 1168.046875 1036.96875 1139.644531 1020.324219 1107.484375 1018.726562 C 1101.09375 1018.414062 1094.824219 1018.691406 1088.714844 1019.53125" fill="#c21e24" fill-rule="evenodd"/></g><g id="change3_15"><path d="M 950.4375 1147.558594 C 954.035156 1074.8125 1006.363281 1018.28125 1067.324219 1021.292969 C 1128.273438 1024.3125 1174.773438 1085.730469 1171.171875 1158.488281 C 1167.578125 1231.230469 1115.246094 1287.761719 1054.285156 1284.753906 C 993.332031 1281.734375 946.835938 1220.3125 950.4375 1147.558594" fill="#c21e24" fill-rule="evenodd"/></g><g id="change3_16"><path d="M 616.199219 1513.929688 C 618.546875 1511.371094 622.523438 1511.191406 625.085938 1513.539062 C 627.648438 1515.878906 627.824219 1519.859375 625.476562 1522.421875 C 625.355469 1522.558594 582.082031 1569.320312 609.835938 1611.371094 C 611.746094 1614.269531 610.941406 1618.179688 608.035156 1620.089844 C 605.128906 1622 601.222656 1621.199219 599.3125 1618.289062 C 566.125 1568.011719 616.054688 1514.078125 616.199219 1513.929688" fill="#c21e24"/></g><g id="change3_17"><path d="M 604.617188 1586.21875 C 602.429688 1586.519531 600.257812 1586.890625 598.105469 1587.328125 C 623.238281 1592.519531 645.226562 1607.558594 661.371094 1628.890625 C 673.722656 1645.210938 682.648438 1665.210938 686.9375 1687.28125 L 686.9375 1687.300781 C 687.039062 1687.820312 687.136719 1688.339844 687.234375 1688.859375 L 687.242188 1688.898438 C 687.433594 1689.941406 687.613281 1690.988281 687.785156 1692.050781 L 687.792969 1692.109375 C 687.875 1692.609375 687.953125 1693.121094 688.03125 1693.628906 L 688.058594 1693.808594 C 688.128906 1694.28125 688.199219 1694.75 688.265625 1695.21875 L 688.300781 1695.480469 C 688.363281 1695.941406 688.425781 1696.398438 688.484375 1696.851562 L 688.511719 1697.078125 C 688.574219 1697.539062 688.632812 1698.011719 688.6875 1698.46875 L 688.71875 1698.761719 C 688.773438 1699.199219 688.824219 1699.648438 688.871094 1700.089844 L 688.910156 1700.449219 C 688.953125 1700.878906 689 1701.308594 689.039062 1701.738281 L 689.070312 1702.058594 C 689.113281 1702.5 689.15625 1702.949219 689.195312 1703.390625 L 689.222656 1703.710938 C 689.257812 1704.140625 689.292969 1704.570312 689.328125 1705.011719 L 689.367188 1705.539062 C 689.394531 1705.921875 689.421875 1706.289062 689.445312 1706.671875 C 689.460938 1706.851562 689.46875 1707.019531 689.480469 1707.191406 C 689.503906 1707.570312 689.527344 1707.949219 689.550781 1708.328125 C 689.558594 1708.53125 689.570312 1708.71875 689.578125 1708.921875 C 689.597656 1709.28125 689.617188 1709.640625 689.632812 1710 C 689.644531 1710.210938 689.648438 1710.421875 689.660156 1710.628906 C 689.675781 1710.980469 689.6875 1711.328125 689.699219 1711.691406 C 689.707031 1711.871094 689.710938 1712.050781 689.71875 1712.238281 C 689.730469 1712.609375 689.742188 1712.988281 689.75 1713.371094 C 689.757812 1713.589844 689.761719 1713.808594 689.765625 1714.03125 C 689.769531 1714.359375 689.777344 1714.699219 689.78125 1715.03125 C 689.785156 1715.300781 689.789062 1715.558594 689.789062 1715.828125 C 689.792969 1716.128906 689.796875 1716.441406 689.796875 1716.75 C 689.796875 1716.980469 689.796875 1717.21875 689.796875 1717.449219 C 689.796875 1717.78125 689.796875 1718.109375 689.792969 1718.441406 C 689.792969 1718.78125 689.785156 1719.121094 689.78125 1719.460938 C 689.777344 1719.691406 689.777344 1719.910156 689.773438 1720.128906 C 689.769531 1720.421875 689.761719 1720.710938 689.753906 1720.988281 C 689.746094 1721.289062 689.742188 1721.578125 689.734375 1721.871094 L 689.730469 1721.980469 C 689.699219 1723.078125 689.65625 1724.179688 689.601562 1725.28125 C 689.550781 1726.269531 689.492188 1727.25 689.425781 1728.230469 C 689.414062 1728.390625 689.40625 1728.550781 689.394531 1728.710938 C 689.378906 1728.941406 689.359375 1729.179688 689.34375 1729.410156 C 689.316406 1729.75 689.289062 1730.101562 689.261719 1730.441406 C 689.246094 1730.640625 689.230469 1730.828125 689.210938 1731.03125 C 689.179688 1731.398438 689.152344 1731.761719 689.117188 1732.121094 C 689.085938 1732.449219 689.054688 1732.78125 689.019531 1733.109375 C 688.996094 1733.351562 688.976562 1733.578125 688.953125 1733.808594 C 688.917969 1734.160156 688.878906 1734.5 688.839844 1734.851562 C 688.816406 1735.070312 688.796875 1735.28125 688.769531 1735.5 C 688.726562 1735.878906 688.683594 1736.25 688.636719 1736.628906 C 688.617188 1736.808594 688.597656 1736.988281 688.574219 1737.160156 C 688.53125 1737.511719 688.484375 1737.859375 688.4375 1738.210938 C 688.410156 1738.429688 688.382812 1738.640625 688.355469 1738.859375 C 688.308594 1739.210938 688.257812 1739.550781 688.210938 1739.898438 C 688.179688 1740.101562 688.152344 1740.308594 688.121094 1740.511719 C 688.070312 1740.878906 688.011719 1741.25 687.957031 1741.621094 C 687.929688 1741.800781 687.902344 1741.980469 687.875 1742.171875 C 687.816406 1742.53125 687.757812 1742.898438 687.695312 1743.269531 L 687.605469 1743.820312 C 687.546875 1744.191406 687.480469 1744.550781 687.417969 1744.921875 L 687.324219 1745.460938 C 687.253906 1745.859375 687.179688 1746.25 687.105469 1746.648438 L 687.027344 1747.078125 C 686.945312 1747.5 686.863281 1747.929688 686.78125 1748.351562 L 686.714844 1748.699219 C 686.632812 1749.101562 686.546875 1749.511719 686.464844 1749.921875 L 686.378906 1750.328125 C 686.285156 1750.761719 686.195312 1751.199219 686.097656 1751.628906 L 686.035156 1751.910156 C 685.9375 1752.359375 685.839844 1752.800781 685.738281 1753.238281 L 685.671875 1753.519531 C 685.566406 1753.980469 685.457031 1754.429688 685.347656 1754.890625 L 685.296875 1755.101562 C 685.179688 1755.578125 685.0625 1756.050781 684.941406 1756.519531 L 684.90625 1756.671875 C 684.777344 1757.179688 684.644531 1757.679688 684.511719 1758.191406 L 684.5 1758.230469 C 684.367188 1758.730469 684.230469 1759.230469 684.09375 1759.738281 L 684.074219 1759.800781 C 683.9375 1760.300781 683.796875 1760.789062 683.65625 1761.28125 L 683.632812 1761.371094 C 677.242188 1783.519531 666.210938 1803.058594 651.996094 1818.421875 C 633.757812 1838.121094 610.285156 1850.941406 584.65625 1853.570312 C 586.792969 1854.238281 588.960938 1854.839844 591.148438 1855.371094 C 597.199219 1856.828125 603.464844 1857.738281 609.898438 1858.058594 C 642.066406 1859.648438 671.960938 1845.890625 694.289062 1822.359375 C 716.714844 1798.71875 731.519531 1765.230469 733.386719 1727.511719 C 735.253906 1689.78125 723.824219 1655 703.839844 1629.261719 C 683.945312 1603.640625 655.554688 1587 623.386719 1585.410156 C 617.003906 1585.089844 610.734375 1585.371094 604.617188 1586.21875" fill="#c21e24" fill-rule="evenodd"/></g><g id="change3_18"><path d="M 466.34375 1714.238281 C 469.941406 1641.488281 522.269531 1584.960938 583.226562 1587.96875 C 644.179688 1590.988281 690.675781 1652.410156 687.078125 1725.160156 C 683.476562 1797.910156 631.148438 1854.441406 570.191406 1851.429688 C 509.238281 1848.410156 462.742188 1786.988281 466.34375 1714.238281" fill="#c21e24" fill-rule="evenodd"/></g><g clip-path="url(#b)" id="change4_1"><path d="M 1780.707031 2785.257812 C 1745.726562 2770.550781 1712.917969 2752.429688 1674.5 2704.808594 C 1651.800781 2676.652344 1629 2641.179688 1606.761719 2596.582031 C 1552.71875 2488.21875 1557.371094 2386.140625 1584.351562 2286 C 1617.929688 2161.378906 1651.011719 2086.6875 1676.03125 2020.378906 C 1719.945312 1903.941406 1725.351562 1817.152344 1714.621094 1695.449219 C 1711.46875 1659.589844 1706.632812 1619.429688 1699.976562 1573.839844 C 1695.882812 1545.839844 1694.683594 1517.9375 1699.269531 1493.390625 C 1705.183594 1461.699219 1748.609375 1418.539062 1789.234375 1381.320312 C 1867.660156 1309.460938 1879.402344 1309.480469 2000.390625 1327.46875 C 2072.632812 1338.210938 2162.664062 1355.230469 2256.660156 1374.511719 C 2313.933594 1386.261719 2368.515625 1388.78125 2418.984375 1385.410156 C 2421.460938 1385.238281 2463.097656 1422.480469 2517.695312 1455.570312 C 2592.480469 1500.890625 2686.386719 1546 2689.707031 1545.6875 C 2692.351562 1545.441406 2592.039062 1489.621094 2521.214844 1442.46875 C 2475.636719 1412.121094 2447.644531 1382.828125 2449.3125 1382.628906 C 2622.945312 1362.53125 2741.269531 1276.152344 2742.300781 1273.417969 C 2746.679688 1261.820312 2609.785156 1349.050781 2422.015625 1355.859375 C 2302.054688 1360.207031 2179.296875 1320.210938 2060.972656 1297.320312 C 1899.675781 1266.128906 1882.066406 1235.710938 1751.65625 1349.71875 C 1731.6875 1367.171875 1711.46875 1377.828125 1702.90625 1380.621094 C 1659.570312 1394.730469 1613.78125 1333.980469 1593.878906 1249.339844 C 1591.910156 1240.980469 1583.03125 1212.886719 1574.589844 1181.710938 C 1552.460938 1100.003906 1537.769531 1086.722656 1606.398438 1046.417969 C 1676.492188 1005.25 1803.238281 946.695312 1829.777344 933.785156 C 1871.535156 913.480469 1927.074219 901.265625 1974.476562 887.144531 C 2518.65625 725.019531 2391.449219 755.066406 1967.214844 862.507812 C 1915.246094 875.667969 1873.203125 883.621094 1863.648438 878.667969 C 1859.875 876.710938 1854.867188 866.820312 1856.976562 840.9375 C 1861.625 783.59375 1881.207031 682.523438 1884.914062 661.714844 C 1909.09375 525.84375 1897.703125 518.683594 1842.652344 761.25 C 1830.113281 816.472656 1820.441406 865.574219 1819.886719 881.078125 C 1819.550781 890.5625 1816.296875 893.816406 1778.566406 914.863281 C 1748.386719 931.714844 1707.945312 950.417969 1672.171875 967.285156 C 1629.359375 987.488281 1541.761719 1050.242188 1521.300781 972.207031 C 1516.5 953.890625 1515.699219 932.371094 1513.351562 915.148438 C 1500.550781 819.351562 1500.109375 714.945312 1489.71875 619.097656 C 1489.070312 613.066406 1488.371094 607.066406 1487.640625 601.117188 C 1487.539062 600.34375 1486.890625 594.679688 1495.402344 592.878906 C 1531.402344 585.242188 1636.949219 576.917969 1671.921875 570.617188 C 1694.144531 566.625 1673.300781 562.917969 1664.832031 563.304688 C 1618.839844 565.496094 1485.121094 578.285156 1484.859375 574.949219 C 1482.339844 542.898438 1479.449219 510.933594 1475.878906 479.21875 C 1469.582031 423.359375 1462.359375 347.378906 1458.351562 350.175781 C 1451.28125 355.097656 1459.019531 511.386719 1457.929688 547.246094 C 1457.429688 564.0625 1455.011719 570.871094 1447.570312 572.523438 C 1430.011719 576.464844 1242.75 545.660156 1242.480469 546.539062 C 1242.269531 547.179688 1414.648438 588.699219 1428.5 589.390625 C 1438.097656 589.878906 1451.179688 592.152344 1454.160156 603.039062 C 1461.109375 628.433594 1457.878906 689.617188 1459.929688 727.347656 C 1463.621094 795.339844 1459.898438 863.265625 1420.921875 882.996094 C 1392.808594 897.21875 1350.351562 907.886719 1298.660156 912.957031 C 1210.859375 921.601562 1071.691406 912.417969 995.582031 933.195312 C 987.960938 935.269531 978.039062 937.257812 961.75 938.050781 C 946.484375 938.808594 750.894531 934.222656 750.285156 934.054688 C 738.980469 931.105469 742.160156 921.164062 733.359375 910.429688 C 728.453125 904.433594 724.011719 897.976562 720.113281 891.878906 C 703.144531 865.289062 678.074219 813.066406 664.546875 783.847656 C 607.539062 660.734375 627.433594 726.605469 690.214844 871.605469 C 697.640625 888.761719 705.183594 900.640625 714.710938 923.035156 C 721.574219 939.160156 708.320312 948.496094 695.621094 955.339844 C 682.984375 962.144531 667.140625 967.976562 658.1875 969.980469 C 609.023438 980.902344 558.804688 987.40625 509.207031 996.269531 C 444.160156 1007.914062 420.523438 1014.199219 511.347656 1004.527344 C 564.882812 998.847656 640.566406 995.15625 689.253906 979.753906 C 708.375 973.6875 726.3125 967.132812 738.390625 966.105469 C 835.167969 957.949219 952.441406 966.710938 969.769531 976.722656 C 995.128906 991.363281 944.25 1029.042969 910.425781 1059.8125 C 842.546875 1121.570312 938.957031 1052.855469 968.644531 1031.183594 C 978.871094 1023.734375 990.15625 1014.703125 998.566406 1005.453125 C 1004.21875 999.25 1008.871094 992.222656 1012.710938 982.316406 C 1014.078125 978.777344 1016.660156 975.609375 1021.929688 973.183594 C 1059.96875 955.589844 1122.78125 953.46875 1179.949219 955.808594 C 1209.28125 957.023438 1248.058594 959.871094 1283.46875 959.449219 C 1316.820312 959.0625 1346.980469 955.371094 1369.671875 957.125 C 1381.71875 958.050781 1424.609375 952.050781 1440.570312 980.816406 C 1443.25 985.652344 1540.53125 1363.210938 1540.742188 1364.339844 C 1552.9375 1430.96875 1567.980469 1494.898438 1486.789062 1475.191406 C 1453.238281 1467.050781 1406.851562 1447.371094 1374.339844 1440.96875 C 1283.460938 1423.070312 1159.328125 1416.507812 1052.050781 1425.570312 C 934.609375 1435.480469 840.578125 1485.21875 733.992188 1494.859375 C 685.417969 1499.261719 628.714844 1499.851562 573.101562 1492.359375 C 528.90625 1486.398438 481.328125 1476.140625 445.175781 1468.199219 C 321.328125 1441.011719 368.9375 1457.957031 440.511719 1476.359375 C 452.351562 1479.398438 466.121094 1483.410156 477.839844 1488 C 516.433594 1503.109375 521.027344 1498.199219 500.359375 1535.5 C 494.1875 1546.640625 488.328125 1556.839844 482.496094 1566.558594 C 485.582031 1565.738281 392.476562 1704.789062 395.574219 1704.007812 C 396.34375 1703.820312 399.066406 1702.9375 411.085938 1686.390625 C 441.0625 1645.121094 497.925781 1562.617188 499.851562 1562.160156 C 501.496094 1559.660156 503.054688 1557.25 504.503906 1554.960938 C 512.667969 1542.019531 522.738281 1528.917969 538.453125 1521.648438 C 550.746094 1515.96875 567.917969 1514.691406 584.21875 1516.269531 C 686.859375 1526.230469 730.21875 1525.460938 819.324219 1508.75 C 863.3125 1500.511719 916.527344 1482.601562 961.839844 1474.410156 C 1036.71875 1460.878906 1076.210938 1460.980469 1154.339844 1462.371094 C 1228.898438 1463.691406 1336.582031 1479.921875 1394.328125 1500.839844 C 1454.289062 1522.558594 1505.3125 1558.839844 1529.992188 1587.980469 C 1573.269531 1639.070312 1571.140625 1707.449219 1565.582031 1770.550781 C 1555.441406 1885.75 1513.621094 1980.097656 1471.890625 2080.871094 C 1400.242188 2253.917969 1343.238281 2376.71875 1383.101562 2565.179688 C 1393.539062 2614.582031 1408.210938 2656.121094 1425.058594 2720.25 C 1434.300781 2755.398438 1430.320312 2770.441406 1408.78125 2778.859375 C 1370.53125 2793.808594 1222.230469 2818.488281 1206.871094 2850.167969 C 1201.941406 2860.320312 1220.449219 2853.800781 1248.199219 2845.851562 C 1295.191406 2832.410156 1355.75 2828.558594 1403.820312 2831.308594 C 1472.601562 2835.25 1507.929688 2843.980469 1572.011719 2865.5 C 1592.789062 2872.480469 1610.292969 2880.417969 1640.53125 2900.550781 C 1655.511719 2910.511719 1669.601562 2919.609375 1672.140625 2919.398438 C 1675.480469 2919.121094 1674.859375 2915.859375 1672.980469 2912.148438 C 1666.488281 2899.257812 1649.042969 2884.460938 1638.8125 2874.351562 C 1628.328125 2863.988281 1618.238281 2853.441406 1613.058594 2844.78125 C 1582.972656 2794.5 1731.570312 2817.089844 1750.882812 2820.769531 C 1776.226562 2825.601562 1806.019531 2829.332031 1834.445312 2834.988281 C 1860.328125 2840.128906 1885.4375 2848.03125 1910.308594 2856.75 C 1915.210938 2858.46875 1922.558594 2862.03125 1927.597656 2862.960938 C 1929.6875 2863.351562 1930.425781 2862.910156 1927.445312 2859.480469 C 1890.105469 2816.378906 1834.023438 2807.691406 1780.707031 2785.257812" fill="#8e9a24" fill-rule="evenodd"/></g></g></svg>